<?xml version="1.0"?>

<!-- Generator: Adobe Illustrator 19.1.0, SVG Export Plug-In . SVG Version: 6.00 Build 0)  -->
<svg version="1.1" id="Layer_1" xmlns="http://www.w3.org/2000/svg" xmlns:xlink="http://www.w3.org/1999/xlink" x="0px" y="0px" viewBox="0 0 50 42" style="enable-background:new 0 0 50 42;" xml:space="preserve" width="50" height="42">
<g>
	<path style="fill:#B66F6F;" d="M38.7,0C45,0,50,4.6,50,11.6C50,25,43.5,34.9,35.3,42l-7.1-6.9c3.2-2.3,8.4-8,9.4-13.7
		c-5.7-1-9.4-5.5-9.4-10.5C28.2,5,32.8,0,38.7,0z M10.5,0c6.3,0,11.3,4.6,11.3,11.6C21.8,25,15.3,34.9,7.1,42L0,35.1
		c3.2-2.3,8.4-8,9.4-13.7C3.6,20.4,0,15.8,0,10.9C0,5,4.6,0,10.5,0z"></path>
</g>
</svg>
