<?xml version="1.0"?>

<!-- Generator: Adobe Illustrator 19.1.0, SVG Export Plug-In . SVG Version: 6.00 Build 0)  -->
<svg version="1.1" id="Layer_1" xmlns="http://www.w3.org/2000/svg" xmlns:xlink="http://www.w3.org/1999/xlink" x="0px" y="0px" viewBox="0 0 200 58" style="enable-background:new 0 0 200 58;" xml:space="preserve" width="200" height="58">
<g>
	<path style="fill:#FFFFFF;" d="M144.7,9.2h2.3l10.8,16v-16h2.2v19.6h-2.2l-10.8-15.9v15.9h-2.3V9.2z"></path>
	<path style="fill:#FFFFFF;" d="M170,9.2h9.3v2.1h-7v6.5h6.1v2h-6.1v6.9h7.3v2H170V9.2z"></path>
	<path style="fill:#FFFFFF;" d="M192.5,11.3h-5.3V9.2H200v2.1h-5.3v17.5h-2.3V11.3z"></path>
</g>
<g>
	<g>
		<path style="fill:#FFFFFF;" d="M100.6,9.3v19.5h1.9V11.2h9.9v17.6h1.9V11.2h9.9v17.6h1.9V9.3H100.6z M39.9,8.6
			c-2.8,0-5.4,1.1-7.4,3.1c-2,2-3.1,4.6-3.1,7.4s1.1,5.4,3.1,7.4c2,2,4.6,3.1,7.4,3.1s5.4-1.1,7.4-3.1c2-2,3.1-4.6,3.1-7.4
			c0-2.8-1.1-5.4-3.1-7.4C45.3,9.6,42.7,8.6,39.9,8.6z M45.9,25.1c-1.6,1.6-3.8,2.5-6,2.5c-2.3,0-4.4-0.9-6-2.5
			c-1.6-1.6-2.5-3.8-2.5-6.1c0-2.3,0.9-4.4,2.5-6.1s3.8-2.5,6-2.5c2.3,0,4.4,0.9,6,2.5c1.6,1.6,2.5,3.8,2.5,6.1
			C48.4,21.3,47.5,23.4,45.9,25.1z M89,11.6c-2-2-4.6-3.1-7.4-3.1c-2.8,0-5.4,1.1-7.4,3.1c-2,2-3.1,4.6-3.1,7.4s1.1,5.4,3.1,7.4
			c2,2,4.6,3.1,7.4,3.1c2.8,0,5.4-1.1,7.4-3.1l-1.3-1.3c-1.6,1.6-3.8,2.5-6,2.5c-2.3,0-4.4-0.9-6-2.5c-1.6-1.6-2.5-3.8-2.5-6.1h19
			C92.1,16.2,91,13.6,89,11.6z M75.6,13c1.6-1.6,3.8-2.5,6-2.5c2.3,0,4.4,0.9,6,2.5c1.2,1.2,1.9,2.6,2.3,4.2H73.3
			C73.7,15.6,74.5,14.1,75.6,13z M23.2,4.9L17.1,11c-1.9-1.6-4.2-2.4-6.7-2.4c-2.8,0-5.4,1.1-7.4,3.1c-2,2-3.1,4.6-3.1,7.4
			c0,2.8,1.1,5.4,3.1,7.4c1.7,1.8,4,2.8,6.4,3v7.7c-2.4,0.2-4.7,1.3-6.4,3c-2,2-3.1,4.6-3.1,7.4c0,2.8,1.1,5.4,3.1,7.4
			c2,2,4.6,3.1,7.4,3.1c2.8,0,5.4-1.1,7.4-3.1c2-2,3.1-4.6,3.1-7.4c0-2.8-1.1-5.4-3.1-7.4c-1.7-1.7-4-2.8-6.4-3v-7.7
			c2.4-0.2,4.7-1.3,6.4-3c2-2,3.1-4.6,3.1-7.4c0-2.5-0.9-4.8-2.4-6.7l6.1-6.1L23.2,4.9z M16.5,41.5c1.6,1.6,2.5,3.8,2.5,6.1
			c0,2.3-0.9,4.4-2.5,6.1c-1.6,1.6-3.8,2.5-6,2.5c-2.3,0-4.4-0.9-6-2.5c-1.6-1.6-2.5-3.8-2.5-6.1c0-2.3,0.9-4.4,2.5-6.1
			c1.6-1.6,3.8-2.5,6-2.5S14.9,39.9,16.5,41.5z M19,19c0,2.3-0.9,4.4-2.5,6.1c-1.6,1.6-3.8,2.5-6,2.5c-2.3,0-4.4-0.9-6-2.5
			c-1.6-1.6-2.5-3.8-2.5-6.1c0-2.3,0.9-4.4,2.5-6.1c1.6-1.6,3.8-2.5,6-2.5c2.3,0,4.4,0.9,6,2.5S19,16.7,19,19z M59.8,28.5h1.9V0
			h-1.9V28.5z"></path>
	</g>
</g>
</svg>
