<?xml version="1.0"?>

<!-- Generator: Adobe Illustrator 19.1.0, SVG Export Plug-In . SVG Version: 6.00 Build 0)  -->
<svg version="1.1" id="Layer_1" xmlns="http://www.w3.org/2000/svg" xmlns:xlink="http://www.w3.org/1999/xlink" x="0px" y="0px" viewBox="0 0 97 61" style="enable-background:new 0 0 97 61;" xml:space="preserve" width="97" height="61">
<g>
	<rect x="14.5" y="60" style="fill:#757C97;" width="36" height="1"></rect>
</g>
<g>
	<path style="fill:#757C97;" d="M0,36v1v12h24v12h17V49h24V37v-1V0H0V36z M40,60H25V49h15V60z M64,48H41H24H1V37h63V48z M1,1h63v35
		H1V1z"></path>
	<path style="fill:#757C97;" d="M32.5,46c1.9,0,3.5-1.6,3.5-3.5S34.4,39,32.5,39S29,40.6,29,42.5S30.6,46,32.5,46z M32.5,40
		c1.4,0,2.5,1.1,2.5,2.5S33.9,45,32.5,45S30,43.9,30,42.5S31.1,40,32.5,40z"></path>
	<path style="fill:#757C97;" d="M84.5,46c1.9,0,3.5-1.6,3.5-3.5S86.4,39,84.5,39S81,40.6,81,42.5S82.6,46,84.5,46z M84.5,40
		c1.4,0,2.5,1.1,2.5,2.5S85.9,45,84.5,45S82,43.9,82,42.5S83.1,40,84.5,40z"></path>
	<path style="fill:#757C97;" d="M72,0v12v1v12v36h25V25V13v-1V0H72z M96,60H73V25h23V60z M96,24H73V13h23V24z M73,12V1h23v11H73z"></path>
</g>
<g>
	<path style="fill:#B66F6F;" d="M51.9,29.5H13.1v-22h38.8V29.5z M13.6,29h37.8V8H13.6V29z"></path>
</g>
</svg>
