<?xml version="1.0"?>

<!-- Generator: Adobe Illustrator 19.1.0, SVG Export Plug-In . SVG Version: 6.00 Build 0)  -->
<svg version="1.1" id="Layer_1" xmlns="http://www.w3.org/2000/svg" xmlns:xlink="http://www.w3.org/1999/xlink" x="0px" y="0px" viewBox="0 0 401 228.5" style="enable-background:new 0 0 401 228.5;" xml:space="preserve" width="401" height="228.5">
<g>
	<g>
		<g>
			<defs>
				<polygon id="SVGID_1_" points="13.4,0.2 51.6,0.2 400.5,67 400.5,228 0.5,228 0.5,67 				"></polygon>
			</defs>
			<linearGradient id="SVGID_2_" gradientUnits="userSpaceOnUse" x1="200.4978" y1="0.2476" x2="200.4978" y2="228.0142">
				<stop offset="0" style="stop-color:#B66F6F;stop-opacity:0.3"></stop>
				<stop offset="1" style="stop-color:#B66F6F;stop-opacity:0"></stop>
			</linearGradient>
			<use xlink:href="#SVGID_1_" style="overflow:visible;fill:url(#SVGID_2_);"></use>
			<clipPath id="SVGID_3_">
				<use xlink:href="#SVGID_1_" style="overflow:visible;"></use>
			</clipPath>
			<linearGradient id="SVGID_4_" gradientUnits="userSpaceOnUse" x1="400.4978" y1="228.0142" x2="400.4978" y2="228.0142">
				<stop offset="0" style="stop-color:#B66F6F;stop-opacity:0.3"></stop>
				<stop offset="1" style="stop-color:#B66F6F;stop-opacity:0"></stop>
			</linearGradient>
			<path style="clip-path:url(#SVGID_3_);fill:url(#SVGID_4_);" d="M400.5,228L400.5,228z"></path>
		</g>
		<path style="fill:#B66F6F;" d="M400.8,228.3H0.2V67L13.2,0h38.5l349.1,66.8V228.3z M0.8,227.8h399.5V67.2L51.6,0.5l-38,0L0.7,67.1
			L0.8,227.8z"></path>
	</g>
	<g>
		<g>
			<defs>
				<line id="SVGID_5_" x1="51.6" y1="21.8" x2="400.5" y2="228"></line>
			</defs>
			<clipPath id="SVGID_6_">
				<use xlink:href="#SVGID_5_" style="overflow:visible;"></use>
			</clipPath>
			<rect x="51.6" y="21.8" style="clip-path:url(#SVGID_6_);fill:#B66F6F;" width="234.9" height="206.2"></rect>
			<rect x="286.6" y="21.8" style="clip-path:url(#SVGID_6_);fill:#B66F6F;" width="113.9" height="206.2"></rect>
			<path style="clip-path:url(#SVGID_6_);fill:#B66F6F;" d="M400.5,228V21.8V228z"></path>
		</g>
		
			<rect x="23.4" y="124.6" transform="matrix(0.8608 0.5089 -0.5089 0.8608 95.022 -97.663)" style="fill:#B66F6F;" width="405.3" height="0.5"></rect>
	</g>
	<g>
		<g>
			<defs>
				<line id="SVGID_7_" x1="13.4" y1="21.8" x2="0.5" y2="228"></line>
			</defs>
			<clipPath id="SVGID_8_">
				<use xlink:href="#SVGID_7_" style="overflow:visible;"></use>
			</clipPath>
			<rect x="0.5" y="21.8" style="clip-path:url(#SVGID_8_);fill:#B66F6F;" width="8.7" height="206.2"></rect>
			<rect x="9.2" y="21.8" style="clip-path:url(#SVGID_8_);fill:#B66F6F;" width="4.2" height="206.2"></rect>
			<path style="clip-path:url(#SVGID_8_);fill:#B66F6F;" d="M13.4,228V21.8V228z"></path>
		</g>
		
			<rect x="6.7" y="21.6" transform="matrix(0.998 6.249988e-02 -6.249988e-02 0.998 7.8198 -0.1889)" style="fill:#B66F6F;" width="0.5" height="206.6"></rect>
	</g>
	<g>
		<g>
			<rect x="0.5" y="67" style="fill:#B66F6F;" width="400" height="36"></rect>
			<path style="fill:#B66F6F;" d="M401,103.5H0v-37h401V103.5z M1,102.5h399v-35H1V102.5z"></path>
		</g>
		<g style="opacity:0.5;">
			<rect x="0.5" y="103" style="fill:#1C1F2B;" width="400" height="125"></rect>
		</g>
		<g>
			<g>
				<path style="fill:#FFFFFF;" d="M27.2,80.3l-0.9,1c-0.6-0.6-1.7-1.4-3.7-1.4c-2.9,0-4.9,2.2-4.9,5.2c0,3,2.1,5.2,4.9,5.2
					c2.1,0,3.3-0.9,3.7-1.3v-2.6h-2.8V85h4.2v4.6c-1.4,1.4-3,2-5.1,2c-3.6,0-6.3-2.7-6.3-6.5c0-3.7,2.7-6.6,6.4-6.6
					C25.1,78.5,26.6,79.7,27.2,80.3z"></path>
			</g>
			<g>
				<path style="fill:#FFFFFF;" d="M39.5,78.5c3.7,0,6.4,2.9,6.4,6.5c0,3.7-2.8,6.5-6.4,6.5c-3.7,0-6.4-2.8-6.4-6.5
					C33,81.3,35.8,78.5,39.5,78.5z M39.5,90.2c2.8,0,4.9-2.2,4.9-5.2c0-3-2.1-5.2-4.9-5.2c-2.8,0-4.9,2.2-4.9,5.2
					C34.5,88,36.7,90.2,39.5,90.2z"></path>
			</g>
			<g>
				<path style="fill:#FFFFFF;" d="M51.6,78.7h1.5V90h4.7v1.3h-6.2V78.7z"></path>
			</g>
			<g>
				<path style="fill:#FFFFFF;" d="M63.3,78.7h6V80h-4.5v4.2h3.9v1.3h-3.9V90h4.7v1.3h-6.2V78.7z"></path>
			</g>
			<g>
				<path style="fill:#FFFFFF;" d="M81.8,88.5l4.5-9.8h1.9v12.6h-1.4V80.8l-4.3,9.3h-1.4l-4.3-9.3v10.5h-1.4V78.7h1.9L81.8,88.5z"></path>
			</g>
			<g>
				<path style="fill:#FFFFFF;" d="M104.6,87.2l-1.5,4.1h-1.5l4.7-12.6h1.5l4.7,12.6H111l-1.5-4.1H104.6z M107,80.3l-2,5.7h4.1
					L107,80.3z"></path>
			</g>
			<g>
				<path style="fill:#FFFFFF;" d="M117.8,78.7h3.5c2.3,0,3.8,1.4,3.8,3.6c0,2.3-1.5,3.7-3.8,3.7h-2v5.3h-1.5V78.7z M121.1,84.7
					c1.5,0,2.4-0.9,2.4-2.4c0-1.4-0.9-2.3-2.4-2.3h-1.9v4.7H121.1z"></path>
			</g>
			<g>
				<path style="fill:#FFFFFF;" d="M130.5,78.7h3.5c2.3,0,3.8,1.4,3.8,3.6c0,2.3-1.5,3.7-3.8,3.7h-2v5.3h-1.5V78.7z M133.8,84.7
					c1.5,0,2.4-0.9,2.4-2.4c0-1.4-0.9-2.3-2.4-2.3H132v4.7H133.8z"></path>
			</g>
		</g>
		<g>
			<g>
				<path style="fill:#FFFFFF;" d="M48.3,135.2l4.5-9.8h1.9V138h-1.4v-10.5l-4.3,9.3h-1.4l-4.3-9.3V138h-1.4v-12.6h1.9L48.3,135.2z"></path>
			</g>
			<g>
				<path style="fill:#FFFFFF;" d="M60.5,132.1c1.2,0,2.1,0.5,2.5,0.8v-1.2c0-1.3-0.9-2.1-2.3-2.1c-1.2,0-2.1,0.4-2.8,0.8l-0.6-1
					c0.6-0.4,1.9-1,3.5-1c2.6,0,3.6,1.4,3.6,3.4v6.2h-1.2l-0.2-0.8c-0.5,0.6-1.3,1-2.5,1c-2.1,0-3.6-1.3-3.6-3.1
					C56.9,133.4,58.4,132.1,60.5,132.1z M60.7,137.1c1.4,0,2.3-0.8,2.3-1.9c0-1.2-0.9-1.9-2.3-1.9c-1.4,0-2.3,0.8-2.3,1.9
					C58.3,136.2,59.3,137.1,60.7,137.1z"></path>
			</g>
			<g>
				<path style="fill:#FFFFFF;" d="M74.4,132.2v5.9h-1.4v-5.9c0-1.5-0.9-2.4-2.2-2.4c-1.4,0-2.4,1.1-2.4,2.6v5.7h-1.4v-9.4h1.4v1.4
					c0.5-0.8,1.5-1.6,2.8-1.6C73.2,128.4,74.4,130.1,74.4,132.2z"></path>
			</g>
			<g>
				<path style="fill:#FFFFFF;" d="M79.9,132.1c1.2,0,2.1,0.5,2.5,0.8v-1.2c0-1.3-0.9-2.1-2.3-2.1c-1.2,0-2.1,0.4-2.8,0.8l-0.6-1
					c0.6-0.4,1.9-1,3.5-1c2.6,0,3.6,1.4,3.6,3.4v6.2h-1.2l-0.2-0.8c-0.5,0.6-1.3,1-2.5,1c-2.1,0-3.6-1.3-3.6-3.1
					C76.3,133.4,77.8,132.1,79.9,132.1z M80.1,137.1c1.4,0,2.3-0.8,2.3-1.9c0-1.2-0.9-1.9-2.3-1.9c-1.4,0-2.3,0.8-2.3,1.9
					C77.7,136.2,78.7,137.1,80.1,137.1z"></path>
			</g>
			<g>
				<path style="fill:#FFFFFF;" d="M87.3,139.4c0.4,0.2,1.5,0.8,2.8,0.8c1.8,0,3.3-0.7,3.3-2.8v-0.8c-0.2,0.3-1.2,1.7-3.2,1.7
					c-2.7,0-4.5-2-4.5-4.9c0-2.9,1.9-4.9,4.5-4.9c1.9,0,3,1.2,3.3,1.7v-1.5h1.4v8.1c0,3.5-2,4.8-4.7,4.8c-1.2,0-2.5-0.4-3.3-0.9
					L87.3,139.4z M90.3,129.7c-1.8,0-3.2,1.5-3.2,3.6c0,2.2,1.4,3.6,3.2,3.6c1.9,0,3.2-1.6,3.2-3.6C93.5,131.1,92,129.7,90.3,129.7z
					"></path>
			</g>
			<g>
				<path style="fill:#FFFFFF;" d="M101.3,128.4c2.8,0,4.4,2,4.4,4.8c0,0.1,0,0.3,0,0.4h-7.5c0,2.1,1.4,3.3,3.4,3.3
					c1.6,0,2.5-0.8,2.9-1.5l0.9,0.7c-0.5,0.9-1.7,2-3.9,2c-2.8,0-4.8-2-4.8-4.9C96.8,130.4,98.8,128.4,101.3,128.4z M104.3,132.6
					c-0.1-1.9-1.4-2.9-3-2.9c-1.5,0-2.9,1.2-3,2.9H104.3z"></path>
			</g>
			<g>
				<path style="fill:#FFFFFF;" d="M108,135.6c0.4,0.7,1.1,1.4,2.3,1.4c0.9,0,1.7-0.5,1.7-1.5c0-2.2-4.7-1.4-4.7-4.6
					c0-1.6,1.3-2.5,3-2.5c1.7,0,2.6,1.1,2.9,1.8l-1,0.6c-0.3-0.5-0.7-1.2-1.9-1.2c-0.9,0-1.5,0.5-1.5,1.3c0,2.1,4.7,1.3,4.7,4.6
					c0,1.7-1.4,2.8-3.2,2.8c-2,0-2.8-1.1-3.3-2L108,135.6z"></path>
			</g>
			<g>
				<path style="fill:#FFFFFF;" d="M130.7,127l-0.9,1c-0.6-0.6-1.7-1.4-3.7-1.4c-2.9,0-4.9,2.2-4.9,5.2c0,3,2.1,5.2,4.9,5.2
					c2.1,0,3.3-0.9,3.7-1.3V133h-2.8v-1.3h4.2v4.6c-1.4,1.4-3,2-5.1,2c-3.6,0-6.3-2.7-6.3-6.5c0-3.7,2.7-6.6,6.4-6.6
					C128.5,125.2,130,126.4,130.7,127z"></path>
			</g>
			<g>
				<path style="fill:#FFFFFF;" d="M137.9,128.4c2.8,0,4.9,2.1,4.9,4.9c0,2.8-2.1,4.9-4.9,4.9s-4.9-2.1-4.9-4.9
					C133,130.5,135.1,128.4,137.9,128.4z M137.8,137c2,0,3.5-1.5,3.5-3.6c0-2.1-1.4-3.6-3.5-3.6s-3.4,1.6-3.4,3.6
					C134.4,135.5,135.8,137,137.8,137z"></path>
			</g>
			<g>
				<path style="fill:#FFFFFF;" d="M144.7,125h1.4v13h-1.4V125z"></path>
			</g>
			<g>
				<path style="fill:#FFFFFF;" d="M152.7,128.4c2.8,0,4.4,2,4.4,4.8c0,0.1,0,0.3,0,0.4h-7.5c0,2.1,1.4,3.3,3.4,3.3
					c1.6,0,2.5-0.8,2.9-1.5l0.9,0.7c-0.5,0.9-1.7,2-3.9,2c-2.8,0-4.8-2-4.8-4.9C148.2,130.4,150.2,128.4,152.7,128.4z M155.7,132.6
					c-0.1-1.9-1.4-2.9-3-2.9c-1.5,0-2.9,1.2-3,2.9H155.7z"></path>
			</g>
			<g>
				<path style="fill:#FFFFFF;" d="M172.2,138h-1.4v-5.6c0-1.8-0.7-2.7-2.1-2.7c-1.3,0-2.3,0.9-2.3,2.7v5.6H165v-5.9
					c0-1.5-0.8-2.4-2.1-2.4c-1.2,0-2.3,1-2.3,2.6v5.7h-1.4v-9.4h1.4c0,0.9,0,1.4,0,1.4c0.4-0.8,1.4-1.6,2.6-1.6
					c1.4,0,2.4,0.7,2.8,1.7c0.6-1.1,1.7-1.7,3-1.7c2.1,0,3.2,1.5,3.2,3.5V138z"></path>
			</g>
			<g>
				<path style="fill:#FFFFFF;" d="M183.8,128.4c2.8,0,4.9,2.1,4.9,4.9c0,2.8-2.1,4.9-4.9,4.9s-4.9-2.1-4.9-4.9
					C178.9,130.5,181,128.4,183.8,128.4z M183.8,137c2,0,3.5-1.5,3.5-3.6c0-2.1-1.4-3.6-3.5-3.6s-3.4,1.6-3.4,3.6
					C180.4,135.5,181.8,137,183.8,137z"></path>
			</g>
			<g>
				<path style="fill:#FFFFFF;" d="M198.2,132.2v5.9h-1.4v-5.9c0-1.5-0.9-2.4-2.2-2.4c-1.4,0-2.4,1.1-2.4,2.6v5.7h-1.4v-9.4h1.4v1.4
					c0.5-0.8,1.5-1.6,2.8-1.6C197,128.4,198.2,130.1,198.2,132.2z"></path>
			</g>
			<g>
				<path style="fill:#FFFFFF;" d="M205.6,126.7h1.4v2h2.1v1.2H207v4.8c0,1.7,0.5,2.2,1.7,2.2c0.2,0,0.4,0,0.4,0v1.3
					c0,0-0.4,0.1-0.9,0.1c-1.9,0-2.7-1.2-2.7-3.3v-5h-1.1v-1.2h1.1V126.7z"></path>
			</g>
			<g>
				<path style="fill:#FFFFFF;" d="M218.5,132.2v5.9H217v-5.9c0-1.5-1-2.4-2.2-2.4c-1.4,0-2.4,1.1-2.4,2.6v5.7H211v-13h1.4v5
					c0.5-0.8,1.5-1.6,2.8-1.6C217.3,128.4,218.5,130.1,218.5,132.2z"></path>
			</g>
			<g>
				<path style="fill:#FFFFFF;" d="M224.9,128.4c2.8,0,4.4,2,4.4,4.8c0,0.1,0,0.3,0,0.4h-7.5c0,2.1,1.4,3.3,3.4,3.3
					c1.6,0,2.5-0.8,2.9-1.5l0.9,0.7c-0.5,0.9-1.7,2-3.9,2c-2.8,0-4.8-2-4.8-4.9C220.4,130.4,222.4,128.4,224.9,128.4z M227.9,132.6
					c-0.1-1.9-1.4-2.9-3-2.9c-1.5,0-2.9,1.2-3,2.9H227.9z"></path>
			</g>
			<g>
				<path style="fill:#FFFFFF;" d="M249.2,138h-1.4v-5.6c0-1.8-0.7-2.7-2.1-2.7c-1.3,0-2.3,0.9-2.3,2.7v5.6h-1.4v-5.9
					c0-1.5-0.8-2.4-2.1-2.4c-1.2,0-2.3,1-2.3,2.6v5.7h-1.4v-9.4h1.4c0,0.9,0,1.4,0,1.4c0.4-0.8,1.4-1.6,2.6-1.6
					c1.4,0,2.4,0.7,2.8,1.7c0.6-1.1,1.7-1.7,3-1.7c2.1,0,3.2,1.5,3.2,3.5V138z"></path>
			</g>
			<g>
				<path style="fill:#FFFFFF;" d="M254.7,132.1c1.2,0,2.1,0.5,2.5,0.8v-1.2c0-1.3-0.9-2.1-2.3-2.1c-1.2,0-2.1,0.4-2.8,0.8l-0.6-1
					c0.6-0.4,1.9-1,3.5-1c2.6,0,3.6,1.4,3.6,3.4v6.2h-1.2l-0.2-0.8c-0.5,0.6-1.3,1-2.5,1c-2.1,0-3.6-1.3-3.6-3.1
					C251.1,133.4,252.6,132.1,254.7,132.1z M254.9,137.1c1.4,0,2.3-0.8,2.3-1.9c0-1.2-0.9-1.9-2.3-1.9c-1.4,0-2.3,0.8-2.3,1.9
					C252.6,136.2,253.5,137.1,254.9,137.1z"></path>
			</g>
			<g>
				<path style="fill:#FFFFFF;" d="M268.1,130.9c-0.4-0.4-1.4-1.2-2.8-1.2c-2,0-3.3,1.6-3.3,3.6c0,2,1.5,3.6,3.4,3.6
					c1.5,0,2.4-0.9,2.8-1.2l0.4,1.2c-0.4,0.4-1.5,1.3-3.3,1.3c-2.8,0-4.8-2.1-4.8-4.9c0-2.8,2.1-4.9,4.8-4.9c1.7,0,2.8,0.8,3.3,1.3
					L268.1,130.9z"></path>
			</g>
			<g>
				<path style="fill:#FFFFFF;" d="M278,132.2v5.9h-1.4v-5.9c0-1.5-1-2.4-2.2-2.4c-1.4,0-2.4,1.1-2.4,2.6v5.7h-1.4v-13h1.4v5
					c0.5-0.8,1.5-1.6,2.8-1.6C276.9,128.4,278,130.1,278,132.2z"></path>
			</g>
			<g>
				<path style="fill:#FFFFFF;" d="M281.2,125.3c0.6,0,1,0.4,1,1c0,0.6-0.4,1-1,1c-0.5,0-1-0.4-1-1
					C280.3,125.7,280.7,125.3,281.2,125.3z M280.5,128.7h1.4v9.4h-1.4V128.7z"></path>
			</g>
			<g>
				<path style="fill:#FFFFFF;" d="M292.1,132.2v5.9h-1.4v-5.9c0-1.5-0.9-2.4-2.2-2.4c-1.4,0-2.4,1.1-2.4,2.6v5.7h-1.4v-9.4h1.4v1.4
					c0.5-0.8,1.5-1.6,2.8-1.6C291,128.4,292.1,130.1,292.1,132.2z"></path>
			</g>
			<g>
				<path style="fill:#FFFFFF;" d="M298.6,128.4c2.8,0,4.4,2,4.4,4.8c0,0.1,0,0.3,0,0.4h-7.5c0,2.1,1.4,3.3,3.4,3.3
					c1.6,0,2.5-0.8,2.9-1.5l0.9,0.7c-0.5,0.9-1.7,2-3.9,2c-2.8,0-4.8-2-4.8-4.9C294,130.4,296.1,128.4,298.6,128.4z M301.6,132.6
					c-0.1-1.9-1.4-2.9-3-2.9c-1.5,0-2.9,1.2-3,2.9H301.6z"></path>
			</g>
			<g>
				<path style="fill:#FFFFFF;" d="M305.7,129.3c0.6,0,1,0.5,1,1s-0.5,1-1,1c-0.6,0-1-0.5-1-1S305.1,129.3,305.7,129.3z
					 M305.6,136.2c0.6,0,1.1,0.4,1.1,1.1c0,1.3-0.6,2.2-1.4,2.9l-0.7-0.6c0.3-0.2,0.8-0.7,0.9-1.3c-0.5-0.1-0.9-0.5-0.9-1
					C304.6,136.7,305.1,136.2,305.6,136.2z"></path>
			</g>
			<g>
				<path style="fill:#FFFFFF;" d="M41.9,147h6v1.3h-4.5v4.2h3.9v1.3h-3.9v4.4h4.7v1.3h-6.2V147z"></path>
			</g>
			<g>
				<path style="fill:#FFFFFF;" d="M50.7,157.2c0.4,0.7,1.1,1.4,2.3,1.4c0.9,0,1.7-0.5,1.7-1.5c0-2.2-4.7-1.4-4.7-4.6
					c0-1.6,1.3-2.5,3-2.5c1.7,0,2.6,1.1,2.9,1.8l-1,0.6c-0.3-0.5-0.7-1.2-1.9-1.2c-0.9,0-1.5,0.5-1.5,1.3c0,2.1,4.7,1.3,4.7,4.6
					c0,1.7-1.4,2.8-3.2,2.8c-2,0-2.8-1.1-3.3-2L50.7,157.2z"></path>
			</g>
			<g>
				<path style="fill:#FFFFFF;" d="M58.2,148.3h1.4v2h2.1v1.2h-2.1v4.8c0,1.7,0.5,2.2,1.7,2.2c0.2,0,0.4,0,0.4,0v1.3
					c0,0-0.4,0.1-0.9,0.1c-1.9,0-2.7-1.2-2.7-3.3v-5h-1.1v-1.2h1.1V148.3z"></path>
			</g>
			<g>
				<path style="fill:#FFFFFF;" d="M66.6,153.7c1.2,0,2.1,0.5,2.5,0.8v-1.2c0-1.3-0.9-2.1-2.3-2.1c-1.2,0-2.1,0.4-2.8,0.8l-0.6-1
					c0.6-0.4,1.9-1,3.5-1c2.6,0,3.6,1.4,3.6,3.4v6.2h-1.2l-0.2-0.8c-0.5,0.6-1.3,1-2.5,1c-2.1,0-3.6-1.3-3.6-3.1
					C63,155,64.5,153.7,66.6,153.7z M66.8,158.7c1.4,0,2.3-0.8,2.3-1.9c0-1.2-0.9-1.9-2.3-1.9c-1.4,0-2.3,0.8-2.3,1.9
					C64.4,157.8,65.4,158.7,66.8,158.7z"></path>
			</g>
			<g>
				<path style="fill:#FFFFFF;" d="M73,146.6h1.4v5.2c0.3-0.5,1.4-1.7,3.3-1.7c2.6,0,4.5,2.1,4.5,4.9c0,2.9-1.9,4.9-4.6,4.9
					c-2,0-3-1.4-3.3-1.7v1.5H73V146.6z M77.5,158.6c1.8,0,3.2-1.4,3.2-3.6c0-2.1-1.3-3.7-3.2-3.7c-1.8,0-3.2,1.3-3.2,3.7
					C74.3,156.9,75.6,158.6,77.5,158.6z"></path>
			</g>
			<g>
				<path style="fill:#FFFFFF;" d="M84.2,146.6h1.4v13h-1.4V146.6z"></path>
			</g>
			<g>
				<path style="fill:#FFFFFF;" d="M88.9,146.9c0.6,0,1,0.4,1,1c0,0.6-0.4,1-1,1c-0.5,0-1-0.4-1-1C87.9,147.3,88.4,146.9,88.9,146.9
					z M88.2,150.3h1.4v9.4h-1.4V150.3z"></path>
			</g>
			<g>
				<path style="fill:#FFFFFF;" d="M92.6,157.2c0.4,0.7,1.1,1.4,2.3,1.4c0.9,0,1.7-0.5,1.7-1.5c0-2.2-4.7-1.4-4.7-4.6
					c0-1.6,1.3-2.5,3-2.5c1.7,0,2.6,1.1,2.9,1.8l-1,0.6c-0.3-0.5-0.7-1.2-1.9-1.2c-0.9,0-1.5,0.5-1.5,1.3c0,2.1,4.7,1.3,4.7,4.6
					c0,1.7-1.4,2.8-3.2,2.8c-2,0-2.8-1.1-3.3-2L92.6,157.2z"></path>
			</g>
			<g>
				<path style="fill:#FFFFFF;" d="M107.5,153.8v5.9H106v-5.9c0-1.5-1-2.4-2.2-2.4c-1.4,0-2.4,1.1-2.4,2.6v5.7H100v-13h1.4v5
					c0.5-0.8,1.5-1.6,2.8-1.6C106.3,150,107.5,151.7,107.5,153.8z"></path>
			</g>
			<g>
				<path style="fill:#FFFFFF;" d="M113.9,150c2.8,0,4.4,2,4.4,4.8c0,0.1,0,0.3,0,0.4h-7.5c0,2.1,1.4,3.3,3.4,3.3
					c1.6,0,2.5-0.8,2.9-1.5l0.9,0.7c-0.5,0.9-1.7,2-3.9,2c-2.8,0-4.8-2-4.8-4.9C109.4,152,111.4,150,113.9,150z M116.9,154.2
					c-0.1-1.9-1.4-2.9-3-2.9c-1.5,0-2.9,1.2-3,2.9H116.9z"></path>
			</g>
			<g>
				<path style="fill:#FFFFFF;" d="M120.6,157.2c0.4,0.7,1.1,1.4,2.3,1.4c0.9,0,1.7-0.5,1.7-1.5c0-2.2-4.7-1.4-4.7-4.6
					c0-1.6,1.3-2.5,3-2.5c1.7,0,2.6,1.1,2.9,1.8l-1,0.6c-0.3-0.5-0.7-1.2-1.9-1.2c-0.9,0-1.5,0.5-1.5,1.3c0,2.1,4.7,1.3,4.7,4.6
					c0,1.7-1.4,2.8-3.2,2.8c-2,0-2.8-1.1-3.3-2L120.6,157.2z"></path>
			</g>
			<g>
				<path style="fill:#FFFFFF;" d="M135.8,153.7c1.2,0,2.1,0.5,2.5,0.8v-1.2c0-1.3-0.9-2.1-2.3-2.1c-1.2,0-2.1,0.4-2.8,0.8l-0.6-1
					c0.6-0.4,1.9-1,3.5-1c2.6,0,3.6,1.4,3.6,3.4v6.2h-1.2l-0.2-0.8c-0.5,0.6-1.3,1-2.5,1c-2.1,0-3.6-1.3-3.6-3.1
					C132.2,155,133.7,153.7,135.8,153.7z M136,158.7c1.4,0,2.3-0.8,2.3-1.9c0-1.2-0.9-1.9-2.3-1.9c-1.4,0-2.3,0.8-2.3,1.9
					C133.6,157.8,134.5,158.7,136,158.7z"></path>
			</g>
			<g>
				<path style="fill:#FFFFFF;" d="M149.6,153.8v5.9h-1.4v-5.9c0-1.5-0.9-2.4-2.2-2.4c-1.4,0-2.4,1.1-2.4,2.6v5.7h-1.4v-9.4h1.4v1.4
					c0.5-0.8,1.5-1.6,2.8-1.6C148.5,150,149.6,151.7,149.6,153.8z"></path>
			</g>
			<g>
				<path style="fill:#FFFFFF;" d="M160.8,159.6h-1.4v-1.5c-0.2,0.3-1.2,1.7-3.2,1.7c-2.7,0-4.6-2-4.6-4.9c0-2.9,1.8-4.9,4.5-4.9
					c1.9,0,3,1.3,3.3,1.7v-5.2h1.4V159.6z M156.2,151.3c-1.8,0-3.2,1.5-3.2,3.7c0,2.2,1.4,3.6,3.2,3.6c2,0,3.2-1.6,3.2-3.6
					C159.4,152.7,157.9,151.3,156.2,151.3z"></path>
			</g>
			<g>
				<path style="fill:#FFFFFF;" d="M181.2,159.6h-1.4V154c0-1.8-0.7-2.7-2.1-2.7c-1.3,0-2.3,0.9-2.3,2.7v5.6H174v-5.9
					c0-1.5-0.8-2.4-2.1-2.4c-1.2,0-2.3,1-2.3,2.6v5.7h-1.4v-9.4h1.4c0,0.9,0,1.4,0,1.4c0.4-0.8,1.4-1.6,2.6-1.6
					c1.4,0,2.4,0.7,2.8,1.7c0.6-1.1,1.7-1.7,3-1.7c2.1,0,3.2,1.5,3.2,3.5V159.6z"></path>
			</g>
			<g>
				<path style="fill:#FFFFFF;" d="M186.8,153.7c1.2,0,2.1,0.5,2.5,0.8v-1.2c0-1.3-0.9-2.1-2.3-2.1c-1.2,0-2.1,0.4-2.8,0.8l-0.6-1
					c0.6-0.4,1.9-1,3.5-1c2.6,0,3.6,1.4,3.6,3.4v6.2h-1.2l-0.2-0.8c-0.5,0.6-1.3,1-2.5,1c-2.1,0-3.6-1.3-3.6-3.1
					C183.2,155,184.7,153.7,186.8,153.7z M187,158.7c1.4,0,2.3-0.8,2.3-1.9c0-1.2-0.9-1.9-2.3-1.9c-1.4,0-2.3,0.8-2.3,1.9
					C184.6,157.8,185.5,158.7,187,158.7z"></path>
			</g>
			<g>
				<path style="fill:#FFFFFF;" d="M193.8,146.9c0.6,0,1,0.4,1,1c0,0.6-0.4,1-1,1c-0.5,0-1-0.4-1-1
					C192.9,147.3,193.3,146.9,193.8,146.9z M193.1,150.3h1.4v9.4h-1.4V150.3z"></path>
			</g>
			<g>
				<path style="fill:#FFFFFF;" d="M204.7,153.8v5.9h-1.4v-5.9c0-1.5-0.9-2.4-2.2-2.4c-1.4,0-2.4,1.1-2.4,2.6v5.7h-1.4v-9.4h1.4v1.4
					c0.5-0.8,1.5-1.6,2.8-1.6C203.6,150,204.7,151.7,204.7,153.8z"></path>
			</g>
			<g>
				<path style="fill:#FFFFFF;" d="M207.3,148.3h1.4v2h2.1v1.2h-2.1v4.8c0,1.7,0.5,2.2,1.7,2.2c0.2,0,0.4,0,0.4,0v1.3
					c0,0-0.4,0.1-0.9,0.1c-1.9,0-2.7-1.2-2.7-3.3v-5h-1.1v-1.2h1.1V148.3z"></path>
			</g>
			<g>
				<path style="fill:#FFFFFF;" d="M215.7,153.7c1.2,0,2.1,0.5,2.5,0.8v-1.2c0-1.3-0.9-2.1-2.3-2.1c-1.2,0-2.1,0.4-2.8,0.8l-0.6-1
					c0.6-0.4,1.9-1,3.5-1c2.6,0,3.6,1.4,3.6,3.4v6.2h-1.2l-0.2-0.8c-0.5,0.6-1.3,1-2.5,1c-2.1,0-3.6-1.3-3.6-3.1
					C212.1,155,213.6,153.7,215.7,153.7z M215.9,158.7c1.4,0,2.3-0.8,2.3-1.9c0-1.2-0.9-1.9-2.3-1.9c-1.4,0-2.3,0.8-2.3,1.9
					C213.6,157.8,214.5,158.7,215.9,158.7z"></path>
			</g>
			<g>
				<path style="fill:#FFFFFF;" d="M222.8,146.9c0.6,0,1,0.4,1,1c0,0.6-0.4,1-1,1c-0.5,0-1-0.4-1-1
					C221.8,147.3,222.2,146.9,222.8,146.9z M222.1,150.3h1.4v9.4h-1.4V150.3z"></path>
			</g>
			<g>
				<path style="fill:#FFFFFF;" d="M233.6,153.8v5.9h-1.4v-5.9c0-1.5-0.9-2.4-2.2-2.4c-1.4,0-2.4,1.1-2.4,2.6v5.7h-1.4v-9.4h1.4v1.4
					c0.5-0.8,1.5-1.6,2.8-1.6C232.5,150,233.6,151.7,233.6,153.8z"></path>
			</g>
			<g>
				<path style="fill:#FFFFFF;" d="M236.5,157.2c0.4,0.7,1.1,1.4,2.3,1.4c0.9,0,1.7-0.5,1.7-1.5c0-2.2-4.7-1.4-4.7-4.6
					c0-1.6,1.3-2.5,3-2.5c1.7,0,2.6,1.1,2.9,1.8l-1,0.6c-0.3-0.5-0.7-1.2-1.9-1.2c-0.9,0-1.5,0.5-1.5,1.3c0,2.1,4.7,1.3,4.7,4.6
					c0,1.7-1.4,2.8-3.2,2.8c-2,0-2.8-1.1-3.3-2L236.5,157.2z"></path>
			</g>
			<g>
				<path style="fill:#FFFFFF;" d="M248.6,150.3h1.4v1.5c0.2-0.3,1.2-1.7,3.3-1.7c2.7,0,4.6,2,4.6,4.9c0,2.9-1.8,4.9-4.5,4.9
					c-2,0-3-1.3-3.3-1.7v4.9h-1.4V150.3z M253.2,158.6c1.8,0,3.2-1.5,3.2-3.6c0-2.2-1.4-3.6-3.2-3.6c-1.9,0-3.2,1.6-3.2,3.6
					C250,157.2,251.4,158.6,253.2,158.6z"></path>
			</g>
			<g>
				<path style="fill:#FFFFFF;" d="M259.4,159.1c0-3.5,6-5.5,6-8.7c0-1.3-0.8-2.2-2.3-2.2c-1.4,0-2.1,0.9-2.4,1.9l-1.3-0.4
					c0.2-1,1.2-3,3.7-3c2.4,0,3.7,1.5,3.7,3.6c0,3.7-5.6,5.8-5.8,8h6v1.3h-7.7V159.1z"></path>
			</g>
			<g>
				<path style="fill:#FFFFFF;" d="M269.2,150.3h1.4v1.5c0.2-0.3,1.2-1.7,3.3-1.7c2.7,0,4.6,2,4.6,4.9c0,2.9-1.8,4.9-4.5,4.9
					c-2,0-3-1.3-3.3-1.7v4.9h-1.4V150.3z M273.8,158.6c1.8,0,3.2-1.5,3.2-3.6c0-2.2-1.4-3.6-3.2-3.6c-1.9,0-3.2,1.6-3.2,3.6
					C270.6,157.2,272,158.6,273.8,158.6z"></path>
			</g>
			<g>
				<path style="fill:#FFFFFF;" d="M292.1,152.5c-0.4-0.4-1.4-1.2-2.8-1.2c-2,0-3.3,1.6-3.3,3.6c0,2,1.5,3.6,3.4,3.6
					c1.5,0,2.4-0.9,2.8-1.2l0.4,1.2c-0.4,0.4-1.5,1.3-3.3,1.3c-2.8,0-4.8-2.1-4.8-4.9c0-2.8,2.1-4.9,4.8-4.9c1.7,0,2.8,0.8,3.3,1.3
					L292.1,152.5z"></path>
			</g>
			<g>
				<path style="fill:#FFFFFF;" d="M298.8,150c2.8,0,4.9,2.1,4.9,4.9c0,2.8-2.1,4.9-4.9,4.9s-4.9-2.1-4.9-4.9
					C293.9,152.1,296,150,298.8,150z M298.8,158.6c2,0,3.5-1.5,3.5-3.6c0-2.1-1.4-3.6-3.5-3.6s-3.4,1.6-3.4,3.6
					C295.4,157.1,296.8,158.6,298.8,158.6z"></path>
			</g>
			<g>
				<path style="fill:#FFFFFF;" d="M313.2,153.8v5.9h-1.4v-5.9c0-1.5-0.9-2.4-2.2-2.4c-1.4,0-2.4,1.1-2.4,2.6v5.7h-1.4v-9.4h1.4v1.4
					c0.5-0.8,1.5-1.6,2.8-1.6C312.1,150,313.2,151.7,313.2,153.8z"></path>
			</g>
			<g>
				<path style="fill:#FFFFFF;" d="M323.2,153.8v5.9h-1.4v-5.9c0-1.5-0.9-2.4-2.2-2.4c-1.4,0-2.4,1.1-2.4,2.6v5.7h-1.4v-9.4h1.4v1.4
					c0.5-0.8,1.5-1.6,2.8-1.6C322.1,150,323.2,151.7,323.2,153.8z"></path>
			</g>
			<g>
				<path style="fill:#FFFFFF;" d="M329.7,150c2.8,0,4.4,2,4.4,4.8c0,0.1,0,0.3,0,0.4h-7.5c0,2.1,1.4,3.3,3.4,3.3
					c1.6,0,2.5-0.8,2.9-1.5l0.9,0.7c-0.5,0.9-1.7,2-3.9,2c-2.8,0-4.8-2-4.8-4.9C325.2,152,327.2,150,329.7,150z M332.7,154.2
					c-0.1-1.9-1.4-2.9-3-2.9c-1.5,0-2.9,1.2-3,2.9H332.7z"></path>
			</g>
			<g>
				<path style="fill:#FFFFFF;" d="M343.1,152.5c-0.4-0.4-1.4-1.2-2.8-1.2c-2,0-3.3,1.6-3.3,3.6c0,2,1.5,3.6,3.4,3.6
					c1.5,0,2.4-0.9,2.8-1.2l0.4,1.2c-0.4,0.4-1.5,1.3-3.3,1.3c-2.8,0-4.8-2.1-4.8-4.9c0-2.8,2.1-4.9,4.8-4.9c1.7,0,2.8,0.8,3.3,1.3
					L343.1,152.5z"></path>
			</g>
			<g>
				<path style="fill:#FFFFFF;" d="M345.6,148.3h1.4v2h2.1v1.2h-2.1v4.8c0,1.7,0.5,2.2,1.7,2.2c0.2,0,0.4,0,0.4,0v1.3
					c0,0-0.4,0.1-0.9,0.1c-1.9,0-2.7-1.2-2.7-3.3v-5h-1.1v-1.2h1.1V148.3z"></path>
			</g>
			<g>
				<path style="fill:#FFFFFF;" d="M351.7,146.9c0.6,0,1,0.4,1,1c0,0.6-0.4,1-1,1c-0.5,0-1-0.4-1-1
					C350.7,147.3,351.2,146.9,351.7,146.9z M351,150.3h1.4v9.4H351V150.3z"></path>
			</g>
			<g>
				<path style="fill:#FFFFFF;" d="M359.3,150c2.8,0,4.9,2.1,4.9,4.9c0,2.8-2.1,4.9-4.9,4.9s-4.9-2.1-4.9-4.9
					C354.4,152.1,356.5,150,359.3,150z M359.3,158.6c2,0,3.5-1.5,3.5-3.6c0-2.1-1.4-3.6-3.5-3.6s-3.4,1.6-3.4,3.6
					C355.9,157.1,357.3,158.6,359.3,158.6z"></path>
			</g>
			<g>
				<path style="fill:#FFFFFF;" d="M373.7,153.8v5.9h-1.4v-5.9c0-1.5-0.9-2.4-2.2-2.4c-1.4,0-2.4,1.1-2.4,2.6v5.7h-1.4v-9.4h1.4v1.4
					c0.5-0.8,1.5-1.6,2.8-1.6C372.6,150,373.7,151.7,373.7,153.8z"></path>
			</g>
			<g>
				<path style="fill:#FFFFFF;" d="M376.9,150.9c0.6,0,1,0.5,1,1s-0.5,1-1,1c-0.6,0-1-0.5-1-1S376.4,150.9,376.9,150.9z
					 M376.9,157.8c0.6,0,1.1,0.4,1.1,1.1c0,1.3-0.6,2.2-1.4,2.9l-0.7-0.6c0.3-0.2,0.8-0.7,0.9-1.3c-0.5-0.1-0.9-0.5-0.9-1
					C375.9,158.3,376.3,157.8,376.9,157.8z"></path>
			</g>
			<g>
				<path style="fill:#FFFFFF;" d="M42.4,178.2c0.3,1,1.1,2,2.8,2c1.3,0,2.3-0.8,2.3-2.1c0-3.2-5.9-2.3-5.9-6.4
					c0-1.8,1.4-3.2,3.6-3.2c2.2,0,3.3,1.6,3.6,2.4l-1.2,0.5c-0.3-0.6-1-1.6-2.4-1.6s-2.1,0.8-2.1,1.9c0,2.9,5.9,2.3,5.9,6.3
					c0,2-1.5,3.5-3.8,3.5c-2.4,0-3.5-1.6-3.9-2.8L42.4,178.2z"></path>
			</g>
			<g>
				<path style="fill:#FFFFFF;" d="M54.9,171.6c2.8,0,4.4,2,4.4,4.8c0,0.1,0,0.3,0,0.4h-7.5c0,2.1,1.4,3.3,3.4,3.3
					c1.6,0,2.5-0.8,2.9-1.5l0.9,0.7c-0.5,0.9-1.7,2-3.9,2c-2.8,0-4.8-2-4.8-4.9C50.4,173.6,52.5,171.6,54.9,171.6z M57.9,175.8
					c-0.1-1.9-1.4-2.9-3-2.9c-1.5,0-2.9,1.2-3,2.9H57.9z"></path>
			</g>
			<g>
				<path style="fill:#FFFFFF;" d="M68.9,175.4v5.9h-1.4v-5.9c0-1.5-0.9-2.4-2.2-2.4c-1.4,0-2.4,1.1-2.4,2.6v5.7h-1.4v-9.4h1.4v1.4
					c0.5-0.8,1.5-1.6,2.8-1.6C67.7,171.6,68.9,173.3,68.9,175.4z"></path>
			</g>
			<g>
				<path style="fill:#FFFFFF;" d="M80,181.2h-1.4v-1.5c-0.2,0.3-1.2,1.7-3.2,1.7c-2.7,0-4.6-2-4.6-4.9c0-2.9,1.8-4.9,4.5-4.9
					c1.9,0,3,1.3,3.3,1.7v-5.2H80V181.2z M75.4,172.9c-1.8,0-3.2,1.5-3.2,3.7c0,2.2,1.4,3.6,3.2,3.6c2,0,3.2-1.6,3.2-3.6
					C78.6,174.3,77.2,172.9,75.4,172.9z"></path>
			</g>
			<g>
				<path style="fill:#FFFFFF;" d="M82.9,178.8c0.4,0.7,1.1,1.4,2.3,1.4c0.9,0,1.7-0.5,1.7-1.5c0-2.2-4.7-1.4-4.7-4.6
					c0-1.6,1.3-2.5,3-2.5c1.7,0,2.6,1.1,2.9,1.8l-1,0.6c-0.3-0.5-0.7-1.2-1.9-1.2c-0.9,0-1.5,0.5-1.5,1.3c0,2.1,4.7,1.3,4.7,4.6
					c0,1.7-1.4,2.8-3.2,2.8c-2,0-2.8-1.1-3.3-2L82.9,178.8z"></path>
			</g>
			<g>
				<path style="fill:#FFFFFF;" d="M98,175.3c1.2,0,2.1,0.5,2.5,0.8V175c0-1.3-0.9-2.1-2.3-2.1c-1.2,0-2.1,0.4-2.8,0.8l-0.6-1
					c0.6-0.4,1.9-1,3.5-1c2.6,0,3.6,1.4,3.6,3.4v6.2h-1.2l-0.2-0.8c-0.5,0.6-1.3,1-2.5,1c-2.1,0-3.6-1.3-3.6-3.1
					C94.4,176.6,95.9,175.3,98,175.3z M98.2,180.3c1.4,0,2.3-0.8,2.3-1.9c0-1.2-0.9-1.9-2.3-1.9c-1.4,0-2.3,0.8-2.3,1.9
					C95.9,179.4,96.8,180.3,98.2,180.3z"></path>
			</g>
			<g>
				<path style="fill:#FFFFFF;" d="M111.9,175.4v5.9h-1.4v-5.9c0-1.5-0.9-2.4-2.2-2.4c-1.4,0-2.4,1.1-2.4,2.6v5.7h-1.4v-9.4h1.4v1.4
					c0.5-0.8,1.5-1.6,2.8-1.6C110.8,171.6,111.9,173.3,111.9,175.4z"></path>
			</g>
			<g>
				<path style="fill:#FFFFFF;" d="M123,181.2h-1.4v-1.5c-0.2,0.3-1.2,1.7-3.2,1.7c-2.7,0-4.6-2-4.6-4.9c0-2.9,1.8-4.9,4.5-4.9
					c1.9,0,3,1.3,3.3,1.7v-5.2h1.4V181.2z M118.4,172.9c-1.8,0-3.2,1.5-3.2,3.7c0,2.2,1.4,3.6,3.2,3.6c2,0,3.2-1.6,3.2-3.6
					C121.6,174.3,120.2,172.9,118.4,172.9z"></path>
			</g>
			<g>
				<path style="fill:#FFFFFF;" d="M133.4,175.3c1.2,0,2.1,0.5,2.5,0.8V175c0-1.3-0.9-2.1-2.3-2.1c-1.2,0-2.1,0.4-2.8,0.8l-0.6-1
					c0.6-0.4,1.9-1,3.5-1c2.6,0,3.6,1.4,3.6,3.4v6.2H136l-0.2-0.8c-0.5,0.6-1.3,1-2.5,1c-2.1,0-3.6-1.3-3.6-3.1
					C129.8,176.6,131.3,175.3,133.4,175.3z M133.6,180.3c1.4,0,2.3-0.8,2.3-1.9c0-1.2-0.9-1.9-2.3-1.9c-1.4,0-2.3,0.8-2.3,1.9
					C131.2,179.4,132.1,180.3,133.6,180.3z"></path>
			</g>
			<g>
				<path style="fill:#FFFFFF;" d="M146.7,174.1c-0.4-0.4-1.4-1.2-2.8-1.2c-2,0-3.3,1.6-3.3,3.6c0,2,1.5,3.6,3.4,3.6
					c1.5,0,2.4-0.9,2.8-1.2l0.4,1.2c-0.4,0.4-1.5,1.3-3.3,1.3c-2.8,0-4.8-2.1-4.8-4.9c0-2.8,2.1-4.9,4.8-4.9c1.7,0,2.8,0.8,3.3,1.3
					L146.7,174.1z"></path>
			</g>
			<g>
				<path style="fill:#FFFFFF;" d="M156.1,174.1c-0.4-0.4-1.4-1.2-2.8-1.2c-2,0-3.3,1.6-3.3,3.6c0,2,1.5,3.6,3.4,3.6
					c1.5,0,2.4-0.9,2.8-1.2l0.4,1.2c-0.4,0.4-1.5,1.3-3.3,1.3c-2.8,0-4.8-2.1-4.8-4.9c0-2.8,2.1-4.9,4.8-4.9c1.7,0,2.8,0.8,3.3,1.3
					L156.1,174.1z"></path>
			</g>
			<g>
				<path style="fill:#FFFFFF;" d="M162.5,171.6c2.8,0,4.4,2,4.4,4.8c0,0.1,0,0.3,0,0.4h-7.5c0,2.1,1.4,3.3,3.4,3.3
					c1.6,0,2.5-0.8,2.9-1.5l0.9,0.7c-0.5,0.9-1.7,2-3.9,2c-2.8,0-4.8-2-4.8-4.9C157.9,173.6,160,171.6,162.5,171.6z M165.5,175.8
					c-0.1-1.9-1.4-2.9-3-2.9c-1.5,0-2.9,1.2-3,2.9H165.5z"></path>
			</g>
			<g>
				<path style="fill:#FFFFFF;" d="M168.9,171.9h1.4v1.5c0.2-0.3,1.2-1.7,3.3-1.7c2.7,0,4.6,2,4.6,4.9c0,2.9-1.8,4.9-4.5,4.9
					c-2,0-3-1.3-3.3-1.7v4.9h-1.4V171.9z M173.5,180.2c1.8,0,3.2-1.5,3.2-3.6c0-2.2-1.4-3.6-3.2-3.6c-1.9,0-3.2,1.6-3.2,3.6
					C170.3,178.8,171.7,180.2,173.5,180.2z"></path>
			</g>
			<g>
				<path style="fill:#FFFFFF;" d="M180.2,169.9h1.4v2h2.1v1.2h-2.1v4.8c0,1.7,0.5,2.2,1.7,2.2c0.2,0,0.4,0,0.4,0v1.3
					c0,0-0.4,0.1-0.9,0.1c-1.9,0-2.7-1.2-2.7-3.3v-5h-1.1v-1.2h1.1V169.9z"></path>
			</g>
			<g>
				<path style="fill:#FFFFFF;" d="M185.9,178.8c0.4,0.7,1.1,1.4,2.3,1.4c0.9,0,1.7-0.5,1.7-1.5c0-2.2-4.7-1.4-4.7-4.6
					c0-1.6,1.3-2.5,3-2.5c1.7,0,2.6,1.1,2.9,1.8l-1,0.6c-0.3-0.5-0.7-1.2-1.9-1.2c-0.9,0-1.5,0.5-1.5,1.3c0,2.1,4.7,1.3,4.7,4.6
					c0,1.7-1.4,2.8-3.2,2.8c-2,0-2.8-1.1-3.3-2L185.9,178.8z"></path>
			</g>
			<g>
				<path style="fill:#FFFFFF;" d="M198.1,169.9h1.4v2h2.1v1.2h-2.1v4.8c0,1.7,0.5,2.2,1.7,2.2c0.2,0,0.4,0,0.4,0v1.3
					c0,0-0.4,0.1-0.9,0.1c-1.9,0-2.7-1.2-2.7-3.3v-5H197v-1.2h1.1V169.9z"></path>
			</g>
			<g>
				<path style="fill:#FFFFFF;" d="M206.5,175.3c1.2,0,2.1,0.5,2.5,0.8V175c0-1.3-0.9-2.1-2.3-2.1c-1.2,0-2.1,0.4-2.8,0.8l-0.6-1
					c0.6-0.4,1.9-1,3.5-1c2.6,0,3.6,1.4,3.6,3.4v6.2h-1.2l-0.2-0.8c-0.5,0.6-1.3,1-2.5,1c-2.1,0-3.6-1.3-3.6-3.1
					C202.9,176.6,204.4,175.3,206.5,175.3z M206.7,180.3c1.4,0,2.3-0.8,2.3-1.9c0-1.2-0.9-1.9-2.3-1.9c-1.4,0-2.3,0.8-2.3,1.9
					C204.4,179.4,205.3,180.3,206.7,180.3z"></path>
			</g>
			<g>
				<path style="fill:#FFFFFF;" d="M213.2,178.8c0.4,0.7,1.1,1.4,2.3,1.4c0.9,0,1.7-0.5,1.7-1.5c0-2.2-4.7-1.4-4.7-4.6
					c0-1.6,1.3-2.5,3-2.5c1.7,0,2.6,1.1,2.9,1.8l-1,0.6c-0.3-0.5-0.7-1.2-1.9-1.2c-0.9,0-1.5,0.5-1.5,1.3c0,2.1,4.7,1.3,4.7,4.6
					c0,1.7-1.4,2.8-3.2,2.8c-2,0-2.8-1.1-3.3-2L213.2,178.8z"></path>
			</g>
			<g>
				<path style="fill:#FFFFFF;" d="M220.6,168.2h1.4v7.7l3.8-4h1.8l-4,4.2l4.3,5.2H226l-4-5v5h-1.4V168.2z"></path>
			</g>
			<g>
				<path style="fill:#FFFFFF;" d="M229.6,178.8c0.4,0.7,1.1,1.4,2.3,1.4c0.9,0,1.7-0.5,1.7-1.5c0-2.2-4.7-1.4-4.7-4.6
					c0-1.6,1.3-2.5,3-2.5c1.7,0,2.6,1.1,2.9,1.8l-1,0.6c-0.3-0.5-0.7-1.2-1.9-1.2c-0.9,0-1.5,0.5-1.5,1.3c0,2.1,4.7,1.3,4.7,4.6
					c0,1.7-1.4,2.8-3.2,2.8c-2,0-2.8-1.1-3.3-2L229.6,178.8z"></path>
			</g>
			<g>
				<path style="fill:#FFFFFF;" d="M237.7,179.4c0.6,0,1.1,0.4,1.1,1.1c0,1.3-0.6,2.2-1.4,2.9l-0.7-0.6c0.3-0.2,0.8-0.8,0.9-1.3
					c-0.5-0.1-0.9-0.5-0.9-1C236.7,179.9,237.1,179.4,237.7,179.4z"></path>
			</g>
			<g>
				<path style="fill:#FFFFFF;" d="M258.9,181.2h-1.4v-5.6c0-1.8-0.7-2.7-2.1-2.7c-1.3,0-2.3,0.9-2.3,2.7v5.6h-1.4v-5.9
					c0-1.5-0.8-2.4-2.1-2.4c-1.2,0-2.3,1-2.3,2.6v5.7h-1.4v-9.4h1.4c0,0.9,0,1.4,0,1.4c0.4-0.8,1.4-1.6,2.6-1.6
					c1.4,0,2.4,0.7,2.8,1.7c0.6-1.1,1.7-1.7,3-1.7c2.1,0,3.2,1.5,3.2,3.5V181.2z"></path>
			</g>
			<g>
				<path style="fill:#FFFFFF;" d="M264.4,175.3c1.2,0,2.1,0.5,2.5,0.8V175c0-1.3-0.9-2.1-2.3-2.1c-1.2,0-2.1,0.4-2.8,0.8l-0.6-1
					c0.6-0.4,1.9-1,3.5-1c2.6,0,3.6,1.4,3.6,3.4v6.2h-1.2l-0.2-0.8c-0.5,0.6-1.3,1-2.5,1c-2.1,0-3.6-1.3-3.6-3.1
					C260.8,176.6,262.3,175.3,264.4,175.3z M264.6,180.3c1.4,0,2.3-0.8,2.3-1.9c0-1.2-0.9-1.9-2.3-1.9c-1.4,0-2.3,0.8-2.3,1.9
					C262.3,179.4,263.2,180.3,264.6,180.3z"></path>
			</g>
			<g>
				<path style="fill:#FFFFFF;" d="M278.3,175.4v5.9h-1.4v-5.9c0-1.5-0.9-2.4-2.2-2.4c-1.4,0-2.4,1.1-2.4,2.6v5.7h-1.4v-9.4h1.4v1.4
					c0.5-0.8,1.5-1.6,2.8-1.6C277.2,171.6,278.3,173.3,278.3,175.4z"></path>
			</g>
			<g>
				<path style="fill:#FFFFFF;" d="M283.8,175.3c1.2,0,2.1,0.5,2.5,0.8V175c0-1.3-0.9-2.1-2.3-2.1c-1.2,0-2.1,0.4-2.8,0.8l-0.6-1
					c0.6-0.4,1.9-1,3.5-1c2.6,0,3.6,1.4,3.6,3.4v6.2h-1.2l-0.2-0.8c-0.5,0.6-1.3,1-2.5,1c-2.1,0-3.6-1.3-3.6-3.1
					C280.2,176.6,281.7,175.3,283.8,175.3z M284,180.3c1.4,0,2.3-0.8,2.3-1.9c0-1.2-0.9-1.9-2.3-1.9c-1.4,0-2.3,0.8-2.3,1.9
					C281.7,179.4,282.6,180.3,284,180.3z"></path>
			</g>
			<g>
				<path style="fill:#FFFFFF;" d="M291.2,182.6c0.4,0.2,1.5,0.8,2.8,0.8c1.8,0,3.3-0.7,3.3-2.8v-0.8c-0.2,0.3-1.2,1.7-3.2,1.7
					c-2.7,0-4.5-2-4.5-4.9c0-2.9,1.9-4.9,4.5-4.9c1.9,0,3,1.2,3.3,1.7v-1.5h1.4v8.1c0,3.5-2,4.8-4.7,4.8c-1.2,0-2.5-0.4-3.3-0.9
					L291.2,182.6z M294.2,172.9c-1.8,0-3.2,1.5-3.2,3.6c0,2.2,1.4,3.6,3.2,3.6c1.9,0,3.2-1.6,3.2-3.6
					C297.4,174.3,296,172.9,294.2,172.9z"></path>
			</g>
			<g>
				<path style="fill:#FFFFFF;" d="M305.2,171.6c2.8,0,4.4,2,4.4,4.8c0,0.1,0,0.3,0,0.4h-7.5c0,2.1,1.4,3.3,3.4,3.3
					c1.6,0,2.5-0.8,2.9-1.5l0.9,0.7c-0.5,0.9-1.7,2-3.9,2c-2.8,0-4.8-2-4.8-4.9C300.7,173.6,302.7,171.6,305.2,171.6z M308.2,175.8
					c-0.1-1.9-1.4-2.9-3-2.9c-1.5,0-2.9,1.2-3,2.9H308.2z"></path>
			</g>
			<g>
				<path style="fill:#FFFFFF;" d="M311.9,178.8c0.4,0.7,1.1,1.4,2.3,1.4c0.9,0,1.7-0.5,1.7-1.5c0-2.2-4.7-1.4-4.7-4.6
					c0-1.6,1.3-2.5,3-2.5c1.7,0,2.6,1.1,2.9,1.8l-1,0.6c-0.3-0.5-0.7-1.2-1.9-1.2c-0.9,0-1.5,0.5-1.5,1.3c0,2.1,4.7,1.3,4.7,4.6
					c0,1.7-1.4,2.8-3.2,2.8c-2,0-2.8-1.1-3.3-2L311.9,178.8z"></path>
			</g>
			<g>
				<path style="fill:#FFFFFF;" d="M327.8,181.2l-4.8-12.6h1.6l4,10.9l4-10.9h1.6l-4.8,12.6H327.8z"></path>
			</g>
			<g>
				<path style="fill:#FFFFFF;" d="M342.3,178.4l4.5-9.8h1.9v12.6h-1.4v-10.5l-4.3,9.3h-1.4l-4.3-9.3v10.5h-1.4v-12.6h1.9
					L342.3,178.4z"></path>
			</g>
			<g>
				<path style="fill:#FFFFFF;" d="M352.2,172.5c0.6,0,1,0.5,1,1s-0.5,1-1,1c-0.6,0-1-0.5-1-1S351.6,172.5,352.2,172.5z
					 M352.2,179.4c0.6,0,1.1,0.4,1.1,1.1c0,1.3-0.6,2.2-1.4,2.9l-0.7-0.6c0.3-0.2,0.8-0.7,0.9-1.3c-0.5-0.1-0.9-0.5-0.9-1
					C351.2,179.9,351.6,179.4,352.2,179.4z"></path>
			</g>
			<g>
				<path style="fill:#FFFFFF;" d="M41.9,190.2h1.5l6.9,10.3v-10.3h1.4v12.6h-1.4l-6.9-10.3v10.3h-1.5V190.2z"></path>
			</g>
			<g>
				<path style="fill:#FFFFFF;" d="M58.5,193.2c2.8,0,4.4,2,4.4,4.8c0,0.1,0,0.3,0,0.4h-7.5c0,2.1,1.4,3.3,3.4,3.3
					c1.6,0,2.5-0.8,2.9-1.5l0.9,0.7c-0.5,0.9-1.7,2-3.9,2c-2.8,0-4.8-2-4.8-4.9C54,195.2,56,193.2,58.5,193.2z M61.5,197.4
					c-0.1-1.9-1.4-2.9-3-2.9c-1.5,0-2.9,1.2-3,2.9H61.5z"></path>
			</g>
			<g>
				<path style="fill:#FFFFFF;" d="M65.9,204.2c0.4,0.2,1.5,0.8,2.8,0.8c1.8,0,3.3-0.7,3.3-2.8v-0.8c-0.2,0.3-1.2,1.7-3.2,1.7
					c-2.7,0-4.5-2-4.5-4.9c0-2.9,1.9-4.9,4.5-4.9c1.9,0,3,1.2,3.3,1.7v-1.5h1.4v8.1c0,3.5-2,4.8-4.7,4.8c-1.2,0-2.5-0.4-3.3-0.9
					L65.9,204.2z M68.9,194.5c-1.8,0-3.2,1.5-3.2,3.6c0,2.2,1.4,3.6,3.2,3.6c1.9,0,3.2-1.6,3.2-3.6
					C72.1,195.9,70.7,194.5,68.9,194.5z"></path>
			</g>
			<g>
				<path style="fill:#FFFFFF;" d="M80.3,193.2c2.8,0,4.9,2.1,4.9,4.9c0,2.8-2.1,4.9-4.9,4.9s-4.9-2.1-4.9-4.9
					C75.4,195.3,77.5,193.2,80.3,193.2z M80.3,201.8c2,0,3.5-1.5,3.5-3.6c0-2.1-1.4-3.6-3.5-3.6s-3.4,1.6-3.4,3.6
					C76.9,200.3,78.3,201.8,80.3,201.8z"></path>
			</g>
			<g>
				<path style="fill:#FFFFFF;" d="M87.3,191.5h1.4v2h2.1v1.2h-2.1v4.8c0,1.7,0.5,2.2,1.7,2.2c0.2,0,0.4,0,0.4,0v1.3
					c0,0-0.4,0.1-0.9,0.1c-1.9,0-2.7-1.2-2.7-3.3v-5h-1.1v-1.2h1.1V191.5z"></path>
			</g>
			<g>
				<path style="fill:#FFFFFF;" d="M93.4,190.1c0.6,0,1,0.4,1,1c0,0.6-0.4,1-1,1c-0.5,0-1-0.4-1-1C92.4,190.5,92.8,190.1,93.4,190.1
					z M92.7,193.5h1.4v9.4h-1.4V193.5z"></path>
			</g>
			<g>
				<path style="fill:#FFFFFF;" d="M99.7,196.9c1.2,0,2.1,0.5,2.5,0.8v-1.2c0-1.3-0.9-2.1-2.3-2.1c-1.2,0-2.1,0.4-2.8,0.8l-0.6-1
					c0.6-0.4,1.9-1,3.5-1c2.6,0,3.6,1.4,3.6,3.4v6.2h-1.2l-0.2-0.8c-0.5,0.6-1.3,1-2.5,1c-2.1,0-3.6-1.3-3.6-3.1
					C96.1,198.2,97.6,196.9,99.7,196.9z M99.9,201.9c1.4,0,2.3-0.8,2.3-1.9c0-1.2-0.9-1.9-2.3-1.9c-1.4,0-2.3,0.8-2.3,1.9
					C97.5,201,98.5,201.9,99.9,201.9z"></path>
			</g>
			<g>
				<path style="fill:#FFFFFF;" d="M106.2,191.5h1.4v2h2.1v1.2h-2.1v4.8c0,1.7,0.5,2.2,1.7,2.2c0.2,0,0.4,0,0.4,0v1.3
					c0,0-0.4,0.1-0.9,0.1c-1.9,0-2.7-1.2-2.7-3.3v-5h-1.1v-1.2h1.1V191.5z"></path>
			</g>
			<g>
				<path style="fill:#FFFFFF;" d="M115.5,193.2c2.8,0,4.4,2,4.4,4.8c0,0.1,0,0.3,0,0.4h-7.5c0,2.1,1.4,3.3,3.4,3.3
					c1.6,0,2.5-0.8,2.9-1.5l0.9,0.7c-0.5,0.9-1.7,2-3.9,2c-2.8,0-4.8-2-4.8-4.9C111,195.2,113,193.2,115.5,193.2z M118.5,197.4
					c-0.1-1.9-1.4-2.9-3-2.9c-1.5,0-2.9,1.2-3,2.9H118.5z"></path>
			</g>
			<g>
				<path style="fill:#FFFFFF;" d="M122.2,200.4c0.4,0.7,1.1,1.4,2.3,1.4c0.9,0,1.7-0.5,1.7-1.5c0-2.2-4.7-1.4-4.7-4.6
					c0-1.6,1.3-2.5,3-2.5c1.7,0,2.6,1.1,2.9,1.8l-1,0.6c-0.3-0.5-0.7-1.2-1.9-1.2c-0.9,0-1.5,0.5-1.5,1.3c0,2.1,4.7,1.3,4.7,4.6
					c0,1.7-1.4,2.8-3.2,2.8c-2,0-2.8-1.1-3.3-2L122.2,200.4z"></path>
			</g>
			<g>
				<path style="fill:#FFFFFF;" d="M138.5,194.7c-2.1,0-2.8,1.7-2.8,3.7v4.5h-1.4v-9.4h1.4v1.6c0.3-0.9,1.4-1.8,2.8-1.8V194.7z"></path>
			</g>
			<g>
				<path style="fill:#FFFFFF;" d="M143.3,196.9c1.2,0,2.1,0.5,2.5,0.8v-1.2c0-1.3-0.9-2.1-2.3-2.1c-1.2,0-2.1,0.4-2.8,0.8l-0.6-1
					c0.6-0.4,1.9-1,3.5-1c2.6,0,3.6,1.4,3.6,3.4v6.2H146l-0.2-0.8c-0.5,0.6-1.3,1-2.5,1c-2.1,0-3.6-1.3-3.6-3.1
					C139.7,198.2,141.2,196.9,143.3,196.9z M143.5,201.9c1.4,0,2.3-0.8,2.3-1.9c0-1.2-0.9-1.9-2.3-1.9c-1.4,0-2.3,0.8-2.3,1.9
					C141.1,201,142.1,201.9,143.5,201.9z"></path>
			</g>
			<g>
				<path style="fill:#FFFFFF;" d="M149.8,191.5h1.4v2h2.1v1.2h-2.1v4.8c0,1.7,0.5,2.2,1.7,2.2c0.2,0,0.4,0,0.4,0v1.3
					c0,0-0.4,0.1-0.9,0.1c-1.9,0-2.7-1.2-2.7-3.3v-5h-1.1v-1.2h1.1V191.5z"></path>
			</g>
			<g>
				<path style="fill:#FFFFFF;" d="M159.1,193.2c2.8,0,4.4,2,4.4,4.8c0,0.1,0,0.3,0,0.4H156c0,2.1,1.4,3.3,3.4,3.3
					c1.6,0,2.5-0.8,2.9-1.5l0.9,0.7c-0.5,0.9-1.7,2-3.9,2c-2.8,0-4.8-2-4.8-4.9C154.5,195.2,156.6,193.2,159.1,193.2z M162.1,197.4
					c-0.1-1.9-1.4-2.9-3-2.9c-1.5,0-2.9,1.2-3,2.9H162.1z"></path>
			</g>
			<g>
				<path style="fill:#FFFFFF;" d="M165.8,200.4c0.4,0.7,1.1,1.4,2.3,1.4c0.9,0,1.7-0.5,1.7-1.5c0-2.2-4.7-1.4-4.7-4.6
					c0-1.6,1.3-2.5,3-2.5c1.7,0,2.6,1.1,2.9,1.8l-1,0.6c-0.3-0.5-0.7-1.2-1.9-1.2c-0.9,0-1.5,0.5-1.5,1.3c0,2.1,4.7,1.3,4.7,4.6
					c0,1.7-1.4,2.8-3.2,2.8c-2,0-2.8-1.1-3.3-2L165.8,200.4z"></path>
			</g>
			<g>
				<path style="fill:#FFFFFF;" d="M180.9,196.9c1.2,0,2.1,0.5,2.5,0.8v-1.2c0-1.3-0.9-2.1-2.3-2.1c-1.2,0-2.1,0.4-2.8,0.8l-0.6-1
					c0.6-0.4,1.9-1,3.5-1c2.6,0,3.6,1.4,3.6,3.4v6.2h-1.2l-0.2-0.8c-0.5,0.6-1.3,1-2.5,1c-2.1,0-3.6-1.3-3.6-3.1
					C177.3,198.2,178.8,196.9,180.9,196.9z M181.1,201.9c1.4,0,2.3-0.8,2.3-1.9c0-1.2-0.9-1.9-2.3-1.9c-1.4,0-2.3,0.8-2.3,1.9
					C178.8,201,179.7,201.9,181.1,201.9z"></path>
			</g>
			<g>
				<path style="fill:#FFFFFF;" d="M194.8,197v5.9h-1.4v-5.9c0-1.5-0.9-2.4-2.2-2.4c-1.4,0-2.4,1.1-2.4,2.6v5.7h-1.4v-9.4h1.4v1.4
					c0.5-0.8,1.5-1.6,2.8-1.6C193.7,193.2,194.8,194.9,194.8,197z"></path>
			</g>
			<g>
				<path style="fill:#FFFFFF;" d="M205.9,202.8h-1.4v-1.5c-0.2,0.3-1.2,1.7-3.2,1.7c-2.7,0-4.6-2-4.6-4.9c0-2.9,1.8-4.9,4.5-4.9
					c1.9,0,3,1.3,3.3,1.7v-5.2h1.4V202.8z M201.3,194.5c-1.8,0-3.2,1.5-3.2,3.7c0,2.2,1.4,3.6,3.2,3.6c2,0,3.2-1.6,3.2-3.6
					C204.5,195.9,203.1,194.5,201.3,194.5z"></path>
			</g>
			<g>
				<path style="fill:#FFFFFF;" d="M220.3,195.7c-0.4-0.4-1.4-1.2-2.8-1.2c-2,0-3.3,1.6-3.3,3.6c0,2,1.5,3.6,3.4,3.6
					c1.5,0,2.4-0.9,2.8-1.2l0.4,1.2c-0.4,0.4-1.5,1.3-3.3,1.3c-2.8,0-4.8-2.1-4.8-4.9c0-2.8,2.1-4.9,4.8-4.9c1.7,0,2.8,0.8,3.3,1.3
					L220.3,195.7z"></path>
			</g>
			<g>
				<path style="fill:#FFFFFF;" d="M222.7,189.8h1.4v13h-1.4V189.8z"></path>
			</g>
			<g>
				<path style="fill:#FFFFFF;" d="M230.7,193.2c2.8,0,4.4,2,4.4,4.8c0,0.1,0,0.3,0,0.4h-7.5c0,2.1,1.4,3.3,3.4,3.3
					c1.6,0,2.5-0.8,2.9-1.5l0.9,0.7c-0.5,0.9-1.7,2-3.9,2c-2.8,0-4.8-2-4.8-4.9C226.1,195.2,228.2,193.2,230.7,193.2z M233.7,197.4
					c-0.1-1.9-1.4-2.9-3-2.9c-1.5,0-2.9,1.2-3,2.9H233.7z"></path>
			</g>
			<g>
				<path style="fill:#FFFFFF;" d="M240.1,196.9c1.2,0,2.1,0.5,2.5,0.8v-1.2c0-1.3-0.9-2.1-2.3-2.1c-1.2,0-2.1,0.4-2.8,0.8l-0.6-1
					c0.6-0.4,1.9-1,3.5-1c2.6,0,3.6,1.4,3.6,3.4v6.2h-1.2l-0.2-0.8c-0.5,0.6-1.3,1-2.5,1c-2.1,0-3.6-1.3-3.6-3.1
					C236.5,198.2,238,196.9,240.1,196.9z M240.3,201.9c1.4,0,2.3-0.8,2.3-1.9c0-1.2-0.9-1.9-2.3-1.9c-1.4,0-2.3,0.8-2.3,1.9
					C237.9,201,238.8,201.9,240.3,201.9z"></path>
			</g>
			<g>
				<path style="fill:#FFFFFF;" d="M250.6,194.7c-2.1,0-2.8,1.7-2.8,3.7v4.5h-1.4v-9.4h1.4v1.6c0.3-0.9,1.4-1.8,2.8-1.8V194.7z"></path>
			</g>
			<g>
				<path style="fill:#FFFFFF;" d="M252.7,200.4c0.4,0.7,1.1,1.4,2.3,1.4c0.9,0,1.7-0.5,1.7-1.5c0-2.2-4.7-1.4-4.7-4.6
					c0-1.6,1.3-2.5,3-2.5c1.7,0,2.6,1.1,2.9,1.8l-1,0.6c-0.3-0.5-0.7-1.2-1.9-1.2c-0.9,0-1.5,0.5-1.5,1.3c0,2.1,4.7,1.3,4.7,4.6
					c0,1.7-1.4,2.8-3.2,2.8c-2,0-2.8-1.1-3.3-2L252.7,200.4z"></path>
			</g>
			<g>
				<path style="fill:#FFFFFF;" d="M265,191.5h1.4v2h2.1v1.2h-2.1v4.8c0,1.7,0.5,2.2,1.7,2.2c0.2,0,0.4,0,0.4,0v1.3
					c0,0-0.4,0.1-0.9,0.1c-1.9,0-2.7-1.2-2.7-3.3v-5h-1.1v-1.2h1.1V191.5z"></path>
			</g>
			<g>
				<path style="fill:#FFFFFF;" d="M274.5,194.7c-2.1,0-2.8,1.7-2.8,3.7v4.5h-1.4v-9.4h1.4v1.6c0.3-0.9,1.4-1.8,2.8-1.8V194.7z"></path>
			</g>
			<g>
				<path style="fill:#FFFFFF;" d="M279.3,196.9c1.2,0,2.1,0.5,2.5,0.8v-1.2c0-1.3-0.9-2.1-2.3-2.1c-1.2,0-2.1,0.4-2.8,0.8l-0.6-1
					c0.6-0.4,1.9-1,3.5-1c2.6,0,3.6,1.4,3.6,3.4v6.2H282l-0.2-0.8c-0.5,0.6-1.3,1-2.5,1c-2.1,0-3.6-1.3-3.6-3.1
					C275.7,198.2,277.2,196.9,279.3,196.9z M279.5,201.9c1.4,0,2.3-0.8,2.3-1.9c0-1.2-0.9-1.9-2.3-1.9c-1.4,0-2.3,0.8-2.3,1.9
					C277.1,201,278,201.9,279.5,201.9z"></path>
			</g>
			<g>
				<path style="fill:#FFFFFF;" d="M293.1,197v5.9h-1.4v-5.9c0-1.5-0.9-2.4-2.2-2.4c-1.4,0-2.4,1.1-2.4,2.6v5.7h-1.4v-9.4h1.4v1.4
					c0.5-0.8,1.5-1.6,2.8-1.6C292,193.2,293.1,194.9,293.1,197z"></path>
			</g>
			<g>
				<path style="fill:#FFFFFF;" d="M296,200.4c0.4,0.7,1.1,1.4,2.3,1.4c0.9,0,1.7-0.5,1.7-1.5c0-2.2-4.7-1.4-4.7-4.6
					c0-1.6,1.3-2.5,3-2.5c1.7,0,2.6,1.1,2.9,1.8l-1,0.6c-0.3-0.5-0.7-1.2-1.9-1.2c-0.9,0-1.5,0.5-1.5,1.3c0,2.1,4.7,1.3,4.7,4.6
					c0,1.7-1.4,2.8-3.2,2.8c-2,0-2.8-1.1-3.3-2L296,200.4z"></path>
			</g>
			<g>
				<path style="fill:#FFFFFF;" d="M306.4,196.9c1.2,0,2.1,0.5,2.5,0.8v-1.2c0-1.3-0.9-2.1-2.3-2.1c-1.2,0-2.1,0.4-2.8,0.8l-0.6-1
					c0.6-0.4,1.9-1,3.5-1c2.6,0,3.6,1.4,3.6,3.4v6.2H309l-0.2-0.8c-0.5,0.6-1.3,1-2.5,1c-2.1,0-3.6-1.3-3.6-3.1
					C302.8,198.2,304.3,196.9,306.4,196.9z M306.6,201.9c1.4,0,2.3-0.8,2.3-1.9c0-1.2-0.9-1.9-2.3-1.9c-1.4,0-2.3,0.8-2.3,1.9
					C304.2,201,305.1,201.9,306.6,201.9z"></path>
			</g>
			<g>
				<path style="fill:#FFFFFF;" d="M319.7,195.7c-0.4-0.4-1.4-1.2-2.8-1.2c-2,0-3.3,1.6-3.3,3.6c0,2,1.5,3.6,3.4,3.6
					c1.5,0,2.4-0.9,2.8-1.2l0.4,1.2c-0.4,0.4-1.5,1.3-3.3,1.3c-2.8,0-4.8-2.1-4.8-4.9c0-2.8,2.1-4.9,4.8-4.9c1.7,0,2.8,0.8,3.3,1.3
					L319.7,195.7z"></path>
			</g>
			<g>
				<path style="fill:#FFFFFF;" d="M322.3,191.5h1.4v2h2.1v1.2h-2.1v4.8c0,1.7,0.5,2.2,1.7,2.2c0.2,0,0.4,0,0.4,0v1.3
					c0,0-0.4,0.1-0.9,0.1c-1.9,0-2.7-1.2-2.7-3.3v-5h-1.1v-1.2h1.1V191.5z"></path>
			</g>
			<g>
				<path style="fill:#FFFFFF;" d="M328.3,190.1c0.6,0,1,0.4,1,1c0,0.6-0.4,1-1,1c-0.5,0-1-0.4-1-1
					C327.4,190.5,327.8,190.1,328.3,190.1z M327.6,193.5h1.4v9.4h-1.4V193.5z"></path>
			</g>
			<g>
				<path style="fill:#FFFFFF;" d="M336,193.2c2.8,0,4.9,2.1,4.9,4.9c0,2.8-2.1,4.9-4.9,4.9s-4.9-2.1-4.9-4.9
					C331.1,195.3,333.2,193.2,336,193.2z M335.9,201.8c2,0,3.5-1.5,3.5-3.6c0-2.1-1.4-3.6-3.5-3.6s-3.4,1.6-3.4,3.6
					C332.5,200.3,333.9,201.8,335.9,201.8z"></path>
			</g>
			<g>
				<path style="fill:#FFFFFF;" d="M350.3,197v5.9h-1.4v-5.9c0-1.5-0.9-2.4-2.2-2.4c-1.4,0-2.4,1.1-2.4,2.6v5.7h-1.4v-9.4h1.4v1.4
					c0.5-0.8,1.5-1.6,2.8-1.6C349.2,193.2,350.3,194.9,350.3,197z"></path>
			</g>
			<g>
				<path style="fill:#FFFFFF;" d="M353.2,200.4c0.4,0.7,1.1,1.4,2.3,1.4c0.9,0,1.7-0.5,1.7-1.5c0-2.2-4.7-1.4-4.7-4.6
					c0-1.6,1.3-2.5,3-2.5c1.7,0,2.6,1.1,2.9,1.8l-1,0.6c-0.3-0.5-0.7-1.2-1.9-1.2c-0.9,0-1.5,0.5-1.5,1.3c0,2.1,4.7,1.3,4.7,4.6
					c0,1.7-1.4,2.8-3.2,2.8c-2,0-2.8-1.1-3.3-2L353.2,200.4z"></path>
			</g>
		</g>
		<g>
			<g>
				<path style="fill:#FFFFFF;" d="M16.2,132h14.1v1.2H16.2V132z"></path>
			</g>
			<g>
				<path style="fill:#FFFFFF;" d="M16.2,153.6h14.1v1.2H16.2V153.6z"></path>
			</g>
			<g>
				<path style="fill:#FFFFFF;" d="M16.2,175.2h14.1v1.2H16.2V175.2z"></path>
			</g>
			<g>
				<path style="fill:#FFFFFF;" d="M16.2,196.8h14.1v1.2H16.2V196.8z"></path>
			</g>
		</g>
		<g>
			<path style="fill:#B66F6F;" d="M401,228.5H0v-126h401V228.5z M1,227.5h399v-124H1V227.5z"></path>
		</g>
		<g>
			<g>
				<path style="fill:#FFFFFF;" d="M367.9,91.6h-13.1V78.4h13.1V91.6z M355.7,90.6h11.1V79.4h-11.1V90.6z"></path>
			</g>
			<g>
				
					<rect x="370.8" y="84.5" transform="matrix(0.7071 0.7071 -0.7071 0.7071 171.2486 -243.3976)" style="fill:#FFFFFF;" width="17.2" height="1"></rect>
			</g>
			<g>
				
					<rect x="378.9" y="76.4" transform="matrix(0.7071 0.7071 -0.7071 0.7071 171.2486 -243.3976)" style="fill:#FFFFFF;" width="1" height="17.2"></rect>
			</g>
			<g>
				<rect x="337.1" y="90.6" style="fill:#FFFFFF;" width="12.1" height="1"></rect>
			</g>
		</g>
	</g>
</g>
</svg>
