<?xml version="1.0"?>

<!-- Generator: Adobe Illustrator 19.1.0, SVG Export Plug-In . SVG Version: 6.00 Build 0)  -->
<svg version="1.1" id="Layer_1" xmlns="http://www.w3.org/2000/svg" xmlns:xlink="http://www.w3.org/1999/xlink" x="0px" y="0px" viewBox="0 0 572 90" style="enable-background:new 0 0 572 90;" xml:space="preserve" width="572" height="90">
<linearGradient id="SVGID_1_" gradientUnits="userSpaceOnUse" x1="286" y1="0.5" x2="286" y2="89.5">
	<stop offset="0" style="stop-color:#B66F6F"></stop>
	<stop offset="0.6472" style="stop-color:#757C97"></stop>
</linearGradient>
<polygon style="fill:url(#SVGID_1_);" points="572,64.1 571.3,63.4 566,68.7 566,45.5 566,44.5 565,44.5 407,44.5 407,26.6 
	413,20.6 412.3,19.9 407,25.2 407,0.5 406,0.5 406,25.1 400.8,19.9 400.1,20.6 406,26.5 406,44.5 327,44.5 326,44.5 7,44.5 6,44.5 
	6,45.5 6,68.7 0.7,63.4 0,64.1 6,70.1 6,89.5 7,89.5 7,70.1 13,64.1 12.3,63.4 7,68.7 7,45.5 326,45.5 326,68.7 320.7,63.4 
	320,64.1 326,70.1 326,89.5 327,89.5 327,70.1 333,64.1 332.3,63.4 327,68.7 327,45.5 406,45.5 407,45.5 565,45.5 565,68.7 
	559.7,63.4 559,64.1 565,70.1 565,89.5 566,89.5 566,70.1 "></polygon>
</svg>
