<?xml version="1.0"?>

<!-- Generator: Adobe Illustrator 19.1.0, SVG Export Plug-In . SVG Version: 6.00 Build 0)  -->
<svg version="1.1" xmlns="http://www.w3.org/2000/svg" xmlns:xlink="http://www.w3.org/1999/xlink" x="0px" y="0px" viewBox="0 0 800 350" style="enable-background:new 0 0 800 350;" xml:space="preserve" width="800" height="350">
<g id="Layer_2">
</g>
<g id="Layer_1">
	<g>
		<rect style="fill:#1C1F2B;" width="800" height="350"></rect>
		<line style="fill:none;stroke:#757C97;stroke-width:3;stroke-miterlimit:10;" x1="258.8" y1="220" x2="258.8" y2="310"></line>
		<line style="fill:none;stroke:#B66F6F;stroke-miterlimit:10;" x1="520" y1="100" x2="600.3" y2="19.7"></line>
		<line style="fill:none;stroke:#B66F6F;stroke-miterlimit:10;" x1="50" y1="310" x2="137.6" y2="310"></line>
		<line style="fill:none;stroke:#757C97;stroke-width:3;stroke-miterlimit:10;" x1="678.6" y1="220" x2="776.3" y2="122.3"></line>
		<linearGradient id="SVGID_1_" gradientUnits="userSpaceOnUse" x1="97.4838" y1="115" x2="288.8582" y2="115">
			<stop offset="0.5" style="stop-color:#757C97"></stop>
			<stop offset="1" style="stop-color:#B66F6F"></stop>
		</linearGradient>
		<line style="fill:none;stroke:url(#SVGID_1_);stroke-miterlimit:10;" x1="97.6" y1="130" x2="288.8" y2="100"></line>
		<linearGradient id="SVGID_2_" gradientUnits="userSpaceOnUse" x1="97.0732" y1="220" x2="138.0494" y2="220">
			<stop offset="0.5" style="stop-color:#757C97"></stop>
			<stop offset="1" style="stop-color:#B66F6F"></stop>
		</linearGradient>
		<line style="fill:none;stroke:url(#SVGID_2_);stroke-miterlimit:10;" x1="97.6" y1="130" x2="137.6" y2="310"></line>
		<linearGradient id="SVGID_3_" gradientUnits="userSpaceOnUse" x1="257.3255" y1="160" x2="290.2359" y2="160">
			<stop offset="0.5" style="stop-color:#757C97"></stop>
			<stop offset="1" style="stop-color:#B66F6F"></stop>
		</linearGradient>
		<line style="fill:none;stroke:url(#SVGID_3_);stroke-width:3;stroke-miterlimit:10;" x1="258.8" y1="220" x2="288.8" y2="100"></line>
		<linearGradient id="SVGID_4_" gradientUnits="userSpaceOnUse" x1="136.6672" y1="265" x2="259.6748" y2="265">
			<stop offset="0" style="stop-color:#B66F6F"></stop>
			<stop offset="0.5" style="stop-color:#757C97"></stop>
		</linearGradient>
		<line style="fill:none;stroke:url(#SVGID_4_);stroke-width:3;stroke-miterlimit:10;" x1="258.8" y1="220" x2="137.6" y2="310"></line>
		<linearGradient id="SVGID_5_" gradientUnits="userSpaceOnUse" x1="258.1545" y1="160" x2="520.6262" y2="160">
			<stop offset="0.5" style="stop-color:#757C97"></stop>
			<stop offset="1" style="stop-color:#B66F6F"></stop>
		</linearGradient>
		<line style="fill:none;stroke:url(#SVGID_5_);stroke-width:3;stroke-miterlimit:10;" x1="258.8" y1="220" x2="520" y2="100"></line>
		<line style="fill:none;stroke:#B66F6F;stroke-miterlimit:10;" x1="288.8" y1="100" x2="520" y2="100"></line>
		<linearGradient id="SVGID_6_" gradientUnits="userSpaceOnUse" x1="258.4979" y1="265" x2="390.2828" y2="265">
			<stop offset="0.5" style="stop-color:#757C97"></stop>
			<stop offset="1" style="stop-color:#B66F6F"></stop>
		</linearGradient>
		<line style="fill:none;stroke:url(#SVGID_6_);stroke-miterlimit:10;" x1="258.8" y1="220" x2="390" y2="310"></line>
		<linearGradient id="SVGID_7_" gradientUnits="userSpaceOnUse" x1="390" y1="310" x2="581.2194" y2="310">
			<stop offset="0" style="stop-color:#B66F6F"></stop>
			<stop offset="0.5" style="stop-color:#757C97"></stop>
		</linearGradient>
		<line style="fill:none;stroke:url(#SVGID_7_);stroke-miterlimit:10;" x1="390" y1="310" x2="581.2" y2="310"></line>
		<line style="fill:none;stroke:#757C97;stroke-width:3;stroke-miterlimit:10;" x1="678.6" y1="220" x2="581.2" y2="310"></line>
		<linearGradient id="SVGID_8_" gradientUnits="userSpaceOnUse" x1="471.2193" y1="220" x2="678.5966" y2="220">
			<stop offset="0" style="stop-color:#B66F6F"></stop>
			<stop offset="0.5" style="stop-color:#757C97"></stop>
		</linearGradient>
		<line style="fill:none;stroke:url(#SVGID_8_);stroke-width:3;stroke-miterlimit:10;" x1="678.6" y1="220" x2="471.2" y2="220"></line>
		<linearGradient id="SVGID_9_" gradientUnits="userSpaceOnUse" x1="519.6983" y1="160" x2="678.8983" y2="160">
			<stop offset="0" style="stop-color:#B66F6F"></stop>
			<stop offset="0.5" style="stop-color:#757C97"></stop>
		</linearGradient>
		<line style="fill:none;stroke:url(#SVGID_9_);stroke-miterlimit:10;" x1="678.6" y1="220" x2="520" y2="100"></line>
		<linearGradient id="SVGID_10_" gradientUnits="userSpaceOnUse" x1="258.7807" y1="220" x2="471.2193" y2="220">
			<stop offset="0.5" style="stop-color:#757C97"></stop>
			<stop offset="1" style="stop-color:#B66F6F"></stop>
		</linearGradient>
		<line style="fill:none;stroke:url(#SVGID_10_);stroke-miterlimit:10;" x1="258.8" y1="220" x2="471.2" y2="220"></line>
		<g style="opacity:0.8;">
			<rect x="460.6" y="150.8" style="fill:#1C1F2B;" width="21.3" height="53.2"></rect>
			<rect x="509.4" y="30.8" style="fill:#1C1F2B;" width="21.3" height="53.2"></rect>
			<rect x="278.1" y="30.8" style="fill:#1C1F2B;" width="21.3" height="53.2"></rect>
			<rect x="379.4" y="240.8" style="fill:#1C1F2B;" width="21.3" height="53.2"></rect>
			<rect x="126.9" y="240.8" style="fill:#1C1F2B;" width="21.3" height="53.2"></rect>
			<g>
				<polygon style="fill:#1C1F2B;" points="23.1,103.4 44.4,103.4 44.4,114 58.5,114 58.5,103.4 79.8,103.4 79.8,60.8 23.1,60.8 
									"></polygon>
				<rect x="86.9" y="60.8" style="fill:#1C1F2B;" width="21.3" height="53.2"></rect>
			</g>
			<g>
				<polygon style="fill:#1C1F2B;" points="184.3,193.4 205.6,193.4 205.6,204 219.8,204 219.8,193.4 241,193.4 241,150.8 
					184.3,150.8 				"></polygon>
				<rect x="248.1" y="150.8" style="fill:#1C1F2B;" width="21.3" height="53.2"></rect>
			</g>
			<g>
				<polygon style="fill:#1C1F2B;" points="506.7,283.4 528,283.4 528,294 542.2,294 542.2,283.4 563.5,283.4 563.5,240.8 
					506.7,240.8 				"></polygon>
				<rect x="570.6" y="240.8" style="fill:#1C1F2B;" width="21.3" height="53.2"></rect>
			</g>
			<g>
				<polygon style="fill:#1C1F2B;" points="753.1,193.4 731.8,193.4 731.8,204 717.6,204 717.6,193.4 696.3,193.4 696.3,150.8 
					753.1,150.8 				"></polygon>
				<rect x="668" y="150.8" style="fill:#1C1F2B;" width="21.3" height="53.2"></rect>
			</g>
		</g>
		<g>
			<g>
				<rect x="23.1" y="60.8" style="fill:none;stroke:#757C97;stroke-miterlimit:10;" width="56.7" height="31.9"></rect>
				<rect x="23.1" y="92.8" style="fill:none;stroke:#757C97;stroke-miterlimit:10;" width="56.7" height="10.6"></rect>
				<rect x="86.9" y="60.8" style="fill:none;stroke:#757C97;stroke-miterlimit:10;" width="21.3" height="10.6"></rect>
				<rect x="86.9" y="71.5" style="fill:none;stroke:#757C97;stroke-miterlimit:10;" width="21.3" height="10.6"></rect>
				<rect x="44.4" y="103.4" style="fill:none;stroke:#757C97;stroke-miterlimit:10;" width="14.2" height="10.6"></rect>
				<line style="fill:none;stroke:#757C97;stroke-miterlimit:10;" x1="35.5" y1="114" x2="67.4" y2="114"></line>
				<circle style="fill:none;stroke:#757C97;stroke-miterlimit:10;" cx="51.5" cy="98.1" r="2.7"></circle>
				<circle style="fill:none;stroke:#757C97;stroke-miterlimit:10;" cx="97.6" cy="98.1" r="2.7"></circle>
				<circle style="fill:#1C1F2B;stroke:#757C97;stroke-miterlimit:10;" cx="97.6" cy="130" r="2.7"></circle>
				<rect x="86.9" y="60.8" style="fill:none;stroke:#757C97;stroke-miterlimit:10;" width="21.3" height="53.2"></rect>
				<line style="fill:none;stroke:#757C97;stroke-miterlimit:10;" x1="97.6" y1="127.3" x2="97.6" y2="114"></line>
			</g>
			<g>
				<rect x="184.3" y="150.8" style="fill:none;stroke:#757C97;stroke-miterlimit:10;" width="56.7" height="31.9"></rect>
				<rect x="184.3" y="182.8" style="fill:none;stroke:#757C97;stroke-miterlimit:10;" width="56.7" height="10.6"></rect>
				<rect x="248.1" y="150.8" style="fill:none;stroke:#757C97;stroke-miterlimit:10;" width="21.3" height="10.6"></rect>
				<rect x="248.1" y="161.5" style="fill:none;stroke:#757C97;stroke-miterlimit:10;" width="21.3" height="10.6"></rect>
				<rect x="205.6" y="193.4" style="fill:none;stroke:#757C97;stroke-miterlimit:10;" width="14.2" height="10.6"></rect>
				<line style="fill:none;stroke:#757C97;stroke-miterlimit:10;" x1="196.7" y1="204" x2="228.6" y2="204"></line>
				<circle style="fill:none;stroke:#757C97;stroke-miterlimit:10;" cx="212.7" cy="188.1" r="2.7"></circle>
				<circle style="fill:none;stroke:#757C97;stroke-miterlimit:10;" cx="258.8" cy="188.1" r="2.7"></circle>
				<circle style="fill:#1C1F2B;stroke:#757C97;stroke-miterlimit:10;" cx="258.8" cy="220" r="2.7"></circle>
				<rect x="248.1" y="150.8" style="fill:none;stroke:#757C97;stroke-miterlimit:10;" width="21.3" height="53.2"></rect>
				<line style="fill:none;stroke:#757C97;stroke-miterlimit:10;" x1="258.8" y1="217.3" x2="258.8" y2="204"></line>
			</g>
			<g>
				<rect x="696.3" y="150.8" style="fill:none;stroke:#757C97;stroke-miterlimit:10;" width="56.7" height="31.9"></rect>
				<rect x="696.3" y="182.8" style="fill:none;stroke:#757C97;stroke-miterlimit:10;" width="56.7" height="10.6"></rect>
				<rect x="668" y="150.8" style="fill:none;stroke:#757C97;stroke-miterlimit:10;" width="21.3" height="10.6"></rect>
				<rect x="668" y="161.5" style="fill:none;stroke:#757C97;stroke-miterlimit:10;" width="21.3" height="10.6"></rect>
				<rect x="717.6" y="193.4" style="fill:none;stroke:#757C97;stroke-miterlimit:10;" width="14.2" height="10.6"></rect>
				<line style="fill:none;stroke:#757C97;stroke-miterlimit:10;" x1="740.7" y1="204" x2="708.7" y2="204"></line>
				<circle style="fill:none;stroke:#757C97;stroke-miterlimit:10;" cx="724.7" cy="188.1" r="2.7"></circle>
				<circle style="fill:none;stroke:#757C97;stroke-miterlimit:10;" cx="678.6" cy="188.1" r="2.7"></circle>
				<circle style="fill:#1C1F2B;stroke:#757C97;stroke-miterlimit:10;" cx="678.6" cy="220" r="2.7"></circle>
				<rect x="668" y="150.8" style="fill:none;stroke:#757C97;stroke-miterlimit:10;" width="21.3" height="53.2"></rect>
				<line style="fill:none;stroke:#757C97;stroke-miterlimit:10;" x1="678.6" y1="217.3" x2="678.6" y2="204"></line>
			</g>
			<g>
				<rect x="506.7" y="240.8" style="fill:none;stroke:#757C97;stroke-miterlimit:10;" width="56.7" height="31.9"></rect>
				<rect x="506.7" y="272.8" style="fill:none;stroke:#757C97;stroke-miterlimit:10;" width="56.7" height="10.6"></rect>
				<rect x="570.6" y="240.8" style="fill:none;stroke:#757C97;stroke-miterlimit:10;" width="21.3" height="10.6"></rect>
				<rect x="570.6" y="251.5" style="fill:none;stroke:#757C97;stroke-miterlimit:10;" width="21.3" height="10.6"></rect>
				<rect x="528" y="283.4" style="fill:none;stroke:#757C97;stroke-miterlimit:10;" width="14.2" height="10.6"></rect>
				<line style="fill:none;stroke:#757C97;stroke-miterlimit:10;" x1="519.2" y1="294" x2="551.1" y2="294"></line>
				<circle style="fill:none;stroke:#757C97;stroke-miterlimit:10;" cx="535.1" cy="278.1" r="2.7"></circle>
				<circle style="fill:none;stroke:#757C97;stroke-miterlimit:10;" cx="581.2" cy="278.1" r="2.7"></circle>
				<circle style="fill:#1C1F2B;stroke:#757C97;stroke-miterlimit:10;" cx="581.2" cy="310" r="2.7"></circle>
				<rect x="570.6" y="240.8" style="fill:none;stroke:#757C97;stroke-miterlimit:10;" width="21.3" height="53.2"></rect>
				<line style="fill:none;stroke:#757C97;stroke-miterlimit:10;" x1="581.2" y1="307.3" x2="581.2" y2="294"></line>
			</g>
			<g>
				<rect x="460.6" y="150.8" style="fill:none;stroke:#B66F6F;stroke-miterlimit:10;" width="21.3" height="10.6"></rect>
				<rect x="460.6" y="161.5" style="fill:none;stroke:#B66F6F;stroke-miterlimit:10;" width="21.3" height="10.6"></rect>
				<circle style="fill:none;stroke:#B66F6F;stroke-miterlimit:10;" cx="471.2" cy="188.1" r="2.7"></circle>
				<circle style="fill:#1C1F2B;stroke:#B66F6F;stroke-miterlimit:10;" cx="471.2" cy="220" r="2.7"></circle>
				<rect x="460.6" y="150.8" style="fill:none;stroke:#B66F6F;stroke-miterlimit:10;" width="21.3" height="53.2"></rect>
				<line style="fill:none;stroke:#B66F6F;stroke-miterlimit:10;" x1="471.2" y1="217.3" x2="471.2" y2="204"></line>
			</g>
			<g>
				<rect x="509.4" y="30.8" style="fill:none;stroke:#B66F6F;stroke-miterlimit:10;" width="21.3" height="10.6"></rect>
				<rect x="509.4" y="41.5" style="fill:none;stroke:#B66F6F;stroke-miterlimit:10;" width="21.3" height="10.6"></rect>
				<circle style="fill:none;stroke:#B66F6F;stroke-miterlimit:10;" cx="520" cy="68.1" r="2.7"></circle>
				<circle style="fill:#1C1F2B;stroke:#B66F6F;stroke-miterlimit:10;" cx="520" cy="100" r="2.7"></circle>
				<rect x="509.4" y="30.8" style="fill:none;stroke:#B66F6F;stroke-miterlimit:10;" width="21.3" height="53.2"></rect>
				<line style="fill:none;stroke:#B66F6F;stroke-miterlimit:10;" x1="520" y1="97.3" x2="520" y2="84"></line>
			</g>
			<g>
				<rect x="278.1" y="30.8" style="fill:none;stroke:#B66F6F;stroke-miterlimit:10;" width="21.3" height="10.6"></rect>
				<rect x="278.1" y="41.5" style="fill:none;stroke:#B66F6F;stroke-miterlimit:10;" width="21.3" height="10.6"></rect>
				<circle style="fill:none;stroke:#B66F6F;stroke-miterlimit:10;" cx="288.8" cy="68.1" r="2.7"></circle>
				<circle style="fill:#1C1F2B;stroke:#B66F6F;stroke-miterlimit:10;" cx="288.8" cy="100" r="2.7"></circle>
				<rect x="278.1" y="30.8" style="fill:none;stroke:#B66F6F;stroke-miterlimit:10;" width="21.3" height="53.2"></rect>
				<line style="fill:none;stroke:#B66F6F;stroke-miterlimit:10;" x1="288.8" y1="97.3" x2="288.8" y2="84"></line>
			</g>
			<g>
				<rect x="126.9" y="240.8" style="fill:none;stroke:#B66F6F;stroke-miterlimit:10;" width="21.3" height="10.6"></rect>
				<rect x="126.9" y="251.5" style="fill:none;stroke:#B66F6F;stroke-miterlimit:10;" width="21.3" height="10.6"></rect>
				<circle style="fill:none;stroke:#B66F6F;stroke-miterlimit:10;" cx="137.6" cy="278.1" r="2.7"></circle>
				<circle style="fill:#1C1F2B;stroke:#B66F6F;stroke-miterlimit:10;" cx="137.6" cy="310" r="2.7"></circle>
				<rect x="126.9" y="240.8" style="fill:none;stroke:#B66F6F;stroke-miterlimit:10;" width="21.3" height="53.2"></rect>
				<line style="fill:none;stroke:#B66F6F;stroke-miterlimit:10;" x1="137.6" y1="307.3" x2="137.6" y2="294"></line>
			</g>
			<g>
				<rect x="379.4" y="240.8" style="fill:none;stroke:#B66F6F;stroke-miterlimit:10;" width="21.3" height="10.6"></rect>
				<rect x="379.4" y="251.5" style="fill:none;stroke:#B66F6F;stroke-miterlimit:10;" width="21.3" height="10.6"></rect>
				<circle style="fill:none;stroke:#B66F6F;stroke-miterlimit:10;" cx="390" cy="278.1" r="2.7"></circle>
				<circle style="fill:#1C1F2B;stroke:#B66F6F;stroke-miterlimit:10;" cx="390" cy="310" r="2.7"></circle>
				<rect x="379.4" y="240.8" style="fill:none;stroke:#B66F6F;stroke-miterlimit:10;" width="21.3" height="53.2"></rect>
				<line style="fill:none;stroke:#B66F6F;stroke-miterlimit:10;" x1="390" y1="307.3" x2="390" y2="294"></line>
			</g>
		</g>
		<polyline style="fill:none;stroke:#757C97;stroke-width:3;stroke-miterlimit:10;" points="384.1,154.7 393.6,158.2 390.1,167.7 		
			"></polyline>
		<polyline style="fill:none;stroke:#757C97;stroke-width:3;stroke-miterlimit:10;" points="578.5,227.1 571.3,220 578.5,212.9 		
			"></polyline>
		<polyline style="fill:none;stroke:#757C97;stroke-width:3;stroke-miterlimit:10;" points="766.2,122.3 776.3,122.3 776.3,132.4 		
			"></polyline>
		<polyline style="fill:none;stroke:#757C97;stroke-width:3;stroke-miterlimit:10;" points="641.7,263.9 631.6,263.9 631.6,253.8 		
			"></polyline>
		<polyline style="fill:none;stroke:#757C97;stroke-width:3;stroke-miterlimit:10;" points="207.3,267.1 197.3,265.5 198.9,255.5 		
			"></polyline>
		<polyline style="fill:none;stroke:#757C97;stroke-width:3;stroke-miterlimit:10;" points="265.9,302.8 258.8,310 251.6,302.9 		
			"></polyline>
		<polyline style="fill:none;stroke:#757C97;stroke-width:3;stroke-miterlimit:10;" points="271.8,138 280.4,132.8 285.6,141.5 		
			"></polyline>
	</g>
</g>
</svg>
