<?xml version="1.0"?>

<!-- Generator: Adobe Illustrator 19.1.0, SVG Export Plug-In . SVG Version: 6.00 Build 0)  -->
<svg version="1.1" id="Layer_1" xmlns="http://www.w3.org/2000/svg" xmlns:xlink="http://www.w3.org/1999/xlink" x="0px" y="0px" viewBox="0 0 800 350" style="enable-background:new 0 0 800 350;" xml:space="preserve" width="800" height="350">
<g>
	<g>
		<g>
			<path style="fill:#FFFFFF;" d="M577.8,81.7v92.2h9V90.7h46.6v83.2h9V90.7h46.6v83.2h9V81.7H577.8z M290.5,78.4
				c-13.2,0-25.6,5.1-34.9,14.5c-9.3,9.3-14.5,21.8-14.5,35c0,13.2,5.1,25.6,14.5,35c9.3,9.3,21.7,14.5,34.9,14.5
				c13.2,0,25.6-5.1,34.9-14.5c9.3-9.3,14.5-21.8,14.5-35c0-13.2-5.1-25.6-14.5-35C316.1,83.5,303.7,78.4,290.5,78.4z M319.1,156.4
				c-7.6,7.6-17.8,11.9-28.6,11.9c-10.8,0-20.9-4.2-28.6-11.9c-7.6-7.6-11.8-17.8-11.8-28.6c0-10.8,4.2-21,11.8-28.6
				c7.6-7.6,17.8-11.9,28.6-11.9c10.8,0,20.9,4.2,28.6,11.9c7.6,7.6,11.8,17.8,11.8,28.6C330.9,138.6,326.7,148.8,319.1,156.4z
				 M523,92.8c-9.3-9.3-21.7-14.5-34.9-14.5c-13.2,0-25.6,5.1-34.9,14.5c-9.3,9.3-14.5,21.8-14.5,35c0,13.2,5.1,25.6,14.5,35
				c9.3,9.3,21.7,14.5,34.9,14.5s25.6-5.1,34.9-14.5l-6.3-6.4c-7.6,7.6-17.8,11.9-28.6,11.9c-10.8,0-20.9-4.2-28.6-11.9
				c-7.6-7.6-11.8-17.8-11.8-28.6h89.8C537.4,114.6,532.3,102.2,523,92.8z M459.5,99.2c7.6-7.6,17.8-11.9,28.6-11.9
				c10.8,0,20.9,4.2,28.6,11.9c5.5,5.5,9.1,12.3,10.8,19.6h-78.7C450.3,111.4,454,104.7,459.5,99.2z M211.7,61l-28.7,28.8
				c-8.9-7.4-19.9-11.5-31.6-11.5c-13.2,0-25.6,5.1-34.9,14.5c-9.3,9.3-14.5,21.8-14.5,35c0,13.2,5.1,25.6,14.5,35
				c8.3,8.3,18.9,13.2,30.4,14.3v36.4c-11.5,1-22.2,6-30.4,14.3c-9.3,9.3-14.5,21.8-14.5,35c0,13.2,5.1,25.6,14.5,35
				c9.3,9.3,21.7,14.5,34.9,14.5c13.2,0,25.6-5.1,34.9-14.5c9.3-9.3,14.5-21.8,14.5-35c0-13.2-5.1-25.6-14.5-35
				c-8.3-8.3-18.9-13.2-30.4-14.3V177c11.5-1,22.2-6,30.4-14.3c9.3-9.3,14.5-21.8,14.5-35c0-11.7-4-22.8-11.4-31.6L218,67.4
				L211.7,61z M179.9,234c7.6,7.6,11.8,17.8,11.8,28.6c0,10.8-4.2,21-11.8,28.6c-7.6,7.6-17.8,11.9-28.6,11.9
				c-10.8,0-20.9-4.2-28.6-11.9c-7.6-7.6-11.8-17.8-11.8-28.6c0-10.8,4.2-21,11.8-28.6c7.6-7.6,17.8-11.8,28.6-11.8
				S172.3,226.4,179.9,234z M191.8,127.8c0,10.8-4.2,21-11.8,28.6c-7.6,7.6-17.8,11.9-28.6,11.9c-10.8,0-20.9-4.2-28.6-11.9
				c-7.6-7.6-11.8-17.8-11.8-28.6c0-10.8,4.2-21,11.8-28.6c7.6-7.6,17.8-11.9,28.6-11.9c10.8,0,20.9,4.2,28.6,11.9
				C187.6,106.8,191.8,117,191.8,127.8z M384.8,172.8h9V37.9h-9V172.8z"></path>
		</g>
	</g>
</g>
</svg>
