<?xml version="1.0"?>

<!-- Generator: Adobe Illustrator 19.1.0, SVG Export Plug-In . SVG Version: 6.00 Build 0)  -->
<svg version="1.1" id="Layer_1" xmlns="http://www.w3.org/2000/svg" xmlns:xlink="http://www.w3.org/1999/xlink" x="0px" y="0px" viewBox="0 0 400 490" style="enable-background:new 0 0 400 490;" xml:space="preserve" width="400" height="490">
<g>
	<rect style="fill:#1C1F2B;" width="400" height="490"></rect>
</g>
<g>
	<linearGradient id="SVGID_1_" gradientUnits="userSpaceOnUse" x1="135.6665" y1="301.5" x2="372" y2="301.5">
		<stop offset="0.5" style="stop-color:#757C97"></stop>
		<stop offset="1" style="stop-color:#B66F6F"></stop>
	</linearGradient>
	<polygon style="fill:url(#SVGID_1_);" points="372,476 135.7,476 135.7,127 136.7,127 136.7,475 372,475 	"></polygon>
</g>
<g>
	<linearGradient id="SVGID_2_" gradientUnits="userSpaceOnUse" x1="136.1665" y1="127" x2="372" y2="127">
		<stop offset="0.5" style="stop-color:#757C97"></stop>
		<stop offset="1" style="stop-color:#B66F6F"></stop>
	</linearGradient>
	<rect x="136.2" y="126.5" style="fill:url(#SVGID_2_);" width="235.8" height="1"></rect>
</g>
<g>
	<circle style="fill:#1C1F2B;" cx="372" cy="127" r="4.5"></circle>
	<path style="fill:#B66F6F;" d="M372,132c-2.8,0-5-2.2-5-5s2.2-5,5-5s5,2.2,5,5S374.8,132,372,132z M372,123c-2.2,0-4,1.8-4,4
		s1.8,4,4,4s4-1.8,4-4S374.2,123,372,123z"></path>
</g>
<g>
	<circle style="fill:#1C1F2B;" cx="372" cy="475.5" r="4.5"></circle>
	<path style="fill:#B66F6F;" d="M372,480.5c-2.8,0-5-2.2-5-5s2.2-5,5-5s5,2.2,5,5S374.8,480.5,372,480.5z M372,471.5
		c-2.2,0-4,1.8-4,4s1.8,4,4,4s4-1.8,4-4S374.2,471.5,372,471.5z"></path>
</g>
<g>
	<circle style="fill:#1C1F2B;" cx="136.2" cy="127" r="4.5"></circle>
	<path style="fill:#757C97;" d="M136.2,132c-2.8,0-5-2.2-5-5s2.2-5,5-5s5,2.2,5,5S138.9,132,136.2,132z M136.2,123c-2.2,0-4,1.8-4,4
		s1.8,4,4,4s4-1.8,4-4S138.4,123,136.2,123z"></path>
</g>
<g>
	<path style="fill:#757C97;" d="M9.7,63.5v1v18h36v17H31.2v1h14.5h25h14.5v-1H70.7v-17h36v-18v-1v-54h-97V63.5z M69.7,99.5h-23v-17
		h23V99.5z M105.7,81.5h-35h-25h-35v-17h95V81.5z M10.7,10.5h95v53h-95V10.5z"></path>
	<path style="fill:#757C97;" d="M58.2,78c2.8,0,5-2.2,5-5s-2.2-5-5-5s-5,2.2-5,5S55.4,78,58.2,78z M58.2,69c2.2,0,4,1.8,4,4
		s-1.8,4-4,4s-4-1.8-4-4S56,69,58.2,69z"></path>
	<path style="fill:#757C97;" d="M136.2,78c2.8,0,5-2.2,5-5s-2.2-5-5-5s-5,2.2-5,5S133.4,78,136.2,78z M136.2,69c2.2,0,4,1.8,4,4
		s-1.8,4-4,4s-4-1.8-4-4S134,69,136.2,69z"></path>
	<path style="fill:#757C97;" d="M117.7,9.5v18v1v18v54h18v22h1v-22h18v-54v-18v-1v-18H117.7z M153.7,99.5h-35v-53h35V99.5z
		 M153.7,45.5h-35v-17h35V45.5z M118.7,27.5v-17h35v17H118.7z"></path>
</g>
<g>
	<linearGradient id="SVGID_3_" gradientUnits="userSpaceOnUse" x1="136.1665" y1="301.25" x2="372" y2="301.25">
		<stop offset="0.5" style="stop-color:#757C97"></stop>
		<stop offset="1" style="stop-color:#B66F6F"></stop>
	</linearGradient>
	<rect x="136.2" y="300.8" style="fill:url(#SVGID_3_);" width="235.8" height="1"></rect>
</g>
<g>
	<circle style="fill:#1C1F2B;" cx="372" cy="301.2" r="4.5"></circle>
	<path style="fill:#B66F6F;" d="M372,306.2c-2.8,0-5-2.2-5-5s2.2-5,5-5s5,2.2,5,5S374.8,306.2,372,306.2z M372,297.2
		c-2.2,0-4,1.8-4,4s1.8,4,4,4s4-1.8,4-4S374.2,297.2,372,297.2z"></path>
</g>
<g>
	<path style="fill:#B66F6F;" d="M372,78c2.8,0,5-2.2,5-5s-2.2-5-5-5s-5,2.2-5,5S369.2,78,372,78z M372,69c2.2,0,4,1.8,4,4
		s-1.8,4-4,4s-4-1.8-4-4S369.8,69,372,69z"></path>
	<path style="fill:#B66F6F;" d="M353.5,9.5v18v1v18v54h18v22h1v-22h18v-54v-18v-1v-18H353.5z M389.5,99.5h-35v-53h35V99.5z
		 M389.5,45.5h-35v-17h35V45.5z M354.5,27.5v-17h35v17H354.5z"></path>
	<path style="fill:#B66F6F;" d="M372,426.5c2.8,0,5-2.2,5-5s-2.2-5-5-5s-5,2.2-5,5S369.2,426.5,372,426.5z M372,417.5
		c2.2,0,4,1.8,4,4s-1.8,4-4,4s-4-1.8-4-4S369.8,417.5,372,417.5z"></path>
	<path style="fill:#B66F6F;" d="M353.5,376v1v18v54h18v22h1v-22h18v-54v-18v-1v-18h-37V376z M389.5,448h-35v-53h35V448z M389.5,394
		h-35v-17h35V394z M354.5,359h35v17h-35V359z"></path>
	<path style="fill:#B66F6F;" d="M372,252.2c2.8,0,5-2.2,5-5s-2.2-5-5-5s-5,2.2-5,5S369.2,252.2,372,252.2z M372,243.2
		c2.2,0,4,1.8,4,4c0,2.2-1.8,4-4,4s-4-1.8-4-4C368,245,369.8,243.2,372,243.2z"></path>
	<path style="fill:#B66F6F;" d="M353.5,201.8v1v18v54h18v22h1v-22h18v-54v-18v-1v-18h-37V201.8z M389.5,273.8h-35v-53h35V273.8z
		 M389.5,219.8h-35v-17h35V219.8z M354.5,184.8h35v17h-35V184.8z"></path>
</g>
<g>
	<polygon style="fill:#757C97;" points="251.4,133.5 250.7,132.8 256.5,127 250.7,121.2 251.4,120.5 257.9,127 	"></polygon>
</g>
<g>
	<polygon style="fill:#757C97;" points="251.4,307.7 250.7,307 256.5,301.2 250.7,295.5 251.4,294.8 257.9,301.2 	"></polygon>
</g>
<g>
	<polygon style="fill:#757C97;" points="251.4,482 250.7,481.3 256.5,475.5 250.7,469.7 251.4,469 257.9,475.5 	"></polygon>
</g>
<g>
	<path style="fill:#757C97;" d="M185.8,67.4h-3.4V66h8.2v1.3h-3.4v11.3h-1.5V67.4z"></path>
	<path style="fill:#757C97;" d="M196.9,74.5l-1.5,4.1h-1.5l4.7-12.6h1.5l4.7,12.6h-1.5l-1.5-4.1H196.9z M199.4,67.6l-2,5.7h4.1
		L199.4,67.6z"></path>
	<path style="fill:#757C97;" d="M210.5,75.6c0.3,1,1.1,2,2.8,2c1.3,0,2.3-0.8,2.3-2.1c0-3.2-5.9-2.3-5.9-6.4c0-1.8,1.4-3.2,3.6-3.2
		c2.2,0,3.3,1.6,3.6,2.4l-1.2,0.5c-0.3-0.6-1-1.6-2.4-1.6s-2.1,0.8-2.1,1.9c0,2.9,5.9,2.3,5.9,6.3c0,2-1.5,3.5-3.8,3.5
		c-2.4,0-3.5-1.6-3.9-2.8L210.5,75.6z"></path>
	<path style="fill:#757C97;" d="M222.8,66h1.5v5.8l5-5.8h1.8l-5.3,6l5.5,6.6h-1.8l-5.2-6.3v6.3h-1.5V66z"></path>
	<path style="fill:#757C97;" d="M183.4,87.6h2.6c4.3,0,6.8,2.4,6.8,6.3c0,4.2-2.5,6.3-6.8,6.3h-2.6V87.6z M186.3,98.9c3,0,5-1.7,5-5
		c0-3.2-1.9-5-5-5h-1.4v10H186.3z"></path>
	<path style="fill:#757C97;" d="M198.5,87.6h6V89h-4.5v4.2h3.9v1.3h-3.9v4.4h4.7v1.3h-6.2V87.6z"></path>
	<path style="fill:#757C97;" d="M211,97.2c0.3,1,1.1,2,2.8,2c1.3,0,2.3-0.8,2.3-2.1c0-3.2-5.9-2.3-5.9-6.4c0-1.8,1.4-3.2,3.6-3.2
		c2.2,0,3.3,1.6,3.6,2.4l-1.2,0.5c-0.3-0.6-1-1.6-2.4-1.6s-2.1,0.8-2.1,1.9c0,2.9,5.9,2.3,5.9,6.3c0,2-1.5,3.5-3.8,3.5
		c-2.4,0-3.5-1.6-3.9-2.8L211,97.2z"></path>
	<path style="fill:#757C97;" d="M233,99c-0.5,0.4-1.9,1.4-4.1,1.4c-3.7,0-6.4-2.8-6.4-6.5c0-3.7,2.8-6.5,6.4-6.5
		c1.9,0,3.2,0.8,3.9,1.3l-0.5,1.3c-0.5-0.4-1.7-1.2-3.4-1.2c-2.8,0-4.9,2.2-4.9,5.2c0,2.9,2,5.2,4.9,5.2c1.9,0,3.2-1,3.6-1.4L233,99
		z"></path>
	<path style="fill:#757C97;" d="M238.7,87.6h3.2c2.6,0,3.9,1.3,3.9,3.5c0,1.5-0.7,2.9-2.2,3.3l3.1,5.8h-1.6l-2.8-5.5h-2.1v5.5h-1.5
		V87.6z M241.9,93.5c1.5,0,2.4-0.7,2.4-2.3c0-1.3-0.7-2.2-2.5-2.2h-1.7v4.6H241.9z"></path>
	<path style="fill:#757C97;" d="M252.2,87.6h1.5v12.6h-1.5V87.6z"></path>
	<path style="fill:#757C97;" d="M260.1,87.6h3.5c2.3,0,3.8,1.4,3.8,3.6c0,2.3-1.5,3.7-3.8,3.7h-2v5.3h-1.5V87.6z M263.4,93.7
		c1.5,0,2.4-0.9,2.4-2.4c0-1.4-0.9-2.3-2.4-2.3h-1.9v4.7H263.4z"></path>
	<path style="fill:#757C97;" d="M275.2,89h-3.4v-1.3h8.2V89h-3.4v11.3h-1.5V89z"></path>
	<path style="fill:#757C97;" d="M285.6,87.6h1.5v12.6h-1.5V87.6z"></path>
	<path style="fill:#757C97;" d="M299.2,87.4c3.7,0,6.4,2.9,6.4,6.5c0,3.7-2.8,6.5-6.4,6.5c-3.7,0-6.4-2.8-6.4-6.5
		C292.8,90.2,295.5,87.4,299.2,87.4z M299.2,99.1c2.8,0,4.9-2.2,4.9-5.2c0-3-2.1-5.2-4.9-5.2s-4.9,2.2-4.9,5.2
		C294.3,96.9,296.4,99.1,299.2,99.1z"></path>
	<path style="fill:#757C97;" d="M311.3,87.6h1.5l6.9,10.3V87.6h1.4v12.6h-1.4L312.8,90v10.3h-1.5V87.6z"></path>
</g>
</svg>
