<?xml version="1.0"?>

<!-- Generator: Adobe Illustrator 19.1.0, SVG Export Plug-In . SVG Version: 6.00 Build 0)  -->
<svg version="1.1" id="Layer_1" xmlns="http://www.w3.org/2000/svg" xmlns:xlink="http://www.w3.org/1999/xlink" x="0px" y="0px" viewBox="0 0 400 490" style="enable-background:new 0 0 400 490;" xml:space="preserve" width="400" height="490">
<linearGradient id="SVGID_1_" gradientUnits="userSpaceOnUse" x1="304.2557" y1="461.5" x2="304.2557" y2="65.04">
	<stop offset="0" style="stop-color:#B66F6F;stop-opacity:0"></stop>
	<stop offset="1" style="stop-color:#B66F6F"></stop>
</linearGradient>
<polygon style="fill:url(#SVGID_1_);" points="269.3,65 269.3,92.7 269.3,461.5 339.2,461.5 339.2,92.7 339.2,65 "></polygon>
<g>
	<linearGradient id="SVGID_2_" gradientUnits="userSpaceOnUse" x1="51" y1="0.5" x2="400" y2="0.5">
		<stop offset="0" style="stop-color:#B66F6F;stop-opacity:0"></stop>
		<stop offset="1" style="stop-color:#B66F6F"></stop>
	</linearGradient>
	<rect x="51" style="fill:url(#SVGID_2_);" width="349" height="1"></rect>
	<g>
		<path style="fill:#B66F6F;" d="M66.1,18.1c0-1.5-1-2.8-2.6-2.8c-1,0-1.6,0.4-2.1,0.8l-1.2-0.2l0.3-6.5h6.4v1.3h-5.1l-0.2,3.9
			c0.6-0.4,1.3-0.6,2.1-0.6c2.3,0,3.9,1.7,3.9,4c0,2.4-1.6,4.2-3.9,4.2c-2.4,0-3.6-1.5-4-2.8L61,19c0.3,1,1.1,1.9,2.7,1.9
			C65.2,20.9,66.1,19.6,66.1,18.1z"></path>
		<path style="fill:#B66F6F;" d="M77,22.2c-3.2,0-4.1-2.4-4.1-6.5c0-4.1,0.9-6.5,4.1-6.5c3.2,0,4.1,2.4,4.1,6.5
			C81.1,19.8,80.2,22.2,77,22.2z M77,20.9c2.4,0,2.6-2.2,2.6-5.2c0-3-0.2-5.2-2.6-5.2c-2.4,0-2.6,2.2-2.6,5.2
			C74.4,18.7,74.6,20.9,77,20.9z"></path>
	</g>
</g>
<g>
	<linearGradient id="SVGID_3_" gradientUnits="userSpaceOnUse" x1="51" y1="92.7" x2="400" y2="92.7">
		<stop offset="0" style="stop-color:#B66F6F;stop-opacity:0"></stop>
		<stop offset="1" style="stop-color:#B66F6F"></stop>
	</linearGradient>
	<rect x="51" y="92.2" style="fill:url(#SVGID_3_);" width="349" height="1"></rect>
	<g>
		<path style="fill:#B66F6F;" d="M59.6,109.9l5.7-8.3h1.5v8.1h1.7v1.3h-1.7v3.2h-1.4V111h-5.9V109.9z M65.4,109.7v-6.2l-4.2,6.2
			H65.4z"></path>
		<path style="fill:#B66F6F;" d="M77.7,114.4c-3.2,0-4.1-2.4-4.1-6.5c0-4.1,0.9-6.5,4.1-6.5s4.1,2.4,4.1,6.5
			C81.7,112,80.8,114.4,77.7,114.4z M77.7,113.1c2.4,0,2.6-2.2,2.6-5.2c0-3-0.2-5.2-2.6-5.2c-2.4,0-2.6,2.2-2.6,5.2
			C75.1,110.9,75.3,113.1,77.7,113.1z"></path>
	</g>
</g>
<g>
	<linearGradient id="SVGID_4_" gradientUnits="userSpaceOnUse" x1="51" y1="184.9" x2="400" y2="184.9">
		<stop offset="0" style="stop-color:#B66F6F;stop-opacity:0"></stop>
		<stop offset="1" style="stop-color:#B66F6F"></stop>
	</linearGradient>
	<rect x="51" y="184.4" style="fill:url(#SVGID_4_);" width="349" height="1"></rect>
	<g>
		<path style="fill:#B66F6F;" d="M67.2,195.2l-3.3,3.9c1.6,0,3.7,1.1,3.7,3.7c0,2.2-1.7,3.9-4,3.9c-2.5,0-3.6-1.5-3.9-2.7l1.2-0.5
			c0.3,1,1.1,1.9,2.7,1.9c1.4,0,2.5-1,2.5-2.5c0-1.4-1-2.5-3-2.5h-1v-1.2l3.3-4h-5.4v-1.3h7.1V195.2z"></path>
		<path style="fill:#B66F6F;" d="M77,206.6c-3.2,0-4.1-2.4-4.1-6.5c0-4.1,0.9-6.5,4.1-6.5c3.2,0,4.1,2.4,4.1,6.5
			C81.1,204.2,80.2,206.6,77,206.6z M77,205.3c2.4,0,2.6-2.2,2.6-5.2c0-3-0.2-5.2-2.6-5.2c-2.4,0-2.6,2.2-2.6,5.2
			C74.4,203.1,74.7,205.3,77,205.3z"></path>
	</g>
</g>
<g>
	<linearGradient id="SVGID_5_" gradientUnits="userSpaceOnUse" x1="51" y1="277.1" x2="400" y2="277.1">
		<stop offset="0" style="stop-color:#B66F6F;stop-opacity:0"></stop>
		<stop offset="1" style="stop-color:#B66F6F"></stop>
	</linearGradient>
	<rect x="51" y="276.6" style="fill:url(#SVGID_5_);" width="349" height="1"></rect>
	<g>
		<path style="fill:#B66F6F;" d="M59.8,298.1c0-3.5,6-5.5,6-8.7c0-1.3-0.8-2.2-2.3-2.2c-1.4,0-2.1,0.9-2.4,1.9l-1.3-0.4
			c0.2-1,1.2-3,3.7-3c2.4,0,3.7,1.5,3.7,3.6c0,3.7-5.6,5.8-5.8,8h6v1.3h-7.7V298.1z"></path>
		<path style="fill:#B66F6F;" d="M76.8,298.8c-3.2,0-4.1-2.4-4.1-6.5c0-4.1,0.9-6.5,4.1-6.5s4.1,2.4,4.1,6.5
			C80.8,296.4,79.9,298.8,76.8,298.8z M76.8,297.5c2.4,0,2.6-2.2,2.6-5.2c0-3-0.2-5.2-2.6-5.2c-2.4,0-2.6,2.2-2.6,5.2
			C74.2,295.3,74.4,297.5,76.8,297.5z"></path>
	</g>
</g>
<g>
	<linearGradient id="SVGID_6_" gradientUnits="userSpaceOnUse" x1="51" y1="369.3" x2="400" y2="369.3">
		<stop offset="0" style="stop-color:#B66F6F;stop-opacity:0"></stop>
		<stop offset="1" style="stop-color:#B66F6F"></stop>
	</linearGradient>
	<rect x="51" y="368.8" style="fill:url(#SVGID_6_);" width="349" height="1"></rect>
	<g>
		<path style="fill:#B66F6F;" d="M59.7,379.1l2.2-0.9h1.2v12.6h-1.5v-11.1l-1.5,0.6L59.7,379.1z"></path>
		<path style="fill:#B66F6F;" d="M73.2,391c-3.2,0-4.1-2.4-4.1-6.5c0-4.1,0.9-6.5,4.1-6.5s4.1,2.4,4.1,6.5
			C77.3,388.6,76.3,391,73.2,391z M73.2,389.7c2.4,0,2.6-2.2,2.6-5.2c0-3-0.2-5.2-2.6-5.2c-2.4,0-2.6,2.2-2.6,5.2
			C70.6,387.5,70.8,389.7,73.2,389.7z"></path>
	</g>
</g>
<g>
	<path style="fill:#B66F6F;" d="M280.6,489.2c0-3.5,6-5.5,6-8.7c0-1.3-0.8-2.2-2.3-2.2c-1.4,0-2.1,0.9-2.4,1.9l-1.3-0.4
		c0.2-1,1.2-3,3.7-3c2.4,0,3.7,1.5,3.7,3.6c0,3.7-5.6,5.8-5.8,8h6v1.3h-7.7V489.2z"></path>
	<path style="fill:#B66F6F;" d="M297.5,490c-3.2,0-4.1-2.4-4.1-6.5c0-4.1,0.9-6.5,4.1-6.5c3.2,0,4.1,2.4,4.1,6.5
		C301.6,487.6,300.7,490,297.5,490z M297.5,488.6c2.4,0,2.6-2.2,2.6-5.2c0-3-0.2-5.2-2.6-5.2s-2.6,2.2-2.6,5.2
		C294.9,486.4,295.2,488.6,297.5,488.6z"></path>
	<path style="fill:#B66F6F;" d="M306.9,489.2c0-3.5,6-5.5,6-8.7c0-1.3-0.8-2.2-2.3-2.2c-1.4,0-2.1,0.9-2.4,1.9l-1.3-0.4
		c0.2-1,1.2-3,3.7-3c2.4,0,3.7,1.5,3.7,3.6c0,3.7-5.6,5.8-5.8,8h6v1.3h-7.7V489.2z"></path>
	<path style="fill:#B66F6F;" d="M323.9,490c-3.2,0-4.1-2.4-4.1-6.5c0-4.1,0.9-6.5,4.1-6.5c3.2,0,4.1,2.4,4.1,6.5
		C328,487.6,327,490,323.9,490z M323.9,488.6c2.4,0,2.6-2.2,2.6-5.2c0-3-0.2-5.2-2.6-5.2s-2.6,2.2-2.6,5.2
		C321.3,486.4,321.5,488.6,323.9,488.6z"></path>
</g>
<path style="fill:#B66F6F;" d="M338.2,66v26.7v367.8h-67.8V92.7V66H338.2 M339.2,65h-69.8v27.7v368.8h69.8V92.7V65L339.2,65z"></path>
<g>
	<g>
		<path style="fill:#B66F6F;" d="M156.4,489.2c0-3.5,6-5.5,6-8.7c0-1.3-0.8-2.2-2.3-2.2c-1.4,0-2.1,0.9-2.4,1.9l-1.3-0.4
			c0.2-1,1.2-3,3.7-3c2.4,0,3.7,1.5,3.7,3.6c0,3.7-5.6,5.8-5.8,8h6v1.3h-7.7V489.2z"></path>
		<path style="fill:#B66F6F;" d="M173.4,490c-3.2,0-4.1-2.4-4.1-6.5c0-4.1,0.9-6.5,4.1-6.5s4.1,2.4,4.1,6.5
			C177.4,487.6,176.5,490,173.4,490z M173.4,488.6c2.4,0,2.6-2.2,2.6-5.2c0-3-0.2-5.2-2.6-5.2c-2.4,0-2.6,2.2-2.6,5.2
			C170.8,486.4,171,488.6,173.4,488.6z"></path>
		<path style="fill:#B66F6F;" d="M182.7,478l2.2-0.9h1.2v12.6h-1.5v-11.1l-1.5,0.6L182.7,478z"></path>
		<path style="fill:#B66F6F;" d="M191.7,485.5l5.7-8.3h1.5v8.1h1.7v1.3H199v3.2h-1.4v-3.2h-5.9V485.5z M197.6,485.3v-6.2l-4.2,6.2
			H197.6z"></path>
	</g>
	<linearGradient id="SVGID_7_" gradientUnits="userSpaceOnUse" x1="178.5355" y1="461.5" x2="178.5355" y2="332.42">
		<stop offset="0" style="stop-color:#757C97;stop-opacity:0"></stop>
		<stop offset="1" style="stop-color:#757C97"></stop>
	</linearGradient>
	<polygon style="fill:url(#SVGID_7_);" points="143.6,332.4 143.6,369.3 143.6,461.5 213.4,461.5 213.4,369.3 213.4,332.4 	"></polygon>
	<path style="fill:#757C97;" d="M212.4,333.4v35.9v91.2h-67.8v-91.2v-35.9H212.4 M213.4,332.4h-69.8v36.9v92.2h69.8v-92.2V332.4
		L213.4,332.4z"></path>
</g>
<g>
	<path style="fill:#757C97;" d="M151.8,103l-3.3,3.9c1.6,0,3.7,1.1,3.7,3.7c0,2.2-1.7,3.9-4,3.9c-2.5,0-3.6-1.5-3.9-2.7l1.2-0.5
		c0.3,1,1.1,1.9,2.7,1.9c1.4,0,2.5-1,2.5-2.5c0-1.4-1-2.5-3-2.5h-1v-1.2l3.3-4h-5.4v-1.3h7.1V103z"></path>
	<path style="fill:#757C97;" d="M161.7,114.4c-3.2,0-4.1-2.4-4.1-6.5c0-4.1,0.9-6.5,4.1-6.5c3.2,0,4.1,2.4,4.1,6.5
		C165.7,112,164.8,114.4,161.7,114.4z M161.7,113.1c2.4,0,2.6-2.2,2.6-5.2c0-3-0.2-5.2-2.6-5.2c-2.4,0-2.6,2.2-2.6,5.2
		C159.1,110.9,159.3,113.1,161.7,113.1z"></path>
	<path style="fill:#757C97;" d="M171,104.1c0-1.5,1.2-2.8,2.8-2.8c1.7,0,2.8,1.2,2.8,2.8c0,1.5-1.2,2.7-2.8,2.7
		C172.1,106.9,171,105.7,171,104.1z M181.1,101.6h1.5l-9.6,12.6h-1.5L181.1,101.6z M175.3,104.1c0-0.9-0.6-1.7-1.6-1.7
		c-0.9,0-1.6,0.7-1.6,1.7c0,0.9,0.6,1.6,1.6,1.6C174.7,105.8,175.3,105,175.3,104.1z M180.3,108.9c1.6,0,2.8,1.2,2.8,2.8
		c0,1.5-1.2,2.7-2.8,2.7s-2.8-1.2-2.8-2.7C177.5,110.2,178.7,108.9,180.3,108.9z M180.3,113.3c1,0,1.6-0.7,1.6-1.6
		c0-0.9-0.6-1.6-1.6-1.6c-0.9,0-1.6,0.7-1.6,1.6C178.7,112.6,179.4,113.3,180.3,113.3z"></path>
	<path style="fill:#757C97;" d="M146.8,131.7l-1.5,4.1h-1.5l4.7-12.6h1.5l4.7,12.6h-1.5l-1.5-4.1H146.8z M149.3,124.8l-2,5.7h4.1
		L149.3,124.8z"></path>
	<path style="fill:#757C97;" d="M160,123.2h1.5l7,10.3v-10.3h1.4v12.6h-1.4l-7-10.3v10.3H160V123.2z"></path>
	<path style="fill:#757C97;" d="M176.3,123.2h1.5l7,10.3v-10.3h1.4v12.6h-1.4l-7-10.3v10.3h-1.5V123.2z"></path>
	<path style="fill:#757C97;" d="M192.5,131.3v-8.1h1.5v8.1c0,2.1,1.1,3.4,3.2,3.4s3.3-1.3,3.3-3.4v-8h1.4v8.1c0,2.8-1.7,4.8-4.7,4.8
		C194.2,136,192.5,134.1,192.5,131.3z"></path>
	<path style="fill:#757C97;" d="M209.7,131.7l-1.5,4.1h-1.5l4.7-12.6h1.5l4.7,12.6h-1.5l-1.5-4.1H209.7z M212.1,124.8l-2,5.7h4.1
		L212.1,124.8z"></path>
	<path style="fill:#757C97;" d="M222.8,123.2h1.5v11.3h4.7v1.3h-6.2V123.2z"></path>
	<path style="fill:#757C97;" d="M145,144.8h1.5v12.6H145V144.8z"></path>
	<path style="fill:#757C97;" d="M152.9,144.8h1.5l7,10.3v-10.3h1.4v12.6h-1.4l-7-10.3v10.3h-1.5V144.8z"></path>
	<path style="fill:#757C97;" d="M179,156.2c-0.5,0.4-1.9,1.4-4.1,1.4c-3.7,0-6.4-2.8-6.4-6.5c0-3.7,2.8-6.5,6.4-6.5
		c1.9,0,3.2,0.8,3.9,1.3l-0.5,1.3c-0.5-0.4-1.7-1.2-3.4-1.2c-2.8,0-4.9,2.2-4.9,5.2c0,2.9,2,5.2,4.9,5.2c1.9,0,3.2-1,3.6-1.4
		L179,156.2z"></path>
	<path style="fill:#757C97;" d="M184.6,144.8h3.2c2.6,0,3.9,1.3,3.9,3.5c0,1.5-0.7,2.9-2.2,3.3l3.1,5.8h-1.6l-2.8-5.5h-2.1v5.5h-1.5
		V144.8z M187.8,150.6c1.5,0,2.4-0.7,2.4-2.3c0-1.3-0.7-2.2-2.5-2.2h-1.7v4.6H187.8z"></path>
	<path style="fill:#757C97;" d="M198.1,144.8h6v1.3h-4.5v4.2h3.9v1.3h-3.9v4.4h4.7v1.3h-6.2V144.8z"></path>
	<path style="fill:#757C97;" d="M212,153.3l-1.5,4.1H209l4.7-12.6h1.5l4.7,12.6h-1.5l-1.5-4.1H212z M214.5,146.4l-2,5.7h4.1
		L214.5,146.4z"></path>
	<path style="fill:#757C97;" d="M225.6,154.3c0.3,1,1.1,2,2.8,2c1.3,0,2.3-0.8,2.3-2.1c0-3.2-5.9-2.3-5.9-6.4c0-1.8,1.4-3.2,3.6-3.2
		c2.3,0,3.3,1.6,3.6,2.4l-1.2,0.5c-0.3-0.6-1-1.6-2.4-1.6c-1.4,0-2.1,0.8-2.1,1.9c0,2.9,5.9,2.3,5.9,6.3c0,2-1.5,3.5-3.8,3.5
		c-2.4,0-3.5-1.6-3.9-2.8L225.6,154.3z"></path>
	<path style="fill:#757C97;" d="M237.9,144.8h6v1.3h-4.5v4.2h3.9v1.3h-3.9v4.4h4.7v1.3h-6.2V144.8z"></path>
</g>
<g>
	<g>
		<path style="fill:#B66F6F;" d="M10.7,276.6c1-0.3,2-1.1,2-2.8c0-1.3-0.8-2.3-2.1-2.3c-3.2,0-2.3,5.9-6.4,5.9c-1.6,0-3-1.1-3.2-3H0
			v-1.1h1c0.2-1.9,1.6-2.7,2.4-3l0.5,1.2c-0.6,0.3-1.6,1-1.6,2.4c0,1.4,0.8,2.1,1.9,2.1c2.9,0,2.3-5.9,6.3-5.9
			c1.8,0,3.3,1.2,3.5,3.2h1.4v1.1H14c-0.2,2.1-1.6,3.1-2.7,3.4L10.7,276.6z"></path>
		<path style="fill:#B66F6F;" d="M1.2,264.4v-3.5c0-2.4,1.2-3.7,3.2-3.7c1.3,0,2.2,0.6,2.8,1.6c0.4-1.2,1.5-2.1,3-2.1
			c2.3,0,3.6,1.6,3.6,3.8v3.9H1.2z M6.6,260.7c0-1.3-0.8-2.1-2.1-2.1c-1.2,0-2,0.7-2,2.1v2.2h4.2V260.7z M12.5,260.8
			c0-1.5-0.7-2.5-2.3-2.5c-1.7,0-2.3,1.1-2.3,2.6v2.1h4.6V260.8z"></path>
		<path style="fill:#B66F6F;" d="M1.2,251v-1.5h12.6v1.5H1.2z"></path>
		<path style="fill:#B66F6F;" d="M1.2,243.1v-1.5h11.3v-4.7h1.3v6.2H1.2z"></path>
		<path style="fill:#B66F6F;" d="M1.2,231.4v-1.5h11.3v-4.7h1.3v6.2H1.2z"></path>
		<path style="fill:#B66F6F;" d="M1.2,219.7v-1.5h12.6v1.5H1.2z"></path>
		<path style="fill:#B66F6F;" d="M1,206.1c0-3.7,2.9-6.4,6.5-6.4c3.7,0,6.5,2.8,6.5,6.4c0,3.7-2.8,6.4-6.5,6.4
			C3.8,212.5,1,209.8,1,206.1z M12.7,206.1c0-2.8-2.2-4.9-5.2-4.9c-3,0-5.2,2.1-5.2,4.9s2.2,4.9,5.2,4.9
			C10.5,211,12.7,208.9,12.7,206.1z"></path>
		<path style="fill:#B66F6F;" d="M1.2,194v-1.5l10.3-6.9H1.2v-1.4h12.6v1.4l-10.3,6.9h10.3v1.5H1.2z"></path>
	</g>
</g>
<rect x="51" y="460.5" style="fill:#B66F6F;" width="349" height="1"></rect>
<g>
	<path style="fill:#757C97;" d="M169.5,310.7l2.2-0.9h1.2v12.6h-1.5v-11.1l-1.5,0.6L169.5,310.7z"></path>
	<path style="fill:#757C97;" d="M178.6,318.1l5.7-8.3h1.5v8.1h1.7v1.3h-1.7v3.2h-1.4v-3.2h-5.9V318.1z M184.4,317.9v-6.2l-4.2,6.2
		H184.4z"></path>
</g>
<g>
	<path style="fill:#B66F6F;" d="M300.2,50.9c0-1.5-1-2.8-2.6-2.8c-1,0-1.6,0.4-2.1,0.8l-1.2-0.2l0.3-6.5h6.4v1.3h-5.1l-0.2,3.9
		c0.6-0.4,1.3-0.6,2.1-0.6c2.3,0,3.9,1.7,3.9,4c0,2.4-1.6,4.2-3.9,4.2c-2.4,0-3.6-1.5-4-2.8l1.3-0.5c0.3,1,1.1,1.9,2.7,1.9
		C299.3,53.7,300.2,52.4,300.2,50.9z"></path>
	<path style="fill:#B66F6F;" d="M314.3,43.6l-3.3,3.9c1.6,0,3.7,1.1,3.7,3.7c0,2.2-1.7,3.9-4,3.9c-2.5,0-3.6-1.5-3.9-2.7l1.2-0.5
		c0.3,1,1.1,1.9,2.7,1.9c1.4,0,2.5-1,2.5-2.5c0-1.4-1-2.5-3-2.5h-1v-1.2l3.3-4h-5.4v-1.3h7.1V43.6z"></path>
</g>
</svg>
