<?xml version="1.0"?>

<!-- Generator: Adobe Illustrator 19.1.0, SVG Export Plug-In . SVG Version: 6.00 Build 0)  -->
<svg version="1.1" id="Layer_1" xmlns="http://www.w3.org/2000/svg" xmlns:xlink="http://www.w3.org/1999/xlink" x="0px" y="0px" viewBox="0 0 400 490" style="enable-background:new 0 0 400 490;" xml:space="preserve" width="400" height="490">
<g>
	<g>
		<rect style="fill:#1C1F2B;" width="400" height="490"></rect>
	</g>
</g>
<g>
	<g>
		<g>
			<defs>
				<polygon id="SVGID_1_" points="372,476 135.7,476 135.7,127 136.7,127 136.7,475 372,475 				"></polygon>
			</defs>
			<clipPath id="SVGID_2_">
				<use xlink:href="#SVGID_1_" style="overflow:visible;"></use>
			</clipPath>
			<path style="clip-path:url(#SVGID_2_);fill:#757C97;" d="M135.7,127v349V127z"></path>
			<rect x="135.7" y="127" style="clip-path:url(#SVGID_2_);fill:#757C97;" width="1.8" height="349"></rect>
			<rect x="137.5" y="127" style="clip-path:url(#SVGID_2_);fill:#767C96;" width="1.8" height="349"></rect>
			<rect x="139.3" y="127" style="clip-path:url(#SVGID_2_);fill:#777C96;" width="1.8" height="349"></rect>
			<rect x="141.1" y="127" style="clip-path:url(#SVGID_2_);fill:#787B95;" width="1.8" height="349"></rect>
			<rect x="142.9" y="127" style="clip-path:url(#SVGID_2_);fill:#797B95;" width="1.8" height="349"></rect>
			<rect x="144.8" y="127" style="clip-path:url(#SVGID_2_);fill:#7A7B94;" width="1.8" height="349"></rect>
			<rect x="146.6" y="127" style="clip-path:url(#SVGID_2_);fill:#7B7B93;" width="1.8" height="349"></rect>
			<rect x="148.4" y="127" style="clip-path:url(#SVGID_2_);fill:#7C7B93;" width="1.8" height="349"></rect>
			<rect x="150.2" y="127" style="clip-path:url(#SVGID_2_);fill:#7D7A92;" width="1.8" height="349"></rect>
			<rect x="152" y="127" style="clip-path:url(#SVGID_2_);fill:#7E7A91;" width="1.8" height="349"></rect>
			<rect x="153.8" y="127" style="clip-path:url(#SVGID_2_);fill:#7F7A91;" width="1.8" height="349"></rect>
			<rect x="155.7" y="127" style="clip-path:url(#SVGID_2_);fill:#807A90;" width="1.8" height="349"></rect>
			<rect x="157.5" y="127" style="clip-path:url(#SVGID_2_);fill:#817A90;" width="1.8" height="349"></rect>
			<rect x="159.3" y="127" style="clip-path:url(#SVGID_2_);fill:#82798F;" width="1.8" height="349"></rect>
			<rect x="161.1" y="127" style="clip-path:url(#SVGID_2_);fill:#83798E;" width="1.8" height="349"></rect>
			<rect x="162.9" y="127" style="clip-path:url(#SVGID_2_);fill:#84798E;" width="1.8" height="349"></rect>
			<rect x="164.8" y="127" style="clip-path:url(#SVGID_2_);fill:#85798D;" width="1.8" height="349"></rect>
			<rect x="166.6" y="127" style="clip-path:url(#SVGID_2_);fill:#86798C;" width="1.8" height="349"></rect>
			<rect x="168.4" y="127" style="clip-path:url(#SVGID_2_);fill:#87788C;" width="1.8" height="349"></rect>
			<rect x="170.2" y="127" style="clip-path:url(#SVGID_2_);fill:#88788B;" width="1.8" height="349"></rect>
			<rect x="172" y="127" style="clip-path:url(#SVGID_2_);fill:#89788B;" width="1.8" height="349"></rect>
			<rect x="173.8" y="127" style="clip-path:url(#SVGID_2_);fill:#8A788A;" width="1.8" height="349"></rect>
			<rect x="175.7" y="127" style="clip-path:url(#SVGID_2_);fill:#8B7889;" width="1.8" height="349"></rect>
			<rect x="177.5" y="127" style="clip-path:url(#SVGID_2_);fill:#8C7789;" width="1.8" height="349"></rect>
			<rect x="179.3" y="127" style="clip-path:url(#SVGID_2_);fill:#8D7788;" width="1.8" height="349"></rect>
			<rect x="181.1" y="127" style="clip-path:url(#SVGID_2_);fill:#8E7787;" width="1.8" height="349"></rect>
			<rect x="182.9" y="127" style="clip-path:url(#SVGID_2_);fill:#8F7787;" width="1.8" height="349"></rect>
			<rect x="184.8" y="127" style="clip-path:url(#SVGID_2_);fill:#907786;" width="1.8" height="349"></rect>
			<rect x="186.6" y="127" style="clip-path:url(#SVGID_2_);fill:#917686;" width="1.8" height="349"></rect>
			<rect x="188.4" y="127" style="clip-path:url(#SVGID_2_);fill:#927685;" width="1.8" height="349"></rect>
			<rect x="190.2" y="127" style="clip-path:url(#SVGID_2_);fill:#937684;" width="1.8" height="349"></rect>
			<rect x="192" y="127" style="clip-path:url(#SVGID_2_);fill:#947684;" width="1.8" height="349"></rect>
			<rect x="193.8" y="127" style="clip-path:url(#SVGID_2_);fill:#967683;" width="1.8" height="349"></rect>
			<rect x="195.7" y="127" style="clip-path:url(#SVGID_2_);fill:#977582;" width="1.8" height="349"></rect>
			<rect x="197.5" y="127" style="clip-path:url(#SVGID_2_);fill:#987582;" width="1.8" height="349"></rect>
			<rect x="199.3" y="127" style="clip-path:url(#SVGID_2_);fill:#997581;" width="1.8" height="349"></rect>
			<rect x="201.1" y="127" style="clip-path:url(#SVGID_2_);fill:#9A7581;" width="1.8" height="349"></rect>
			<rect x="202.9" y="127" style="clip-path:url(#SVGID_2_);fill:#9B7480;" width="1.8" height="349"></rect>
			<rect x="204.7" y="127" style="clip-path:url(#SVGID_2_);fill:#9C747F;" width="1.8" height="349"></rect>
			<rect x="206.6" y="127" style="clip-path:url(#SVGID_2_);fill:#9D747F;" width="1.8" height="349"></rect>
			<rect x="208.4" y="127" style="clip-path:url(#SVGID_2_);fill:#9E747E;" width="1.8" height="349"></rect>
			<rect x="210.2" y="127" style="clip-path:url(#SVGID_2_);fill:#9F747D;" width="1.8" height="349"></rect>
			<rect x="212" y="127" style="clip-path:url(#SVGID_2_);fill:#A0737D;" width="1.8" height="349"></rect>
			<rect x="213.8" y="127" style="clip-path:url(#SVGID_2_);fill:#A1737C;" width="1.8" height="349"></rect>
			<rect x="215.7" y="127" style="clip-path:url(#SVGID_2_);fill:#A2737C;" width="1.8" height="349"></rect>
			<rect x="217.5" y="127" style="clip-path:url(#SVGID_2_);fill:#A3737B;" width="1.8" height="349"></rect>
			<rect x="219.3" y="127" style="clip-path:url(#SVGID_2_);fill:#A4737A;" width="1.8" height="349"></rect>
			<rect x="221.1" y="127" style="clip-path:url(#SVGID_2_);fill:#A5727A;" width="1.8" height="349"></rect>
			<rect x="222.9" y="127" style="clip-path:url(#SVGID_2_);fill:#A67279;" width="1.8" height="349"></rect>
			<rect x="224.7" y="127" style="clip-path:url(#SVGID_2_);fill:#A77278;" width="1.8" height="349"></rect>
			<rect x="226.6" y="127" style="clip-path:url(#SVGID_2_);fill:#A87278;" width="1.8" height="349"></rect>
			<rect x="228.4" y="127" style="clip-path:url(#SVGID_2_);fill:#A97277;" width="1.8" height="349"></rect>
			<rect x="230.2" y="127" style="clip-path:url(#SVGID_2_);fill:#AA7177;" width="1.8" height="349"></rect>
			<rect x="232" y="127" style="clip-path:url(#SVGID_2_);fill:#AB7176;" width="1.8" height="349"></rect>
			<rect x="233.8" y="127" style="clip-path:url(#SVGID_2_);fill:#AC7175;" width="1.8" height="349"></rect>
			<rect x="235.7" y="127" style="clip-path:url(#SVGID_2_);fill:#AD7175;" width="1.8" height="349"></rect>
			<rect x="237.5" y="127" style="clip-path:url(#SVGID_2_);fill:#AE7174;" width="1.8" height="349"></rect>
			<rect x="239.3" y="127" style="clip-path:url(#SVGID_2_);fill:#AF7073;" width="1.8" height="349"></rect>
			<rect x="241.1" y="127" style="clip-path:url(#SVGID_2_);fill:#B07073;" width="1.8" height="349"></rect>
			<rect x="242.9" y="127" style="clip-path:url(#SVGID_2_);fill:#B17072;" width="1.8" height="349"></rect>
			<rect x="244.7" y="127" style="clip-path:url(#SVGID_2_);fill:#B27072;" width="1.8" height="349"></rect>
			<rect x="246.6" y="127" style="clip-path:url(#SVGID_2_);fill:#B37071;" width="1.8" height="349"></rect>
			<rect x="248.4" y="127" style="clip-path:url(#SVGID_2_);fill:#B46F70;" width="1.8" height="349"></rect>
			<rect x="250.2" y="127" style="clip-path:url(#SVGID_2_);fill:#B56F70;" width="1.8" height="349"></rect>
			<rect x="252" y="127" style="clip-path:url(#SVGID_2_);fill:#B66F6F;" width="1.8" height="349"></rect>
			<rect x="253.8" y="127" style="clip-path:url(#SVGID_2_);fill:#B66F6F;" width="118.2" height="349"></rect>
		</g>
	</g>
</g>
<g>
	<g>
		<g>
			<defs>
				<rect id="SVGID_3_" x="136.2" y="126.5" width="235.8" height="1"></rect>
			</defs>
			<clipPath id="SVGID_4_">
				<use xlink:href="#SVGID_3_" style="overflow:visible;"></use>
			</clipPath>
			<path style="clip-path:url(#SVGID_4_);fill:#757C97;" d="M136.2,126.5v1V126.5z"></path>
			<rect x="136.2" y="126.5" style="clip-path:url(#SVGID_4_);fill:#757C97;" width="1.8" height="1"></rect>
			<rect x="138" y="126.5" style="clip-path:url(#SVGID_4_);fill:#767C96;" width="1.8" height="1"></rect>
			<rect x="139.8" y="126.5" style="clip-path:url(#SVGID_4_);fill:#777C96;" width="1.8" height="1"></rect>
			<rect x="141.6" y="126.5" style="clip-path:url(#SVGID_4_);fill:#787B95;" width="1.8" height="1"></rect>
			<rect x="143.4" y="126.5" style="clip-path:url(#SVGID_4_);fill:#797B95;" width="1.8" height="1"></rect>
			<rect x="145.2" y="126.5" style="clip-path:url(#SVGID_4_);fill:#7A7B94;" width="1.8" height="1"></rect>
			<rect x="147.1" y="126.5" style="clip-path:url(#SVGID_4_);fill:#7B7B93;" width="1.8" height="1"></rect>
			<rect x="148.9" y="126.5" style="clip-path:url(#SVGID_4_);fill:#7C7B93;" width="1.8" height="1"></rect>
			<rect x="150.7" y="126.5" style="clip-path:url(#SVGID_4_);fill:#7D7A92;" width="1.8" height="1"></rect>
			<rect x="152.5" y="126.5" style="clip-path:url(#SVGID_4_);fill:#7E7A91;" width="1.8" height="1"></rect>
			<rect x="154.3" y="126.5" style="clip-path:url(#SVGID_4_);fill:#7F7A91;" width="1.8" height="1"></rect>
			<rect x="156.1" y="126.5" style="clip-path:url(#SVGID_4_);fill:#807A90;" width="1.8" height="1"></rect>
			<rect x="157.9" y="126.5" style="clip-path:url(#SVGID_4_);fill:#817A90;" width="1.8" height="1"></rect>
			<rect x="159.7" y="126.5" style="clip-path:url(#SVGID_4_);fill:#82798F;" width="1.8" height="1"></rect>
			<rect x="161.6" y="126.5" style="clip-path:url(#SVGID_4_);fill:#83798E;" width="1.8" height="1"></rect>
			<rect x="163.4" y="126.5" style="clip-path:url(#SVGID_4_);fill:#84798E;" width="1.8" height="1"></rect>
			<rect x="165.2" y="126.5" style="clip-path:url(#SVGID_4_);fill:#85798D;" width="1.8" height="1"></rect>
			<rect x="167" y="126.5" style="clip-path:url(#SVGID_4_);fill:#86798C;" width="1.8" height="1"></rect>
			<rect x="168.8" y="126.5" style="clip-path:url(#SVGID_4_);fill:#87788C;" width="1.8" height="1"></rect>
			<rect x="170.6" y="126.5" style="clip-path:url(#SVGID_4_);fill:#88788B;" width="1.8" height="1"></rect>
			<rect x="172.4" y="126.5" style="clip-path:url(#SVGID_4_);fill:#89788B;" width="1.8" height="1"></rect>
			<rect x="174.3" y="126.5" style="clip-path:url(#SVGID_4_);fill:#8A788A;" width="1.8" height="1"></rect>
			<rect x="176.1" y="126.5" style="clip-path:url(#SVGID_4_);fill:#8B7889;" width="1.8" height="1"></rect>
			<rect x="177.9" y="126.5" style="clip-path:url(#SVGID_4_);fill:#8C7789;" width="1.8" height="1"></rect>
			<rect x="179.7" y="126.5" style="clip-path:url(#SVGID_4_);fill:#8D7788;" width="1.8" height="1"></rect>
			<rect x="181.5" y="126.5" style="clip-path:url(#SVGID_4_);fill:#8E7787;" width="1.8" height="1"></rect>
			<rect x="183.3" y="126.5" style="clip-path:url(#SVGID_4_);fill:#8F7787;" width="1.8" height="1"></rect>
			<rect x="185.1" y="126.5" style="clip-path:url(#SVGID_4_);fill:#907786;" width="1.8" height="1"></rect>
			<rect x="187" y="126.5" style="clip-path:url(#SVGID_4_);fill:#917686;" width="1.8" height="1"></rect>
			<rect x="188.8" y="126.5" style="clip-path:url(#SVGID_4_);fill:#927685;" width="1.8" height="1"></rect>
			<rect x="190.6" y="126.5" style="clip-path:url(#SVGID_4_);fill:#937684;" width="1.8" height="1"></rect>
			<rect x="192.4" y="126.5" style="clip-path:url(#SVGID_4_);fill:#947684;" width="1.8" height="1"></rect>
			<rect x="194.2" y="126.5" style="clip-path:url(#SVGID_4_);fill:#967683;" width="1.8" height="1"></rect>
			<rect x="196" y="126.5" style="clip-path:url(#SVGID_4_);fill:#977582;" width="1.8" height="1"></rect>
			<rect x="197.8" y="126.5" style="clip-path:url(#SVGID_4_);fill:#987582;" width="1.8" height="1"></rect>
			<rect x="199.7" y="126.5" style="clip-path:url(#SVGID_4_);fill:#997581;" width="1.8" height="1"></rect>
			<rect x="201.5" y="126.5" style="clip-path:url(#SVGID_4_);fill:#9A7581;" width="1.8" height="1"></rect>
			<rect x="203.3" y="126.5" style="clip-path:url(#SVGID_4_);fill:#9B7480;" width="1.8" height="1"></rect>
			<rect x="205.1" y="126.5" style="clip-path:url(#SVGID_4_);fill:#9C747F;" width="1.8" height="1"></rect>
			<rect x="206.9" y="126.5" style="clip-path:url(#SVGID_4_);fill:#9D747F;" width="1.8" height="1"></rect>
			<rect x="208.7" y="126.5" style="clip-path:url(#SVGID_4_);fill:#9E747E;" width="1.8" height="1"></rect>
			<rect x="210.5" y="126.5" style="clip-path:url(#SVGID_4_);fill:#9F747D;" width="1.8" height="1"></rect>
			<rect x="212.4" y="126.5" style="clip-path:url(#SVGID_4_);fill:#A0737D;" width="1.8" height="1"></rect>
			<rect x="214.2" y="126.5" style="clip-path:url(#SVGID_4_);fill:#A1737C;" width="1.8" height="1"></rect>
			<rect x="216" y="126.5" style="clip-path:url(#SVGID_4_);fill:#A2737C;" width="1.8" height="1"></rect>
			<rect x="217.8" y="126.5" style="clip-path:url(#SVGID_4_);fill:#A3737B;" width="1.8" height="1"></rect>
			<rect x="219.6" y="126.5" style="clip-path:url(#SVGID_4_);fill:#A4737A;" width="1.8" height="1"></rect>
			<rect x="221.4" y="126.5" style="clip-path:url(#SVGID_4_);fill:#A5727A;" width="1.8" height="1"></rect>
			<rect x="223.2" y="126.5" style="clip-path:url(#SVGID_4_);fill:#A67279;" width="1.8" height="1"></rect>
			<rect x="225.1" y="126.5" style="clip-path:url(#SVGID_4_);fill:#A77278;" width="1.8" height="1"></rect>
			<rect x="226.9" y="126.5" style="clip-path:url(#SVGID_4_);fill:#A87278;" width="1.8" height="1"></rect>
			<rect x="228.7" y="126.5" style="clip-path:url(#SVGID_4_);fill:#A97277;" width="1.8" height="1"></rect>
			<rect x="230.5" y="126.5" style="clip-path:url(#SVGID_4_);fill:#AA7177;" width="1.8" height="1"></rect>
			<rect x="232.3" y="126.5" style="clip-path:url(#SVGID_4_);fill:#AB7176;" width="1.8" height="1"></rect>
			<rect x="234.1" y="126.5" style="clip-path:url(#SVGID_4_);fill:#AC7175;" width="1.8" height="1"></rect>
			<rect x="235.9" y="126.5" style="clip-path:url(#SVGID_4_);fill:#AD7175;" width="1.8" height="1"></rect>
			<rect x="237.8" y="126.5" style="clip-path:url(#SVGID_4_);fill:#AE7174;" width="1.8" height="1"></rect>
			<rect x="239.6" y="126.5" style="clip-path:url(#SVGID_4_);fill:#AF7073;" width="1.8" height="1"></rect>
			<rect x="241.4" y="126.5" style="clip-path:url(#SVGID_4_);fill:#B07073;" width="1.8" height="1"></rect>
			<rect x="243.2" y="126.5" style="clip-path:url(#SVGID_4_);fill:#B17072;" width="1.8" height="1"></rect>
			<rect x="245" y="126.5" style="clip-path:url(#SVGID_4_);fill:#B27072;" width="1.8" height="1"></rect>
			<rect x="246.8" y="126.5" style="clip-path:url(#SVGID_4_);fill:#B37071;" width="1.8" height="1"></rect>
			<rect x="248.6" y="126.5" style="clip-path:url(#SVGID_4_);fill:#B46F70;" width="1.8" height="1"></rect>
			<rect x="250.5" y="126.5" style="clip-path:url(#SVGID_4_);fill:#B56F70;" width="1.8" height="1"></rect>
			<rect x="252.3" y="126.5" style="clip-path:url(#SVGID_4_);fill:#B66F6F;" width="1.8" height="1"></rect>
			<rect x="254.1" y="126.5" style="clip-path:url(#SVGID_4_);fill:#B66F6F;" width="117.9" height="1"></rect>
		</g>
	</g>
</g>
<g>
	<g>
		<circle style="fill:#1C1F2B;" cx="372" cy="127" r="4.5"></circle>
	</g>
	<g>
		<path style="fill:#B66F6F;" d="M372,132c-2.8,0-5-2.2-5-5s2.2-5,5-5s5,2.2,5,5S374.8,132,372,132z M372,123c-2.2,0-4,1.8-4,4
			s1.8,4,4,4s4-1.8,4-4S374.2,123,372,123z"></path>
	</g>
</g>
<g>
	<g>
		<circle style="fill:#1C1F2B;" cx="372" cy="475.5" r="4.5"></circle>
	</g>
	<g>
		<path style="fill:#B66F6F;" d="M372,480.5c-2.8,0-5-2.2-5-5s2.2-5,5-5s5,2.2,5,5S374.8,480.5,372,480.5z M372,471.5
			c-2.2,0-4,1.8-4,4s1.8,4,4,4s4-1.8,4-4S374.2,471.5,372,471.5z"></path>
	</g>
</g>
<g>
	<g>
		<circle style="fill:#1C1F2B;" cx="136.2" cy="127" r="4.5"></circle>
	</g>
	<g>
		<path style="fill:#757C97;" d="M136.2,132c-2.8,0-5-2.2-5-5s2.2-5,5-5s5,2.2,5,5S138.9,132,136.2,132z M136.2,123
			c-2.2,0-4,1.8-4,4s1.8,4,4,4s4-1.8,4-4S138.4,123,136.2,123z"></path>
	</g>
</g>
<g>
	<path style="fill:#757C97;" d="M9.7,63.5v1v18h36v17H31.2v1h14.5h25h14.5v-1H70.7v-17h36v-18v-1v-54h-97V63.5z M69.7,99.5h-23v-17
		h23V99.5z M105.7,81.5h-35h-25h-35v-17h95V81.5z M10.7,10.5h95v53h-95V10.5z"></path>
	<path style="fill:#757C97;" d="M58.2,78c2.8,0,5-2.2,5-5s-2.2-5-5-5s-5,2.2-5,5S55.4,78,58.2,78z M58.2,69c2.2,0,4,1.8,4,4
		s-1.8,4-4,4s-4-1.8-4-4S56,69,58.2,69z"></path>
	<path style="fill:#757C97;" d="M136.2,78c2.8,0,5-2.2,5-5s-2.2-5-5-5s-5,2.2-5,5S133.4,78,136.2,78z M136.2,69c2.2,0,4,1.8,4,4
		s-1.8,4-4,4s-4-1.8-4-4S134,69,136.2,69z"></path>
	<path style="fill:#757C97;" d="M117.7,9.5v18v1v18v54h18v22h1v-22h18v-54v-18v-1v-18H117.7z M153.7,99.5h-35v-53h35V99.5z
		 M153.7,45.5h-35v-17h35V45.5z M118.7,27.5v-17h35v17H118.7z"></path>
</g>
<g>
	<g>
		<g>
			<defs>
				<rect id="SVGID_5_" x="136.2" y="300.8" width="235.8" height="1"></rect>
			</defs>
			<clipPath id="SVGID_6_">
				<use xlink:href="#SVGID_5_" style="overflow:visible;"></use>
			</clipPath>
			<path style="clip-path:url(#SVGID_6_);fill:#757C97;" d="M136.2,300.8v1V300.8z"></path>
			<rect x="136.2" y="300.8" style="clip-path:url(#SVGID_6_);fill:#757C97;" width="1.8" height="1"></rect>
			<rect x="138" y="300.8" style="clip-path:url(#SVGID_6_);fill:#767C96;" width="1.8" height="1"></rect>
			<rect x="139.8" y="300.8" style="clip-path:url(#SVGID_6_);fill:#777C96;" width="1.8" height="1"></rect>
			<rect x="141.6" y="300.8" style="clip-path:url(#SVGID_6_);fill:#787B95;" width="1.8" height="1"></rect>
			<rect x="143.4" y="300.8" style="clip-path:url(#SVGID_6_);fill:#797B95;" width="1.8" height="1"></rect>
			<rect x="145.2" y="300.8" style="clip-path:url(#SVGID_6_);fill:#7A7B94;" width="1.8" height="1"></rect>
			<rect x="147.1" y="300.8" style="clip-path:url(#SVGID_6_);fill:#7B7B93;" width="1.8" height="1"></rect>
			<rect x="148.9" y="300.8" style="clip-path:url(#SVGID_6_);fill:#7C7B93;" width="1.8" height="1"></rect>
			<rect x="150.7" y="300.8" style="clip-path:url(#SVGID_6_);fill:#7D7A92;" width="1.8" height="1"></rect>
			<rect x="152.5" y="300.8" style="clip-path:url(#SVGID_6_);fill:#7E7A91;" width="1.8" height="1"></rect>
			<rect x="154.3" y="300.8" style="clip-path:url(#SVGID_6_);fill:#7F7A91;" width="1.8" height="1"></rect>
			<rect x="156.1" y="300.8" style="clip-path:url(#SVGID_6_);fill:#807A90;" width="1.8" height="1"></rect>
			<rect x="157.9" y="300.8" style="clip-path:url(#SVGID_6_);fill:#817A90;" width="1.8" height="1"></rect>
			<rect x="159.7" y="300.8" style="clip-path:url(#SVGID_6_);fill:#82798F;" width="1.8" height="1"></rect>
			<rect x="161.6" y="300.8" style="clip-path:url(#SVGID_6_);fill:#83798E;" width="1.8" height="1"></rect>
			<rect x="163.4" y="300.8" style="clip-path:url(#SVGID_6_);fill:#84798E;" width="1.8" height="1"></rect>
			<rect x="165.2" y="300.8" style="clip-path:url(#SVGID_6_);fill:#85798D;" width="1.8" height="1"></rect>
			<rect x="167" y="300.8" style="clip-path:url(#SVGID_6_);fill:#86798C;" width="1.8" height="1"></rect>
			<rect x="168.8" y="300.8" style="clip-path:url(#SVGID_6_);fill:#87788C;" width="1.8" height="1"></rect>
			<rect x="170.6" y="300.8" style="clip-path:url(#SVGID_6_);fill:#88788B;" width="1.8" height="1"></rect>
			<rect x="172.4" y="300.8" style="clip-path:url(#SVGID_6_);fill:#89788B;" width="1.8" height="1"></rect>
			<rect x="174.3" y="300.8" style="clip-path:url(#SVGID_6_);fill:#8A788A;" width="1.8" height="1"></rect>
			<rect x="176.1" y="300.8" style="clip-path:url(#SVGID_6_);fill:#8B7889;" width="1.8" height="1"></rect>
			<rect x="177.9" y="300.8" style="clip-path:url(#SVGID_6_);fill:#8C7789;" width="1.8" height="1"></rect>
			<rect x="179.7" y="300.8" style="clip-path:url(#SVGID_6_);fill:#8D7788;" width="1.8" height="1"></rect>
			<rect x="181.5" y="300.8" style="clip-path:url(#SVGID_6_);fill:#8E7787;" width="1.8" height="1"></rect>
			<rect x="183.3" y="300.8" style="clip-path:url(#SVGID_6_);fill:#8F7787;" width="1.8" height="1"></rect>
			<rect x="185.1" y="300.8" style="clip-path:url(#SVGID_6_);fill:#907786;" width="1.8" height="1"></rect>
			<rect x="187" y="300.8" style="clip-path:url(#SVGID_6_);fill:#917686;" width="1.8" height="1"></rect>
			<rect x="188.8" y="300.8" style="clip-path:url(#SVGID_6_);fill:#927685;" width="1.8" height="1"></rect>
			<rect x="190.6" y="300.8" style="clip-path:url(#SVGID_6_);fill:#937684;" width="1.8" height="1"></rect>
			<rect x="192.4" y="300.8" style="clip-path:url(#SVGID_6_);fill:#947684;" width="1.8" height="1"></rect>
			<rect x="194.2" y="300.8" style="clip-path:url(#SVGID_6_);fill:#967683;" width="1.8" height="1"></rect>
			<rect x="196" y="300.8" style="clip-path:url(#SVGID_6_);fill:#977582;" width="1.8" height="1"></rect>
			<rect x="197.8" y="300.8" style="clip-path:url(#SVGID_6_);fill:#987582;" width="1.8" height="1"></rect>
			<rect x="199.7" y="300.8" style="clip-path:url(#SVGID_6_);fill:#997581;" width="1.8" height="1"></rect>
			<rect x="201.5" y="300.8" style="clip-path:url(#SVGID_6_);fill:#9A7581;" width="1.8" height="1"></rect>
			<rect x="203.3" y="300.8" style="clip-path:url(#SVGID_6_);fill:#9B7480;" width="1.8" height="1"></rect>
			<rect x="205.1" y="300.8" style="clip-path:url(#SVGID_6_);fill:#9C747F;" width="1.8" height="1"></rect>
			<rect x="206.9" y="300.8" style="clip-path:url(#SVGID_6_);fill:#9D747F;" width="1.8" height="1"></rect>
			<rect x="208.7" y="300.8" style="clip-path:url(#SVGID_6_);fill:#9E747E;" width="1.8" height="1"></rect>
			<rect x="210.5" y="300.8" style="clip-path:url(#SVGID_6_);fill:#9F747D;" width="1.8" height="1"></rect>
			<rect x="212.4" y="300.8" style="clip-path:url(#SVGID_6_);fill:#A0737D;" width="1.8" height="1"></rect>
			<rect x="214.2" y="300.8" style="clip-path:url(#SVGID_6_);fill:#A1737C;" width="1.8" height="1"></rect>
			<rect x="216" y="300.8" style="clip-path:url(#SVGID_6_);fill:#A2737C;" width="1.8" height="1"></rect>
			<rect x="217.8" y="300.8" style="clip-path:url(#SVGID_6_);fill:#A3737B;" width="1.8" height="1"></rect>
			<rect x="219.6" y="300.8" style="clip-path:url(#SVGID_6_);fill:#A4737A;" width="1.8" height="1"></rect>
			<rect x="221.4" y="300.8" style="clip-path:url(#SVGID_6_);fill:#A5727A;" width="1.8" height="1"></rect>
			<rect x="223.2" y="300.8" style="clip-path:url(#SVGID_6_);fill:#A67279;" width="1.8" height="1"></rect>
			<rect x="225.1" y="300.8" style="clip-path:url(#SVGID_6_);fill:#A77278;" width="1.8" height="1"></rect>
			<rect x="226.9" y="300.8" style="clip-path:url(#SVGID_6_);fill:#A87278;" width="1.8" height="1"></rect>
			<rect x="228.7" y="300.8" style="clip-path:url(#SVGID_6_);fill:#A97277;" width="1.8" height="1"></rect>
			<rect x="230.5" y="300.8" style="clip-path:url(#SVGID_6_);fill:#AA7177;" width="1.8" height="1"></rect>
			<rect x="232.3" y="300.8" style="clip-path:url(#SVGID_6_);fill:#AB7176;" width="1.8" height="1"></rect>
			<rect x="234.1" y="300.8" style="clip-path:url(#SVGID_6_);fill:#AC7175;" width="1.8" height="1"></rect>
			<rect x="235.9" y="300.8" style="clip-path:url(#SVGID_6_);fill:#AD7175;" width="1.8" height="1"></rect>
			<rect x="237.8" y="300.8" style="clip-path:url(#SVGID_6_);fill:#AE7174;" width="1.8" height="1"></rect>
			<rect x="239.6" y="300.8" style="clip-path:url(#SVGID_6_);fill:#AF7073;" width="1.8" height="1"></rect>
			<rect x="241.4" y="300.8" style="clip-path:url(#SVGID_6_);fill:#B07073;" width="1.8" height="1"></rect>
			<rect x="243.2" y="300.8" style="clip-path:url(#SVGID_6_);fill:#B17072;" width="1.8" height="1"></rect>
			<rect x="245" y="300.8" style="clip-path:url(#SVGID_6_);fill:#B27072;" width="1.8" height="1"></rect>
			<rect x="246.8" y="300.8" style="clip-path:url(#SVGID_6_);fill:#B37071;" width="1.8" height="1"></rect>
			<rect x="248.6" y="300.8" style="clip-path:url(#SVGID_6_);fill:#B46F70;" width="1.8" height="1"></rect>
			<rect x="250.5" y="300.8" style="clip-path:url(#SVGID_6_);fill:#B56F70;" width="1.8" height="1"></rect>
			<rect x="252.3" y="300.8" style="clip-path:url(#SVGID_6_);fill:#B66F6F;" width="1.8" height="1"></rect>
			<rect x="254.1" y="300.8" style="clip-path:url(#SVGID_6_);fill:#B66F6F;" width="117.9" height="1"></rect>
		</g>
	</g>
</g>
<g>
	<g>
		<circle style="fill:#1C1F2B;" cx="372" cy="301.2" r="4.5"></circle>
	</g>
	<g>
		<path style="fill:#B66F6F;" d="M372,306.2c-2.8,0-5-2.2-5-5s2.2-5,5-5s5,2.2,5,5S374.8,306.2,372,306.2z M372,297.2
			c-2.2,0-4,1.8-4,4s1.8,4,4,4s4-1.8,4-4S374.2,297.2,372,297.2z"></path>
	</g>
</g>
<g>
	<path style="fill:#B66F6F;" d="M372,78c2.8,0,5-2.2,5-5s-2.2-5-5-5s-5,2.2-5,5S369.2,78,372,78z M372,69c2.2,0,4,1.8,4,4
		s-1.8,4-4,4s-4-1.8-4-4S369.8,69,372,69z"></path>
	<path style="fill:#B66F6F;" d="M353.5,9.5v18v1v18v54h18v22h1v-22h18v-54v-18v-1v-18H353.5z M389.5,99.5h-35v-53h35V99.5z
		 M389.5,45.5h-35v-17h35V45.5z M354.5,27.5v-17h35v17H354.5z"></path>
	<path style="fill:#B66F6F;" d="M372,426.5c2.8,0,5-2.2,5-5s-2.2-5-5-5s-5,2.2-5,5S369.2,426.5,372,426.5z M372,417.5
		c2.2,0,4,1.8,4,4s-1.8,4-4,4s-4-1.8-4-4S369.8,417.5,372,417.5z"></path>
	<path style="fill:#B66F6F;" d="M353.5,376v1v18v54h18v22h1v-22h18v-54v-18v-1v-18h-37V376z M389.5,448h-35v-53h35V448z M389.5,394
		h-35v-17h35V394z M354.5,359h35v17h-35V359z"></path>
	<path style="fill:#B66F6F;" d="M372,252.2c2.8,0,5-2.2,5-5s-2.2-5-5-5s-5,2.2-5,5S369.2,252.2,372,252.2z M372,243.2
		c2.2,0,4,1.8,4,4c0,2.2-1.8,4-4,4s-4-1.8-4-4C368,245,369.8,243.2,372,243.2z"></path>
	<path style="fill:#B66F6F;" d="M353.5,201.8v1v18v54h18v22h1v-22h18v-54v-18v-1v-18h-37V201.8z M389.5,273.8h-35v-53h35V273.8z
		 M389.5,219.8h-35v-17h35V219.8z M354.5,184.8h35v17h-35V184.8z"></path>
</g>
<g>
	<g>
		<polygon style="fill:#B66F6F;" points="256.8,482 250.3,475.5 256.8,469 257.5,469.7 251.8,475.5 257.5,481.3 		"></polygon>
	</g>
</g>
<g>
	<g>
		<polygon style="fill:#B66F6F;" points="256.8,307.7 250.3,301.2 256.8,294.8 257.5,295.5 251.8,301.2 257.5,307 		"></polygon>
	</g>
</g>
<g>
	<g>
		<polygon style="fill:#B66F6F;" points="256.8,133.5 250.3,127 256.8,120.5 257.5,121.2 251.8,127 257.5,132.8 		"></polygon>
	</g>
</g>
<g>
	<g>
		<path style="fill:#B66F6F;" d="M279.9,67.4h-3.4V66h8.2v1.3h-3.4v11.3h-1.5V67.4z"></path>
	</g>
	<g>
		<path style="fill:#B66F6F;" d="M291,74.5l-1.5,4.1H288l4.7-12.6h1.5l4.7,12.6h-1.5l-1.5-4.1H291z M293.5,67.6l-2,5.7h4.1
			L293.5,67.6z"></path>
	</g>
	<g>
		<path style="fill:#B66F6F;" d="M304.6,75.6c0.3,1,1.1,2,2.8,2c1.3,0,2.3-0.8,2.3-2.1c0-3.2-5.9-2.3-5.9-6.4c0-1.8,1.4-3.2,3.6-3.2
			c2.2,0,3.3,1.6,3.6,2.4l-1.2,0.5c-0.3-0.6-1-1.6-2.4-1.6s-2.1,0.8-2.1,1.9c0,2.9,5.9,2.3,5.9,6.3c0,2-1.5,3.5-3.8,3.5
			c-2.4,0-3.5-1.6-3.9-2.8L304.6,75.6z"></path>
	</g>
	<g>
		<path style="fill:#B66F6F;" d="M316.9,66h1.5v5.8l5-5.8h1.8l-5.3,6l5.5,6.6h-1.8l-5.2-6.3v6.3h-1.5V66z"></path>
	</g>
	<g>
		<path style="fill:#B66F6F;" d="M241.1,87.6h3.2c2.6,0,3.9,1.3,3.9,3.5c0,1.5-0.7,2.9-2.2,3.3l3.1,5.8h-1.6l-2.8-5.5h-2.1v5.5h-1.5
			V87.6z M244.3,93.5c1.5,0,2.4-0.7,2.4-2.3c0-1.3-0.7-2.2-2.5-2.2h-1.7v4.6H244.3z"></path>
	</g>
	<g>
		<path style="fill:#B66F6F;" d="M254.6,87.6h6V89H256v4.2h3.9v1.3H256v4.4h4.7v1.3h-6.2V87.6z"></path>
	</g>
	<g>
		<path style="fill:#B66F6F;" d="M267.2,97.2c0.3,1,1.1,2,2.8,2c1.3,0,2.3-0.8,2.3-2.1c0-3.2-5.9-2.3-5.9-6.4c0-1.8,1.4-3.2,3.6-3.2
			c2.2,0,3.3,1.6,3.6,2.4l-1.2,0.5c-0.3-0.6-1-1.6-2.4-1.6s-2.1,0.8-2.1,1.9c0,2.9,5.9,2.3,5.9,6.3c0,2-1.5,3.5-3.8,3.5
			c-2.4,0-3.5-1.6-3.9-2.8L267.2,97.2z"></path>
	</g>
	<g>
		<path style="fill:#B66F6F;" d="M279.4,95.7v-8.1h1.5v8.1c0,2.1,1.1,3.4,3.2,3.4s3.3-1.3,3.3-3.4v-8h1.4v8.1c0,2.8-1.7,4.8-4.7,4.8
			C281,100.5,279.4,98.6,279.4,95.7z"></path>
	</g>
	<g>
		<path style="fill:#B66F6F;" d="M295.1,87.6h1.5v11.3h4.7v1.3h-6.2V87.6z"></path>
	</g>
	<g>
		<path style="fill:#B66F6F;" d="M307.5,89h-3.4v-1.3h8.2V89H309v11.3h-1.5V89z"></path>
	</g>
	<g>
		<path style="fill:#B66F6F;" d="M318.4,97.2c0.3,1,1.1,2,2.8,2c1.3,0,2.3-0.8,2.3-2.1c0-3.2-5.9-2.3-5.9-6.4c0-1.8,1.4-3.2,3.6-3.2
			c2.2,0,3.3,1.6,3.6,2.4l-1.2,0.5c-0.3-0.6-1-1.6-2.4-1.6s-2.1,0.8-2.1,1.9c0,2.9,5.9,2.3,5.9,6.3c0,2-1.5,3.5-3.8,3.5
			c-2.4,0-3.5-1.6-3.9-2.8L318.4,97.2z"></path>
	</g>
</g>
</svg>
