<?xml version="1.0"?>

<!-- Generator: Adobe Illustrator 19.1.0, SVG Export Plug-In . SVG Version: 6.00 Build 0)  -->
<svg version="1.1" id="Layer_1" xmlns="http://www.w3.org/2000/svg" xmlns:xlink="http://www.w3.org/1999/xlink" x="0px" y="0px" viewBox="0 0 800 350" style="enable-background:new 0 0 800 350;" xml:space="preserve" width="800" height="350">
<g>
	<g>
		<g>
			<path style="fill:#FFFFFF;" d="M329.8,119.2v56.1h5.5v-50.6h28.4v50.6h5.5v-50.6h28.4v50.6h5.5v-56.1H329.8z M154.9,117.1
				c-8,0-15.6,3.1-21.3,8.8c-5.7,5.7-8.8,13.2-8.8,21.3c0,8,3.1,15.6,8.8,21.3c5.7,5.7,13.2,8.8,21.3,8.8c8,0,15.6-3.1,21.3-8.8
				c5.7-5.7,8.8-13.2,8.8-21.3c0-8-3.1-15.6-8.8-21.3C170.4,120.3,162.9,117.1,154.9,117.1z M172.3,164.7
				c-4.6,4.7-10.8,7.2-17.4,7.2c-6.6,0-12.8-2.6-17.4-7.2c-4.6-4.7-7.2-10.8-7.2-17.4c0-6.6,2.6-12.8,7.2-17.4
				c4.6-4.7,10.8-7.2,17.4-7.2c6.6,0,12.8,2.6,17.4,7.2c4.6,4.7,7.2,10.8,7.2,17.4C179.5,153.8,176.9,160,172.3,164.7z M296.4,126
				c-5.7-5.7-13.2-8.8-21.3-8.8c-8,0-15.6,3.1-21.3,8.8c-5.7,5.7-8.8,13.2-8.8,21.3c0,8,3.1,15.6,8.8,21.3
				c5.7,5.7,13.2,8.8,21.3,8.8s15.6-3.1,21.3-8.8l-3.9-3.9c-4.6,4.7-10.8,7.2-17.4,7.2c-6.6,0-12.8-2.6-17.4-7.2
				c-4.6-4.7-7.2-10.8-7.2-17.4h54.7C305.2,139.2,302.1,131.6,296.4,126z M257.8,129.8c4.6-4.7,10.8-7.2,17.4-7.2
				c6.6,0,12.8,2.6,17.4,7.2c3.3,3.3,5.6,7.5,6.6,11.9h-48C252.2,137.3,254.4,133.2,257.8,129.8z M106.8,106.6l-17.5,17.5
				c-5.4-4.5-12.1-7-19.2-7c-8,0-15.6,3.1-21.3,8.8c-5.7,5.7-8.8,13.3-8.8,21.3c0,8,3.1,15.6,8.8,21.3c5,5,11.5,8.1,18.5,8.7v22.2
				c-7,0.6-13.5,3.6-18.5,8.7c-5.7,5.7-8.8,13.3-8.8,21.3c0,8,3.1,15.6,8.8,21.3c5.7,5.7,13.2,8.8,21.3,8.8c8,0,15.6-3.1,21.3-8.8
				c5.7-5.7,8.8-13.2,8.8-21.3s-3.1-15.6-8.8-21.3c-5-5-11.5-8.1-18.5-8.7v-22.2c7-0.6,13.5-3.6,18.5-8.7c5.7-5.7,8.8-13.2,8.8-21.3
				c0-7.1-2.5-13.9-7-19.3l17.5-17.5L106.8,106.6z M87.5,212c4.6,4.7,7.2,10.8,7.2,17.4c0,6.6-2.6,12.8-7.2,17.4
				c-4.6,4.7-10.8,7.2-17.4,7.2c-6.6,0-12.8-2.6-17.4-7.2c-4.6-4.7-7.2-10.8-7.2-17.4c0-6.6,2.6-12.8,7.2-17.4
				c4.6-4.7,10.8-7.2,17.4-7.2S82.9,207.3,87.5,212z M94.7,147.3c0,6.6-2.6,12.8-7.2,17.4c-4.6,4.7-10.8,7.2-17.4,7.2
				c-6.6,0-12.8-2.6-17.4-7.2c-4.6-4.7-7.2-10.8-7.2-17.4c0-6.6,2.6-12.8,7.2-17.4c4.6-4.7,10.8-7.2,17.4-7.2
				c6.6,0,12.8,2.6,17.4,7.2C92.2,134.5,94.7,140.7,94.7,147.3z M212.3,174.6h5.5V92.5h-5.5V174.6z"></path>
		</g>
	</g>
	<g>
		<path style="fill:#FFFFFF;" d="M473,121.4l-5.7,18.8h-1.7l-6.2-21h1.6l5.4,18.9l5.6-18.9h1.7l5.6,18.9l5.4-18.9h1.6l-6.1,21h-1.7
			L473,121.4z"></path>
		<path style="fill:#FFFFFF;" d="M504.8,118.8c5.9,0,10.6,4.7,10.6,10.9c0,6.2-4.7,10.9-10.6,10.9c-5.9,0-10.6-4.6-10.6-10.9
			C494.2,123.5,498.9,118.8,504.8,118.8z M504.8,139.1c5.1,0,9-4,9-9.5c0-5.4-4-9.4-9-9.4c-5.1,0-9,4-9,9.4
			C495.8,135.2,499.7,139.1,504.8,139.1z"></path>
		<path style="fill:#FFFFFF;" d="M525.2,119.2h4.8c4.1,0,6.3,2.6,6.3,5.7c0,2.6-1.6,4.6-3.9,5.4l5.3,9.9h-1.7l-5.1-9.6h-4.2v9.6
			h-1.5V119.2z M530.1,129.2c2.8,0,4.6-1.7,4.6-4.3c0-2.5-1.7-4.3-4.7-4.3h-3.3v8.6H530.1z"></path>
		<path style="fill:#FFFFFF;" d="M547.1,119.2h1.5v19.6h8.4v1.4h-9.9V119.2z"></path>
		<path style="fill:#FFFFFF;" d="M566.5,119.2h3.7c7.3,0,11.3,3.9,11.3,10.5c0,7.1-4.2,10.5-11.3,10.5h-3.7V119.2z M570.8,138.8
			c5.6,0,9.1-3.1,9.1-9.1c0-5.7-3.5-9.1-9.1-9.1H568v18.2H570.8z"></path>
		<path style="fill:#FFFFFF;" d="M602.6,121.4l-5.7,18.8h-1.7l-6.2-21h1.6l5.4,18.9l5.6-18.9h1.7l5.6,18.9l5.4-18.9h1.6l-6.1,21
			h-1.7L602.6,121.4z"></path>
		<path style="fill:#FFFFFF;" d="M625.1,119.2h1.5v21h-1.5V119.2z"></path>
		<path style="fill:#FFFFFF;" d="M637.7,119.2h3.7c7.3,0,11.3,3.9,11.3,10.5c0,7.1-4.2,10.5-11.3,10.5h-3.7V119.2z M642.1,138.8
			c5.6,0,9.1-3.1,9.1-9.1c0-5.7-3.5-9.1-9.1-9.1h-2.8v18.2H642.1z"></path>
		<path style="fill:#FFFFFF;" d="M662.6,119.2h9.6v1.4h-8v8.2h7v1.4h-7v8.6h8.4v1.4h-9.9V119.2z"></path>
		<path style="fill:#FFFFFF;" d="M461.7,170.6c0.6,1.7,1.9,3.6,5.1,3.6c2.5,0,4.4-1.6,4.4-4.1c0-6.1-10.2-4.4-10.2-11.2
			c0-2.8,2.1-5.1,5.7-5.1c3.5,0,5.2,2.4,5.7,3.7l-1.3,0.5c-0.5-1.1-1.8-2.8-4.4-2.8c-2.7,0-4.1,1.7-4.1,3.7c0,5.4,10.2,4.2,10.2,11
			c0,3.1-2.3,5.6-6,5.6c-3.9,0-5.7-2.3-6.4-4.5L461.7,170.6z"></path>
		<path style="fill:#FFFFFF;" d="M482.5,167.8v-13.6h1.5v13.6c0,3.9,2,6.4,6,6.4c4,0,6-2.5,6-6.4v-13.6h1.5v13.6
			c0,4.7-2.7,7.8-7.6,7.8C485.3,175.6,482.5,172.5,482.5,167.8z"></path>
		<path style="fill:#FFFFFF;" d="M508.6,154.2h5.3c3.7,0,6,2.8,6,5.8c0,3.4-2.6,5.9-6,5.9h-3.8v9.3h-1.5V154.2z M513.8,164.5
			c2.5,0,4.4-2,4.4-4.5c0-2.4-1.9-4.4-4.4-4.4h-3.7v8.9H513.8z"></path>
		<path style="fill:#FFFFFF;" d="M529.3,154.2h9.6v1.4h-8v8.2h7v1.4h-7v8.6h8.4v1.4h-9.9V154.2z"></path>
		<path style="fill:#FFFFFF;" d="M549.5,154.2h4.8c4.1,0,6.3,2.6,6.3,5.7c0,2.6-1.6,4.6-3.9,5.4l5.3,9.9h-1.7l-5.1-9.6H551v9.6h-1.5
			V154.2z M554.3,164.2c2.8,0,4.6-1.7,4.6-4.3c0-2.5-1.7-4.3-4.7-4.3H551v8.6H554.3z"></path>
		<path style="fill:#FFFFFF;" d="M587.5,173c-0.6,0.6-3.1,2.6-7,2.6c-6,0-10.5-4.7-10.5-10.9c0-6.2,4.7-10.9,10.4-10.9
			c3.3,0,5.6,1.5,6.6,2.3l-0.5,1.4c-0.7-0.6-2.9-2.2-6.1-2.2c-4.9,0-8.8,4-8.8,9.4c0,5.4,3.8,9.5,8.9,9.5c3.6,0,5.8-2,6.5-2.5
			L587.5,173z"></path>
		<path style="fill:#FFFFFF;" d="M606.6,153.8c5.9,0,10.6,4.7,10.6,10.9c0,6.2-4.7,10.9-10.6,10.9c-5.9,0-10.6-4.6-10.6-10.9
			C596,158.5,600.7,153.8,606.6,153.8z M606.6,174.1c5.1,0,9-4,9-9.5c0-5.4-4-9.4-9-9.4c-5.1,0-9,4-9,9.4
			C597.5,170.2,601.5,174.1,606.6,174.1z"></path>
		<path style="fill:#FFFFFF;" d="M637.2,171.5l8.3-17.3h1.9v21H646v-18.7l-7.9,16.7h-1.6l-8-16.7v18.7H627v-21h1.9L637.2,171.5z"></path>
		<path style="fill:#FFFFFF;" d="M658.6,154.2h5.3c3.7,0,6,2.8,6,5.8c0,3.4-2.6,5.9-6,5.9h-3.8v9.3h-1.5V154.2z M663.8,164.5
			c2.5,0,4.4-2,4.4-4.5c0-2.4-1.9-4.4-4.4-4.4h-3.7v8.9H663.8z"></path>
		<path style="fill:#FFFFFF;" d="M679.1,167.8v-13.6h1.5v13.6c0,3.9,2,6.4,6,6.4c4,0,6-2.5,6-6.4v-13.6h1.5v13.6
			c0,4.7-2.7,7.8-7.6,7.8C681.9,175.6,679.1,172.5,679.1,167.8z"></path>
		<path style="fill:#FFFFFF;" d="M709.4,155.6h-6v-1.4h13.6v1.4h-6v19.6h-1.5V155.6z"></path>
		<path style="fill:#FFFFFF;" d="M726.5,154.2h9.6v1.4h-8v8.2h7v1.4h-7v8.6h8.4v1.4h-9.9V154.2z"></path>
		<path style="fill:#FFFFFF;" d="M746.7,154.2h4.8c4.1,0,6.3,2.6,6.3,5.7c0,2.6-1.6,4.6-3.9,5.4l5.3,9.9h-1.7l-5.1-9.6h-4.2v9.6
			h-1.5V154.2z M751.6,164.2c2.8,0,4.6-1.7,4.6-4.3c0-2.5-1.7-4.3-4.7-4.3h-3.3v8.6H751.6z"></path>
	</g>
</g>
</svg>
