<?xml version="1.0"?>

<!-- Generator: Adobe Illustrator 19.1.0, SVG Export Plug-In . SVG Version: 6.00 Build 0)  -->
<svg version="1.1" id="Layer_1" xmlns="http://www.w3.org/2000/svg" xmlns:xlink="http://www.w3.org/1999/xlink" x="0px" y="0px" viewBox="0 0 400 490" style="enable-background:new 0 0 400 490;" xml:space="preserve" width="400" height="490">
<g>
	<path style="fill:#B66F6F;" d="M1.1,338.8v-5.3h1.2v4h3.8V334h1.2v3.5h5v1.3H1.1z"></path>
	<path style="fill:#B66F6F;" d="M1.1,328.1v-5.3h1.2v4H6v-3.5h1.2v3.5h4v-4.2h1.2v5.5H1.1z"></path>
	<path style="fill:#B66F6F;" d="M1.1,317.4V312h1.2v4H6v-3.5h1.2v3.5h4v-4.2h1.2v5.5H1.1z"></path>
	<path style="fill:#B66F6F;" d="M1.1,299.3V298h11.2v1.3H1.1z"></path>
	<path style="fill:#B66F6F;" d="M1.1,292.3V291l9.2-6.2H1.1v-1.3h11.2v1.3L3.1,291h9.1v1.3H1.1z"></path>
	<path style="fill:#B66F6F;" d="M11.2,269.2c0.4,0.4,1.3,1.7,1.3,3.6c0,3.3-2.5,5.7-5.8,5.7c-3.3,0-5.8-2.5-5.8-5.7
		c0-1.7,0.7-2.9,1.2-3.5l1.2,0.4c-0.4,0.4-1.1,1.5-1.1,3c0,2.5,2,4.3,4.6,4.3c2.6,0,4.6-1.8,4.6-4.4c0-1.7-0.9-2.8-1.2-3.2
		L11.2,269.2z"></path>
	<path style="fill:#B66F6F;" d="M0.8,259.1c0-3.3,2.5-5.7,5.8-5.7c3.3,0,5.8,2.5,5.8,5.7c0,3.2-2.5,5.7-5.8,5.7
		C3.4,264.8,0.8,262.3,0.8,259.1z M11.3,259.1c0-2.5-1.9-4.4-4.6-4.4c-2.6,0-4.6,1.9-4.6,4.4s2,4.4,4.6,4.4
		C9.3,263.4,11.3,261.5,11.3,259.1z"></path>
	<path style="fill:#B66F6F;" d="M9.8,242.6l-8.7-4v-1.6h11.2v1.2H2.9l8.3,3.8v1.3L2.9,247h9.3v1.2H1.1v-1.7L9.8,242.6z"></path>
	<path style="fill:#B66F6F;" d="M1.1,231.2v-5.3h1.2v4H6v-3.5h1.2v3.5h4v-4.2h1.2v5.5H1.1z"></path>
	<path style="fill:#B66F6F;" d="M10.7,220c0-0.5,0.4-0.9,1-0.9c1.1,0,2,0.5,2.6,1.2l-0.6,0.6c-0.2-0.3-0.7-0.7-1.2-0.8
		c-0.1,0.5-0.5,0.8-0.9,0.8C11.1,220.9,10.7,220.5,10.7,220z"></path>
	<path style="fill:#B66F6F;" d="M9.8,200.9l-8.7-4v-1.6h11.2v1.2H2.9l8.3,3.8v1.3l-8.3,3.8h9.3v1.2H1.1v-1.7L9.8,200.9z"></path>
	<path style="fill:#B66F6F;" d="M1.1,189.5v-1.3h10V184h1.2v5.5H1.1z"></path>
	<path style="fill:#B66F6F;" d="M1.1,179.1v-1.3l9.2-6.2H1.1v-1.3h11.2v1.3l-9.1,6.2h9.1v1.3H1.1z"></path>
	<path style="fill:#B66F6F;" d="M9.5,157c0.9-0.3,1.7-1,1.7-2.4c0-1.2-0.7-2-1.9-2c-2.8,0-2.1,5.3-5.7,5.3c-1.5,0-2.6-1-2.8-2.7H0
		v-1h0.9c0.2-1.7,1.4-2.4,2.1-2.7l0.4,1.1c-0.6,0.3-1.4,0.9-1.4,2.1s0.8,1.9,1.7,1.9c2.6,0,2-5.3,5.6-5.3c1.6,0,2.9,1.1,3.1,2.9h1.2
		v1h-1.2c-0.2,1.9-1.4,2.7-2.4,3L9.5,157z"></path>
</g>
<g>
	<g>
		
			<linearGradient id="SVGID_1_" gradientUnits="userSpaceOnUse" x1="51" y1="108.3062" x2="400" y2="108.3062" gradientTransform="matrix(1 0 0 -1 0 490)">
			<stop offset="0" style="stop-color:#B66F6F;stop-opacity:0"></stop>
			<stop offset="1" style="stop-color:#B66F6F"></stop>
		</linearGradient>
		<rect x="51" y="381.2" style="fill:url(#SVGID_1_);" width="349" height="1"></rect>
	</g>
	<g>
		<path style="fill:#B66F6F;" d="M51,393l1.9-0.8H54v11.2h-1.3v-9.9l-1.3,0.5L51,393z"></path>
	</g>
</g>
<g>
	<g>
		
			<linearGradient id="SVGID_2_" gradientUnits="userSpaceOnUse" x1="51" y1="162.7625" x2="400" y2="162.7625" gradientTransform="matrix(1 0 0 -1 0 490)">
			<stop offset="0" style="stop-color:#B66F6F;stop-opacity:0"></stop>
			<stop offset="1" style="stop-color:#B66F6F"></stop>
		</linearGradient>
		<rect x="51" y="326.7" style="fill:url(#SVGID_2_);" width="349" height="1"></rect>
	</g>
	<g>
		<path style="fill:#B66F6F;" d="M51,347.5c0-3.1,5.3-4.9,5.3-7.7c0-1.1-0.7-2-2-2c-1.3,0-1.9,0.8-2.1,1.7l-1.1-0.3
			c0.2-0.9,1-2.6,3.3-2.6c2.1,0,3.3,1.4,3.3,3.2c0,3.3-5,5.2-5.2,7.1h5.3v1.2H51V347.5z"></path>
	</g>
</g>
<g>
	<g>
		
			<linearGradient id="SVGID_3_" gradientUnits="userSpaceOnUse" x1="51" y1="217.2187" x2="400" y2="217.2187" gradientTransform="matrix(1 0 0 -1 0 490)">
			<stop offset="0" style="stop-color:#B66F6F;stop-opacity:0"></stop>
			<stop offset="1" style="stop-color:#B66F6F"></stop>
		</linearGradient>
		<rect x="51" y="272.3" style="fill:url(#SVGID_3_);" width="349" height="1"></rect>
	</g>
	<g>
		<path style="fill:#B66F6F;" d="M57.6,284.2l-2.9,3.4c1.4,0,3.3,0.9,3.3,3.3c0,2-1.5,3.5-3.6,3.5c-2.2,0-3.2-1.3-3.5-2.4l1.1-0.4
			c0.3,0.9,1,1.6,2.4,1.6c1.3,0,2.2-0.9,2.2-2.2c0-1.3-0.9-2.2-2.6-2.2h-0.9v-1l3-3.6h-4.8V283h6.3V284.2z"></path>
	</g>
</g>
<g>
	<g>
		
			<linearGradient id="SVGID_4_" gradientUnits="userSpaceOnUse" x1="51" y1="271.675" x2="400" y2="271.675" gradientTransform="matrix(1 0 0 -1 0 490)">
			<stop offset="0" style="stop-color:#B66F6F;stop-opacity:0"></stop>
			<stop offset="1" style="stop-color:#B66F6F"></stop>
		</linearGradient>
		<rect x="51" y="217.8" style="fill:url(#SVGID_4_);" width="349" height="1"></rect>
	</g>
	<g>
		<path style="fill:#B66F6F;" d="M51,235.7l5.1-7.4h1.4v7.2H59v1.2h-1.5v2.8h-1.3v-2.8H51V235.7z M56.2,235.5V230l-3.8,5.5H56.2z"></path>
	</g>
</g>
<g>
	<g>
		<path style="fill:#B66F6F;" d="M56.7,181.6c0-1.4-0.9-2.5-2.4-2.5c-0.9,0-1.4,0.4-1.9,0.7l-1.1-0.2l0.2-5.8h5.7v1.2h-4.5l-0.2,3.5
			c0.5-0.3,1.1-0.5,1.9-0.5c2.1,0,3.5,1.5,3.5,3.6c0,2.1-1.4,3.8-3.5,3.8c-2.2,0-3.2-1.3-3.5-2.4l1.1-0.4c0.3,0.9,1,1.6,2.4,1.6
			C55.9,184.1,56.7,183,56.7,181.6z"></path>
	</g>
	<g>
		
			<linearGradient id="SVGID_5_" gradientUnits="userSpaceOnUse" x1="51" y1="326.1312" x2="400" y2="326.1312" gradientTransform="matrix(1 0 0 -1 0 490)">
			<stop offset="0" style="stop-color:#B66F6F;stop-opacity:0"></stop>
			<stop offset="1" style="stop-color:#B66F6F"></stop>
		</linearGradient>
		<rect x="51" y="163.4" style="fill:url(#SVGID_5_);" width="349" height="1"></rect>
	</g>
</g>
<g>
	<g>
		<path style="fill:#B66F6F;" d="M57.7,120.2l-0.6,1c-0.4-0.3-1-0.6-1.9-0.6c-2.2,0-2.8,2.3-2.8,4.2c0.4-0.6,1.2-1.3,2.5-1.3
			c2.1,0,3.3,1.5,3.3,3.6c0,2.4-1.4,3.9-3.5,3.9c-2.8,0-3.6-2.3-3.6-4.9c0-4,1.1-6.7,4.1-6.7C56.3,119.4,57.2,119.9,57.7,120.2z
			 M56.9,127.2c0-1.4-0.8-2.5-2.2-2.5c-1.1,0-1.9,0.6-2.4,1.6c0,1.9,0.3,3.5,2.4,3.5C56,129.8,56.9,128.9,56.9,127.2z"></path>
	</g>
	<g>
		
			<linearGradient id="SVGID_6_" gradientUnits="userSpaceOnUse" x1="51" y1="380.5875" x2="400" y2="380.5875" gradientTransform="matrix(1 0 0 -1 0 490)">
			<stop offset="0" style="stop-color:#B66F6F;stop-opacity:0"></stop>
			<stop offset="1" style="stop-color:#B66F6F"></stop>
		</linearGradient>
		<rect x="51" y="108.9" style="fill:url(#SVGID_6_);" width="349" height="1"></rect>
	</g>
</g>
<g>
	<g>
		<path style="fill:#B66F6F;" d="M57.9,65v1l-4,10.2h-1.4l3.9-10H51V65H57.9z"></path>
	</g>
	<g>
		
			<linearGradient id="SVGID_7_" gradientUnits="userSpaceOnUse" x1="51" y1="435.0437" x2="400" y2="435.0437" gradientTransform="matrix(1 0 0 -1 0 490)">
			<stop offset="0" style="stop-color:#B66F6F;stop-opacity:0"></stop>
			<stop offset="1" style="stop-color:#B66F6F"></stop>
		</linearGradient>
		<rect x="51" y="54.5" style="fill:url(#SVGID_7_);" width="349" height="1"></rect>
	</g>
</g>
<g>
	<g>
		<path style="fill:#B66F6F;" d="M51,18.8c0-1.7,1.2-2.6,1.9-2.8c-0.6-0.3-1.5-1.1-1.5-2.4c0-1.8,1.4-3,3.3-3c1.9,0,3.3,1.2,3.3,3
			c0,1.3-0.9,2.1-1.5,2.4c0.7,0.3,1.9,1.2,1.9,2.8c0,2-1.5,3.3-3.7,3.3C52.5,22.1,51,20.8,51,18.8z M52.3,18.8
			c0,1.1,0.8,2.2,2.3,2.2c1.5,0,2.3-1,2.3-2.2c0-1.4-1-2.2-2.3-2.2C53.4,16.6,52.3,17.4,52.3,18.8z M56.7,13.5c0-1-0.7-1.8-2-1.8
			s-2,0.8-2,1.8c0,1,0.8,1.9,2,1.9C55.8,15.4,56.7,14.5,56.7,13.5z"></path>
	</g>
	<g>
		
			<linearGradient id="SVGID_8_" gradientUnits="userSpaceOnUse" x1="51" y1="489.5" x2="400" y2="489.5" gradientTransform="matrix(1 0 0 -1 0 490)">
			<stop offset="0" style="stop-color:#B66F6F;stop-opacity:0"></stop>
			<stop offset="1" style="stop-color:#B66F6F"></stop>
		</linearGradient>
		<rect x="51" style="fill:url(#SVGID_8_);" width="349" height="1"></rect>
	</g>
</g>
<g>
	<path style="fill:#B66F6F;" d="M170.8,484v-7.2h1.3v7.2c0,1.9,1,3,2.9,3c1.9,0,2.9-1.2,2.9-3.1v-7.2h1.3v7.2c0,2.5-1.5,4.2-4.2,4.2
		C172.3,488.3,170.8,486.6,170.8,484z"></path>
	<path style="fill:#B66F6F;" d="M185.2,485.3c0.3,0.9,1,1.7,2.4,1.7c1.2,0,2-0.7,2-1.9c0-2.8-5.2-2.1-5.2-5.7c0-1.6,1.2-2.9,3.2-2.9
		c2,0,2.9,1.4,3.2,2.1l-1.1,0.4c-0.3-0.6-0.9-1.4-2.1-1.4c-1.2,0-1.9,0.8-1.9,1.7c0,2.6,5.3,2,5.3,5.6c0,1.8-1.3,3.1-3.4,3.1
		c-2.2,0-3.2-1.4-3.5-2.5L185.2,485.3z"></path>
	<path style="fill:#B66F6F;" d="M196.1,476.9h5.3v1.2h-4v3.7h3.5v1.2h-3.5v4h4.2v1.2h-5.5V476.9z"></path>
	<path style="fill:#B66F6F;" d="M206.9,476.9h2.8c2.3,0,3.5,1.2,3.5,3.1c0,1.3-0.7,2.5-2,3l2.8,5.1h-1.4l-2.5-4.9h-1.9v4.9h-1.3
		V476.9z M209.7,482.1c1.3,0,2.1-0.6,2.1-2.1c0-1.2-0.6-2-2.2-2h-1.5v4H209.7z"></path>
	<path style="fill:#B66F6F;" d="M219.2,485.3c0.3,0.9,1,1.7,2.4,1.7c1.2,0,2-0.7,2-1.9c0-2.8-5.2-2.1-5.2-5.7c0-1.6,1.2-2.9,3.2-2.9
		c2,0,2.9,1.4,3.2,2.1l-1.1,0.4c-0.3-0.6-0.9-1.4-2.1-1.4c-1.2,0-1.9,0.8-1.9,1.7c0,2.6,5.3,2,5.3,5.6c0,1.8-1.3,3.1-3.4,3.1
		c-2.2,0-3.2-1.4-3.5-2.5L219.2,485.3z"></path>
	<path style="fill:#B66F6F;" d="M230.5,486.5c0.5,0,0.9,0.4,0.9,1c0,1.1-0.5,2-1.2,2.6l-0.6-0.6c0.3-0.2,0.7-0.7,0.8-1.2
		c-0.5-0.1-0.8-0.5-0.8-0.9C229.7,486.9,230.1,486.5,230.5,486.5z"></path>
	<path style="fill:#B66F6F;" d="M249.7,485.6l4-8.7h1.6v11.2h-1.2v-9.3l-3.8,8.3H249l-3.8-8.3v9.3H244v-11.2h1.7L249.7,485.6z"></path>
	<path style="fill:#B66F6F;" d="M261.1,476.9h1.3v10h4.2v1.2h-5.5V476.9z"></path>
	<path style="fill:#B66F6F;" d="M271.4,476.9h1.3l6.2,9.2v-9.2h1.3v11.2h-1.3l-6.2-9.1v9.1h-1.3V476.9z"></path>
</g>
<g>
	<path style="fill:#B66F6F;" d="M86.9,456.8c-2.5,0-3.2-1.9-3.2-5.1s0.7-5.1,3.2-5.1c2.5,0,3.2,1.9,3.2,5.1S89.3,456.8,86.9,456.8z
		 M86.9,455.8c1.8,0,2-1.7,2-4c0-2.3-0.2-4-2-4c-1.8,0-2,1.7-2,4C84.9,454.1,85,455.8,86.9,455.8z"></path>
	<path style="fill:#B66F6F;" d="M93.6,455.3c0.5,0,0.8,0.3,0.8,0.8c0,1-0.5,1.7-1.1,2.2l-0.5-0.5c0.2-0.2,0.6-0.6,0.7-1
		c-0.4-0.1-0.7-0.4-0.7-0.8C92.8,455.6,93.2,455.3,93.6,455.3z"></path>
	<path style="fill:#B66F6F;" d="M100.4,456.8c-2.5,0-3.2-1.9-3.2-5.1s0.7-5.1,3.2-5.1c2.5,0,3.2,1.9,3.2,5.1
		S102.8,456.8,100.4,456.8z M100.4,455.8c1.8,0,2-1.7,2-4c0-2.3-0.2-4-2-4c-1.8,0-2,1.7-2,4C98.4,454.1,98.5,455.8,100.4,455.8z"></path>
	<path style="fill:#B66F6F;" d="M111.2,453.6c0-1.2-0.8-2.2-2.1-2.2c-0.8,0-1.2,0.3-1.6,0.6l-1-0.2l0.2-5h5v1h-4l-0.1,3
		c0.4-0.3,1-0.5,1.6-0.5c1.8,0,3.1,1.3,3.1,3.1c0,1.9-1.2,3.3-3.1,3.3c-1.9,0-2.8-1.2-3.1-2.1l1-0.4c0.2,0.8,0.9,1.4,2.1,1.4
		C110.5,455.8,111.2,454.8,111.2,453.6z"></path>
</g>
<g>
	<path style="fill:#B66F6F;" d="M146.6,456.8c-2.5,0-3.2-1.9-3.2-5.1s0.7-5.1,3.2-5.1c2.5,0,3.2,1.9,3.2,5.1
		S149.1,456.8,146.6,456.8z M146.6,455.8c1.8,0,2-1.7,2-4c0-2.3-0.2-4-2-4c-1.8,0-2,1.7-2,4C144.6,454.1,144.8,455.8,146.6,455.8z"></path>
	<path style="fill:#B66F6F;" d="M153.4,455.3c0.5,0,0.8,0.3,0.8,0.8c0,1-0.5,1.7-1.1,2.2l-0.5-0.5c0.2-0.2,0.6-0.6,0.7-1
		c-0.4-0.1-0.7-0.4-0.7-0.8C152.6,455.6,152.9,455.3,153.4,455.3z"></path>
	<path style="fill:#B66F6F;" d="M156.8,447.5l1.7-0.7h0.9v9.8h-1.1V448l-1.1,0.5L156.8,447.5z"></path>
</g>
<g>
	<path style="fill:#B66F6F;" d="M194.6,456.8c-2.5,0-3.2-1.9-3.2-5.1s0.7-5.1,3.2-5.1c2.5,0,3.2,1.9,3.2,5.1S197,456.8,194.6,456.8z
		 M194.6,455.8c1.8,0,2-1.7,2-4c0-2.3-0.2-4-2-4c-1.8,0-2,1.7-2,4C192.6,454.1,192.7,455.8,194.6,455.8z"></path>
	<path style="fill:#B66F6F;" d="M201.3,455.3c0.5,0,0.8,0.3,0.8,0.8c0,1-0.5,1.7-1.1,2.2l-0.5-0.5c0.2-0.2,0.6-0.6,0.7-1
		c-0.4-0.1-0.7-0.4-0.7-0.8C200.5,455.6,200.9,455.3,201.3,455.3z"></path>
	<path style="fill:#B66F6F;" d="M204.8,456.2c0-2.7,4.7-4.3,4.7-6.8c0-1-0.6-1.7-1.8-1.7c-1.1,0-1.6,0.7-1.8,1.5l-1-0.3
		c0.2-0.8,0.9-2.3,2.9-2.3c1.9,0,2.9,1.2,2.9,2.8c0,2.9-4.4,4.5-4.5,6.2h4.7v1h-6V456.2z"></path>
	<path style="fill:#B66F6F;" d="M218.3,453.6c0-1.2-0.8-2.2-2.1-2.2c-0.8,0-1.2,0.3-1.6,0.6l-1-0.2l0.2-5h5v1h-4l-0.1,3
		c0.4-0.3,1-0.5,1.6-0.5c1.8,0,3.1,1.3,3.1,3.1c0,1.9-1.2,3.3-3.1,3.3c-1.9,0-2.8-1.2-3.1-2.1l1-0.4c0.2,0.8,0.9,1.4,2.1,1.4
		C217.6,455.8,218.3,454.8,218.3,453.6z"></path>
</g>
<g>
	<path style="fill:#B66F6F;" d="M252.5,456.8c-2.5,0-3.2-1.9-3.2-5.1s0.7-5.1,3.2-5.1c2.5,0,3.2,1.9,3.2,5.1S255,456.8,252.5,456.8z
		 M252.5,455.8c1.8,0,2-1.7,2-4c0-2.3-0.2-4-2-4c-1.8,0-2,1.7-2,4C250.5,454.1,250.7,455.8,252.5,455.8z"></path>
	<path style="fill:#B66F6F;" d="M259.3,455.3c0.5,0,0.8,0.3,0.8,0.8c0,1-0.5,1.7-1.1,2.2l-0.5-0.5c0.2-0.2,0.6-0.6,0.7-1
		c-0.4-0.1-0.7-0.4-0.7-0.8C258.5,455.6,258.8,455.3,259.3,455.3z"></path>
	<path style="fill:#B66F6F;" d="M267.7,453.6c0-1.2-0.8-2.2-2.1-2.2c-0.8,0-1.2,0.3-1.6,0.6l-1-0.2l0.2-5h5v1h-4l-0.1,3
		c0.4-0.3,1-0.5,1.6-0.5c1.8,0,3.1,1.3,3.1,3.1c0,1.9-1.2,3.3-3.1,3.3c-1.9,0-2.8-1.2-3.1-2.1l1-0.4c0.2,0.8,0.9,1.4,2.1,1.4
		C267,455.8,267.7,454.8,267.7,453.6z"></path>
</g>
<g>
	<path style="fill:#B66F6F;" d="M302.2,456.8c-2.5,0-3.2-1.9-3.2-5.1s0.7-5.1,3.2-5.1c2.5,0,3.2,1.9,3.2,5.1
		S304.6,456.8,302.2,456.8z M302.2,455.8c1.8,0,2-1.7,2-4c0-2.3-0.2-4-2-4c-1.8,0-2,1.7-2,4C300.1,454.1,300.3,455.8,302.2,455.8z"></path>
	<path style="fill:#B66F6F;" d="M308.9,455.3c0.5,0,0.8,0.3,0.8,0.8c0,1-0.5,1.7-1.1,2.2l-0.5-0.5c0.2-0.2,0.6-0.6,0.7-1
		c-0.4-0.1-0.7-0.4-0.7-0.8C308.1,455.6,308.5,455.3,308.9,455.3z"></path>
	<path style="fill:#B66F6F;" d="M318.2,446.8v0.9l-3.5,8.9h-1.2l3.4-8.8h-4.8v-1H318.2z"></path>
	<path style="fill:#B66F6F;" d="M325.5,453.6c0-1.2-0.8-2.2-2.1-2.2c-0.8,0-1.2,0.3-1.6,0.6l-1-0.2l0.2-5h5v1h-4l-0.1,3
		c0.4-0.3,1-0.5,1.6-0.5c1.8,0,3.1,1.3,3.1,3.1c0,1.9-1.2,3.3-3.1,3.3c-1.9,0-2.8-1.2-3.1-2.1l1-0.4c0.2,0.8,0.9,1.4,2.1,1.4
		C324.8,455.8,325.5,454.8,325.5,453.6z"></path>
</g>
<g>
	<path style="fill:#B66F6F;" d="M364.9,447.5l1.7-0.7h0.9v9.8h-1.1V448l-1.1,0.5L364.9,447.5z"></path>
</g>
<g>
	<g>
		
			<linearGradient id="SVGID_9_" gradientUnits="userSpaceOnUse" x1="98.6604" y1="53.8496" x2="98.6604" y2="65.2939" gradientTransform="matrix(1 0 0 -1 0 490)">
			<stop offset="0" style="stop-color:#757C97;stop-opacity:0"></stop>
			<stop offset="1" style="stop-color:#757C97"></stop>
		</linearGradient>
		<rect x="78.3" y="424.7" style="fill:url(#SVGID_9_);" width="40.7" height="11.4"></rect>
		<path style="fill:#757C97;" d="M118.5,425.2v2.6v7.9H78.8v-7.9v-2.6H118.5 M119.5,424.2H77.8v3.6v8.9h41.7v-8.9V424.2L119.5,424.2
			z"></path>
	</g>
</g>
<g>
	
		<linearGradient id="SVGID_10_" gradientUnits="userSpaceOnUse" x1="98.6904" y1="66.2939" x2="98.6904" y2="73.7529" gradientTransform="matrix(1 0 0 -1 0 490)">
		<stop offset="0" style="stop-color:#B66F6F;stop-opacity:0"></stop>
		<stop offset="1" style="stop-color:#B66F6F"></stop>
	</linearGradient>
	<rect x="78.3" y="416.2" style="fill:url(#SVGID_10_);" width="40.8" height="7.5"></rect>
	<path style="fill:#B66F6F;" d="M118.6,416.7v6.5H78.8v-6.5H118.6 M119.6,415.7H77.8v0.6v7.9h41.8v-7.9V415.7L119.6,415.7z"></path>
</g>
<g>
	<g>
		
			<linearGradient id="SVGID_11_" gradientUnits="userSpaceOnUse" x1="152.3586" y1="53.8496" x2="152.3586" y2="76.5342" gradientTransform="matrix(1 0 0 -1 0 490)">
			<stop offset="0" style="stop-color:#757C97;stop-opacity:0"></stop>
			<stop offset="1" style="stop-color:#757C97"></stop>
		</linearGradient>
		<rect x="132" y="413.5" style="fill:url(#SVGID_11_);" width="40.7" height="22.7"></rect>
		<path style="fill:#757C97;" d="M172.2,414v5.8v15.9h-39.7v-15.9V414H172.2 M173.2,413h-41.7v6.8v16.9h41.7v-16.9V413L173.2,413z"></path>
	</g>
</g>
<g>
	
		<linearGradient id="SVGID_12_" gradientUnits="userSpaceOnUse" x1="152.3887" y1="77.5342" x2="152.3887" y2="92.6357" gradientTransform="matrix(1 0 0 -1 0 490)">
		<stop offset="0" style="stop-color:#B66F6F;stop-opacity:0"></stop>
		<stop offset="1" style="stop-color:#B66F6F"></stop>
	</linearGradient>
	<rect x="132" y="397.4" style="fill:url(#SVGID_12_);" width="40.8" height="15.1"></rect>
	<path style="fill:#B66F6F;" d="M172.3,397.9v0.1v14h-39.8v-14v-0.1H172.3 M173.3,396.9h-41.8v1.1v15h41.8v-15V396.9L173.3,396.9z"></path>
</g>
<g>
	<g>
		
			<linearGradient id="SVGID_13_" gradientUnits="userSpaceOnUse" x1="206.0571" y1="53.8496" x2="206.0571" y2="113.6152" gradientTransform="matrix(1 0 0 -1 0 490)">
			<stop offset="0" style="stop-color:#757C97;stop-opacity:0"></stop>
			<stop offset="1" style="stop-color:#757C97"></stop>
		</linearGradient>
		<rect x="185.7" y="376.4" style="fill:url(#SVGID_13_);" width="40.7" height="59.8"></rect>
		<path style="fill:#757C97;" d="M225.9,376.9v16.4v42.4h-39.7v-42.4v-16.4H225.9 M226.9,375.9h-41.7v17.4v43.4h41.7v-43.4V375.9
			L226.9,375.9z"></path>
	</g>
</g>
<g>
	
		<linearGradient id="SVGID_14_" gradientUnits="userSpaceOnUse" x1="206.0869" y1="114.6152" x2="206.0869" y2="147.5898" gradientTransform="matrix(1 0 0 -1 0 490)">
		<stop offset="0" style="stop-color:#B66F6F;stop-opacity:0"></stop>
		<stop offset="1" style="stop-color:#B66F6F"></stop>
	</linearGradient>
	<rect x="185.7" y="342.4" style="fill:url(#SVGID_14_);" width="40.8" height="33"></rect>
	<path style="fill:#B66F6F;" d="M226,342.9v1.4v30.6h-39.8v-30.6v-1.4H226 M227,341.9h-41.8v2.4v31.6H227v-31.6V341.9L227,341.9z"></path>
</g>
<g>
	<g>
		
			<linearGradient id="SVGID_15_" gradientUnits="userSpaceOnUse" x1="259.7554" y1="53.8496" x2="259.7554" y2="172.3604" gradientTransform="matrix(1 0 0 -1 0 490)">
			<stop offset="0" style="stop-color:#757C97;stop-opacity:0"></stop>
			<stop offset="1" style="stop-color:#757C97"></stop>
		</linearGradient>
		<rect x="239.4" y="317.6" style="fill:url(#SVGID_15_);" width="40.7" height="118.5"></rect>
		<path style="fill:#757C97;" d="M279.6,318.1v33.2v84.4h-39.7v-84.4v-33.2H279.6 M280.6,317.1h-41.7v34.2v85.4h41.7v-85.4V317.1
			L280.6,317.1z"></path>
	</g>
</g>
<g>
	
		<linearGradient id="SVGID_16_" gradientUnits="userSpaceOnUse" x1="259.7852" y1="173.3604" x2="259.7852" y2="243.2861" gradientTransform="matrix(1 0 0 -1 0 490)">
		<stop offset="0" style="stop-color:#B66F6F;stop-opacity:0"></stop>
		<stop offset="1" style="stop-color:#B66F6F"></stop>
	</linearGradient>
	<rect x="239.4" y="246.7" style="fill:url(#SVGID_16_);" width="40.8" height="69.9"></rect>
	<path style="fill:#B66F6F;" d="M279.7,247.2v4v65h-39.8v-65v-4H279.7 M280.7,246.2h-41.8v5v66h41.8v-66V246.2L280.7,246.2z"></path>
</g>
<g>
	<g>
		
			<linearGradient id="SVGID_17_" gradientUnits="userSpaceOnUse" x1="313.4536" y1="53.8496" x2="313.4536" y2="231.7812" gradientTransform="matrix(1 0 0 -1 0 490)">
			<stop offset="0" style="stop-color:#757C97;stop-opacity:0"></stop>
			<stop offset="1" style="stop-color:#757C97"></stop>
		</linearGradient>
		<rect x="293.1" y="258.2" style="fill:url(#SVGID_17_);" width="40.7" height="177.9"></rect>
		<path style="fill:#757C97;" d="M333.3,258.7v50.1v126.8h-39.7V308.9v-50.1H333.3 M334.3,257.7h-41.7v51.1v127.8h41.7V308.9V257.7
			L334.3,257.7z"></path>
	</g>
</g>
<g>
	
		<linearGradient id="SVGID_18_" gradientUnits="userSpaceOnUse" x1="313.4834" y1="232.7812" x2="313.4834" y2="338.1704" gradientTransform="matrix(1 0 0 -1 0 490)">
		<stop offset="0" style="stop-color:#B66F6F;stop-opacity:0"></stop>
		<stop offset="1" style="stop-color:#B66F6F"></stop>
	</linearGradient>
	<rect x="293.1" y="151.8" style="fill:url(#SVGID_18_);" width="40.8" height="105.4"></rect>
	<path style="fill:#B66F6F;" d="M333.4,152.3v6.4v98h-39.8v-98v-6.4H333.4 M334.4,151.3h-41.8v7.4v99h41.8v-99V151.3L334.4,151.3z"></path>
</g>
<g>
	<g>
		
			<linearGradient id="SVGID_19_" gradientUnits="userSpaceOnUse" x1="367.1519" y1="53.8496" x2="367.1519" y2="290.6606" gradientTransform="matrix(1 0 0 -1 0 490)">
			<stop offset="0" style="stop-color:#757C97;stop-opacity:0"></stop>
			<stop offset="1" style="stop-color:#757C97"></stop>
		</linearGradient>
		<rect x="346.8" y="199.3" style="fill:url(#SVGID_19_);" width="40.7" height="236.8"></rect>
		<path style="fill:#757C97;" d="M387,199.8v67v168.8h-39.7V266.8v-67H387 M388,198.8h-41.7v68v169.8H388V266.8V198.8L388,198.8z"></path>
	</g>
</g>
<g>
	
		<linearGradient id="SVGID_20_" gradientUnits="userSpaceOnUse" x1="367.1816" y1="291.6606" x2="367.1816" y2="434.5439" gradientTransform="matrix(1 0 0 -1 0 490)">
		<stop offset="0" style="stop-color:#B66F6F;stop-opacity:0"></stop>
		<stop offset="1" style="stop-color:#B66F6F"></stop>
	</linearGradient>
	<rect x="346.8" y="55.5" style="fill:url(#SVGID_20_);" width="40.8" height="142.9"></rect>
	<path style="fill:#B66F6F;" d="M387.1,56V65v132.8h-39.8V65V56H387.1 M388.1,55h-41.8V65v133.8h41.8V65V55L388.1,55z"></path>
</g>
<rect x="51" y="435.7" style="fill:#B66F6F;" width="349" height="1"></rect>
<g>
	
		<linearGradient id="SVGID_21_" gradientUnits="userSpaceOnUse" x1="98.6904" y1="399.0172" x2="98.6904" y2="415.983" gradientTransform="matrix(1 0 0 -1 0 490)">
		<stop offset="0" style="stop-color:#B66F6F;stop-opacity:0"></stop>
		<stop offset="1" style="stop-color:#B66F6F"></stop>
	</linearGradient>
	<rect x="78.3" y="74" style="fill:url(#SVGID_21_);" width="40.8" height="17"></rect>
	<path style="fill:#B66F6F;" d="M118.6,74.5v0.3v15.7H78.8V74.8v-0.3H118.6 M119.6,73.5H77.8v1.3v16.7h41.8V74.8V73.5L119.6,73.5z"></path>
</g>
<g>
	
		<linearGradient id="SVGID_22_" gradientUnits="userSpaceOnUse" x1="98.6904" y1="344.0171" x2="98.6904" y2="360.9829" gradientTransform="matrix(1 0 0 -1 0 490)">
		<stop offset="0" style="stop-color:#757C97;stop-opacity:0"></stop>
		<stop offset="1" style="stop-color:#757C97"></stop>
	</linearGradient>
	<rect x="78.3" y="129" style="fill:url(#SVGID_22_);" width="40.8" height="17"></rect>
	<g>
		<path style="fill:#757C97;" d="M118.6,129.5v0.3v15.7H78.8v-15.7v-0.3H118.6 M119.6,128.5H77.8v1.3v16.7h41.8v-16.7V128.5
			L119.6,128.5z"></path>
	</g>
</g>
<g>
	<path style="fill:#B66F6F;" d="M130.8,81.1h-0.8v-0.9h0.8v-0.4c0-1.8,1.1-2.4,2.3-2.4c0.2,0,0.5,0,0.5,0v1c0,0-0.2,0-0.4,0
		c-0.8,0-1.3,0.4-1.3,1.5v0.4h1.6v0.9h-1.6v6.3h-1.1V81.1z"></path>
	<path style="fill:#B66F6F;" d="M137.6,80c2.1,0,3.5,1.5,3.5,3.7c0,0,0,0.2,0,0.3h-5.8c0,1.6,1.1,2.6,2.6,2.6c1.2,0,1.9-0.6,2.3-1.1
		l0.7,0.5c-0.4,0.7-1.4,1.6-3,1.6c-2.2,0-3.7-1.6-3.7-3.8C134,81.5,135.6,80,137.6,80z M139.9,83.3c-0.1-1.5-1.1-2.3-2.3-2.3
		c-1.2,0-2.3,0.9-2.3,2.3H139.9z"></path>
	<path style="fill:#B66F6F;" d="M145.5,80c2.1,0,3.5,1.5,3.5,3.7c0,0,0,0.2,0,0.3h-5.8c0,1.6,1.1,2.6,2.6,2.6c1.2,0,1.9-0.6,2.3-1.1
		l0.7,0.5c-0.4,0.7-1.4,1.6-3,1.6c-2.2,0-3.7-1.6-3.7-3.8C141.9,81.5,143.5,80,145.5,80z M147.8,83.3c-0.1-1.5-1.1-2.3-2.3-2.3
		c-1.2,0-2.3,0.9-2.3,2.3H147.8z"></path>
	<path style="fill:#B66F6F;" d="M157.2,80c2.2,0,3.8,1.6,3.8,3.8s-1.6,3.8-3.8,3.8c-2.2,0-3.8-1.6-3.8-3.8
		C153.4,81.6,155,80,157.2,80z M157.2,86.7c1.6,0,2.7-1.2,2.7-2.8c0-1.6-1.1-2.8-2.7-2.8c-1.6,0-2.7,1.2-2.7,2.8
		C154.5,85.5,155.6,86.7,157.2,86.7z"></path>
	<path style="fill:#B66F6F;" d="M168.2,82.9v4.6h-1.1v-4.6c0-1.2-0.7-1.9-1.7-1.9c-1.1,0-1.9,0.8-1.9,2v4.4h-1.1v-7.3h1.1v1.1
		c0.4-0.7,1.2-1.2,2.2-1.2C167.4,80,168.2,81.3,168.2,82.9z"></path>
	<path style="fill:#B66F6F;" d="M174.1,85.1c0.3,0.8,0.9,1.5,2.1,1.5c1,0,1.8-0.6,1.8-1.6c0-2.5-4.6-1.8-4.6-5
		c0-1.4,1.1-2.5,2.8-2.5c1.8,0,2.5,1.2,2.8,1.9l-1,0.4c-0.2-0.5-0.8-1.2-1.8-1.2c-1.1,0-1.7,0.7-1.7,1.5c0,2.2,4.6,1.8,4.6,4.9
		c0,1.5-1.1,2.7-3,2.7c-1.9,0-2.8-1.2-3.1-2.2L174.1,85.1z"></path>
	<path style="fill:#B66F6F;" d="M183,82.8c0.9,0,1.6,0.4,1.9,0.7v-0.9c0-1-0.7-1.6-1.8-1.6c-0.9,0-1.6,0.3-2.1,0.6l-0.4-0.8
		c0.5-0.3,1.5-0.8,2.7-0.8c2,0,2.8,1.1,2.8,2.7v4.8h-1l-0.1-0.6c-0.4,0.4-1,0.8-2,0.8c-1.6,0-2.8-1-2.8-2.4
		C180.2,83.9,181.4,82.8,183,82.8z M183.2,86.7c1.1,0,1.8-0.6,1.8-1.5c0-0.9-0.7-1.5-1.8-1.5c-1.1,0-1.8,0.6-1.8,1.5
		C181.4,86.1,182.1,86.7,183.2,86.7z"></path>
	<path style="fill:#B66F6F;" d="M190.2,82.8c0.9,0,1.6,0.4,1.9,0.7v-0.9c0-1-0.7-1.6-1.8-1.6c-0.9,0-1.6,0.3-2.1,0.6l-0.4-0.8
		c0.5-0.3,1.5-0.8,2.7-0.8c2,0,2.8,1.1,2.8,2.7v4.8h-1l-0.1-0.6c-0.4,0.4-1,0.8-2,0.8c-1.6,0-2.8-1-2.8-2.4
		C187.4,83.9,188.5,82.8,190.2,82.8z M190.3,86.7c1.1,0,1.8-0.6,1.8-1.5c0-0.9-0.7-1.5-1.8-1.5c-1.1,0-1.8,0.6-1.8,1.5
		C188.5,86.1,189.2,86.7,190.3,86.7z"></path>
	<path style="fill:#B66F6F;" d="M195.5,85.1c0.3,0.8,0.9,1.5,2.1,1.5c1,0,1.8-0.6,1.8-1.6c0-2.5-4.6-1.8-4.6-5
		c0-1.4,1.1-2.5,2.8-2.5c1.8,0,2.5,1.2,2.8,1.9l-1,0.4c-0.2-0.5-0.8-1.2-1.8-1.2c-1.1,0-1.7,0.7-1.7,1.5c0,2.2,4.6,1.8,4.6,4.9
		c0,1.5-1.1,2.7-3,2.7c-1.9,0-2.8-1.2-3.1-2.2L195.5,85.1z"></path>
</g>
<g>
	<path style="fill:#757C97;" d="M130.8,136.1h-0.8v-0.9h0.8v-0.4c0-1.8,1.1-2.4,2.3-2.4c0.2,0,0.5,0,0.5,0v1c0,0-0.2,0-0.4,0
		c-0.8,0-1.3,0.4-1.3,1.5v0.4h1.6v0.9h-1.6v6.3h-1.1V136.1z"></path>
	<path style="fill:#757C97;" d="M137.6,135c2.1,0,3.5,1.5,3.5,3.7c0,0,0,0.2,0,0.3h-5.8c0,1.6,1.1,2.6,2.6,2.6
		c1.2,0,1.9-0.6,2.3-1.1l0.7,0.5c-0.4,0.7-1.4,1.6-3,1.6c-2.2,0-3.7-1.6-3.7-3.8C134,136.5,135.6,135,137.6,135z M139.9,138.3
		c-0.1-1.5-1.1-2.3-2.3-2.3c-1.2,0-2.3,0.9-2.3,2.3H139.9z"></path>
	<path style="fill:#757C97;" d="M145.5,135c2.1,0,3.5,1.5,3.5,3.7c0,0,0,0.2,0,0.3h-5.8c0,1.6,1.1,2.6,2.6,2.6
		c1.2,0,1.9-0.6,2.3-1.1l0.7,0.5c-0.4,0.7-1.4,1.6-3,1.6c-2.2,0-3.7-1.6-3.7-3.8C141.9,136.5,143.5,135,145.5,135z M147.8,138.3
		c-0.1-1.5-1.1-2.3-2.3-2.3c-1.2,0-2.3,0.9-2.3,2.3H147.8z"></path>
	<path style="fill:#757C97;" d="M157.2,135c2.2,0,3.8,1.6,3.8,3.8s-1.6,3.8-3.8,3.8c-2.2,0-3.8-1.6-3.8-3.8
		C153.4,136.6,155,135,157.2,135z M157.2,141.7c1.6,0,2.7-1.2,2.7-2.8c0-1.6-1.1-2.8-2.7-2.8c-1.6,0-2.7,1.2-2.7,2.8
		C154.5,140.5,155.6,141.7,157.2,141.7z"></path>
	<path style="fill:#757C97;" d="M168.2,137.9v4.6h-1.1v-4.6c0-1.2-0.7-1.9-1.7-1.9c-1.1,0-1.9,0.8-1.9,2v4.4h-1.1v-7.3h1.1v1.1
		c0.4-0.7,1.2-1.2,2.2-1.2C167.4,135,168.2,136.3,168.2,137.9z"></path>
	<path style="fill:#757C97;" d="M176.9,136.1c-1.7,0-2.2,1.3-2.2,2.9v3.5h-1.1v-7.3h1.1v1.2c0.3-0.7,1.1-1.4,2.2-1.4V136.1z"></path>
	<path style="fill:#757C97;" d="M180.9,135c2.1,0,3.5,1.5,3.5,3.7c0,0,0,0.2,0,0.3h-5.8c0,1.6,1.1,2.6,2.6,2.6
		c1.2,0,1.9-0.6,2.3-1.1l0.7,0.5c-0.4,0.7-1.4,1.6-3,1.6c-2.2,0-3.7-1.6-3.7-3.8C177.4,136.5,179,135,180.9,135z M183.2,138.3
		c-0.1-1.5-1.1-2.3-2.3-2.3c-1.2,0-2.3,0.9-2.3,2.3H183.2z"></path>
	<path style="fill:#757C97;" d="M195.9,142.5h-1.1v-4.4c0-1.4-0.6-2.1-1.6-2.1c-1,0-1.8,0.7-1.8,2.1v4.4h-1.1v-4.6
		c0-1.2-0.6-1.9-1.7-1.9c-1,0-1.8,0.8-1.8,2v4.4h-1.1v-7.3h1.1c0,0.7,0,1.1,0,1.1c0.3-0.6,1.1-1.2,2.1-1.2c1.1,0,1.9,0.5,2.2,1.3
		c0.4-0.9,1.3-1.3,2.3-1.3c1.6,0,2.5,1.1,2.5,2.7V142.5z"></path>
	<path style="fill:#757C97;" d="M197.7,139.8v-4.6h1.1v4.6c0,1.2,0.7,1.9,1.7,1.9c1.1,0,1.9-0.8,1.9-2v-4.4h1.1v7.3h-1.1v-1.1
		c-0.3,0.7-1.2,1.2-2.2,1.2C198.6,142.7,197.7,141.4,197.7,139.8z"></path>
	<path style="fill:#757C97;" d="M211.2,137.9v4.6h-1.1v-4.6c0-1.2-0.7-1.9-1.7-1.9c-1.1,0-1.9,0.8-1.9,2v4.4h-1.1v-7.3h1.1v1.1
		c0.4-0.7,1.2-1.2,2.2-1.2C210.3,135,211.2,136.3,211.2,137.9z"></path>
	<path style="fill:#757C97;" d="M216.1,135c2.1,0,3.5,1.5,3.5,3.7c0,0,0,0.2,0,0.3h-5.8c0,1.6,1.1,2.6,2.6,2.6
		c1.2,0,1.9-0.6,2.3-1.1l0.7,0.5c-0.4,0.7-1.4,1.6-3,1.6c-2.2,0-3.7-1.6-3.7-3.8C212.6,136.5,214.2,135,216.1,135z M218.4,138.3
		c-0.1-1.5-1.1-2.3-2.3-2.3c-1.2,0-2.3,0.9-2.3,2.3H218.4z"></path>
	<path style="fill:#757C97;" d="M224.2,136.1c-1.7,0-2.2,1.3-2.2,2.9v3.5H221v-7.3h1.1v1.2c0.3-0.7,1.1-1.4,2.2-1.4V136.1z"></path>
	<path style="fill:#757C97;" d="M227.8,137.8c0.9,0,1.6,0.4,1.9,0.7v-0.9c0-1-0.7-1.6-1.8-1.6c-0.9,0-1.6,0.3-2.1,0.6l-0.4-0.8
		c0.5-0.3,1.5-0.8,2.7-0.8c2,0,2.8,1.1,2.8,2.7v4.8h-1l-0.1-0.6c-0.4,0.4-1,0.8-2,0.8c-1.6,0-2.8-1-2.8-2.4
		C225,138.9,226.1,137.8,227.8,137.8z M227.9,141.7c1.1,0,1.8-0.6,1.8-1.5c0-0.9-0.7-1.5-1.8-1.5c-1.1,0-1.8,0.6-1.8,1.5
		C226.1,141.1,226.8,141.7,227.9,141.7z"></path>
	<path style="fill:#757C97;" d="M232.7,133.7h1.1v1.5h1.6v0.9h-1.6v3.8c0,1.4,0.4,1.7,1.3,1.7c0.1,0,0.3,0,0.3,0v1c0,0-0.3,0-0.7,0
		c-1.5,0-2.1-1-2.1-2.6v-3.9h-0.9v-0.9h0.9V133.7z"></path>
	<path style="fill:#757C97;" d="M237.3,132.6c0.4,0,0.8,0.3,0.8,0.8c0,0.4-0.3,0.8-0.8,0.8c-0.4,0-0.8-0.3-0.8-0.8
		C236.5,132.9,236.9,132.6,237.3,132.6z M236.7,135.2h1.1v7.3h-1.1V135.2z"></path>
	<path style="fill:#757C97;" d="M243.1,135c2.2,0,3.8,1.6,3.8,3.8s-1.6,3.8-3.8,3.8c-2.2,0-3.8-1.6-3.8-3.8
		C239.3,136.6,240.9,135,243.1,135z M243,141.7c1.6,0,2.7-1.2,2.7-2.8c0-1.6-1.1-2.8-2.7-2.8c-1.6,0-2.7,1.2-2.7,2.8
		C240.4,140.5,241.5,141.7,243,141.7z"></path>
	<path style="fill:#757C97;" d="M254.1,137.9v4.6H253v-4.6c0-1.2-0.7-1.9-1.7-1.9c-1.1,0-1.9,0.8-1.9,2v4.4h-1.1v-7.3h1.1v1.1
		c0.4-0.7,1.2-1.2,2.2-1.2C253.2,135,254.1,136.3,254.1,137.9z"></path>
</g>
</svg>
