<?xml version="1.0"?>

<!-- Generator: Adobe Illustrator 19.1.0, SVG Export Plug-In . SVG Version: 6.00 Build 0)  -->
<svg version="1.1" id="Layer_1" xmlns="http://www.w3.org/2000/svg" xmlns:xlink="http://www.w3.org/1999/xlink" x="0px" y="0px" viewBox="0 0 400 490" style="enable-background:new 0 0 400 490;" xml:space="preserve" width="400" height="490">
<g>
	<g style="opacity:0.5;">
		<g>
			<rect x="10" y="217.7" style="fill:#1C1F2B;" width="380" height="194"></rect>
		</g>
	</g>
	<g>
		<path style="fill:#B66F6F;" d="M389,218.7v192H11v-192H389 M390,217.7H10v194h380V217.7L390,217.7z"></path>
	</g>
</g>
<g>
	<g style="opacity:0.5;">
		<g>
			<rect x="10" y="53.7" style="fill:#1C1F2B;" width="260.5" height="70"></rect>
		</g>
	</g>
	<g>
		<path style="fill:#B66F6F;" d="M269.5,54.7v68H11v-68H269.5 M270.5,53.7H10v70h260.5V53.7L270.5,53.7z"></path>
	</g>
</g>
<g>
	<path style="fill:#FFFFFF;" d="M34,71.4c-0.4-0.2-0.7-0.3-0.9-0.3S32.4,71,32.1,71c-0.4,0-0.8,0.1-1,0.2c-0.3,0.1-0.5,0.3-0.7,0.5
		S30,72.1,30,72.4c-0.1,0.3-0.1,0.6-0.1,1v1h3.6V75h-3.6v7.1h-0.7V75h-2.3v-0.5l2.3-0.1v-0.9c0-1,0.2-1.7,0.7-2.3
		c0.5-0.5,1.2-0.8,2.2-0.8c0.3,0,0.7,0,1,0.1c0.4,0.1,0.7,0.2,1.1,0.4L34,71.4z"></path>
	<path style="fill:#FFFFFF;" d="M35.7,78.2c0-0.6,0.1-1.2,0.3-1.7c0.2-0.5,0.5-0.9,0.8-1.3c0.3-0.3,0.7-0.6,1.2-0.8
		c0.5-0.2,0.9-0.3,1.4-0.3s1,0.1,1.4,0.3c0.5,0.2,0.8,0.4,1.2,0.8s0.6,0.8,0.8,1.3c0.2,0.5,0.3,1.1,0.3,1.7c0,0.6-0.1,1.2-0.3,1.7
		c-0.2,0.5-0.5,0.9-0.8,1.3s-0.7,0.6-1.2,0.8c-0.5,0.2-0.9,0.3-1.4,0.3s-1-0.1-1.4-0.3c-0.5-0.2-0.9-0.4-1.2-0.8
		c-0.3-0.3-0.6-0.8-0.8-1.3S35.7,78.9,35.7,78.2z M36.4,78.2c0,0.5,0.1,1,0.2,1.4c0.1,0.4,0.4,0.8,0.6,1.1c0.3,0.3,0.6,0.5,0.9,0.7
		c0.4,0.2,0.8,0.2,1.2,0.2c0.4,0,0.8-0.1,1.2-0.2c0.4-0.2,0.7-0.4,0.9-0.7c0.3-0.3,0.5-0.7,0.6-1.1c0.1-0.4,0.2-0.9,0.2-1.4
		c0-0.5-0.1-1-0.2-1.4s-0.4-0.8-0.6-1.1c-0.3-0.3-0.6-0.5-0.9-0.7c-0.4-0.2-0.8-0.2-1.2-0.2c-0.4,0-0.8,0.1-1.2,0.2
		c-0.4,0.2-0.7,0.4-0.9,0.7c-0.3,0.3-0.5,0.7-0.6,1.1S36.4,77.7,36.4,78.2z"></path>
	<path style="fill:#FFFFFF;" d="M46.8,74.4h0.6l0.1,1.9h0c0.4-0.6,0.9-1.1,1.5-1.5c0.6-0.4,1.3-0.6,2.1-0.6c0.3,0,0.5,0,0.8,0.1
		c0.3,0,0.5,0.1,0.8,0.3l-0.2,0.6C52.2,75,52,75,51.8,74.9c-0.2,0-0.4-0.1-0.7-0.1c-0.6,0-1.3,0.2-1.8,0.5c-0.6,0.4-1.1,1-1.7,1.9
		v4.8h-0.7V74.4z"></path>
	<path style="fill:#FFFFFF;" d="M65,74.4h4.6v7.7h-0.7V75H65V74.4z M69,72.5c-0.2,0-0.4-0.1-0.5-0.2c-0.1-0.1-0.2-0.3-0.2-0.6
		c0-0.2,0.1-0.4,0.2-0.6c0.1-0.1,0.3-0.2,0.5-0.2c0.2,0,0.4,0.1,0.5,0.2c0.1,0.1,0.2,0.3,0.2,0.6c0,0.2-0.1,0.4-0.2,0.6
		C69.4,72.5,69.2,72.5,69,72.5z"></path>
	<path style="fill:#FFFFFF;" d="M84.2,74.4h4.6v7.7H88V75h-3.9V74.4z M88.2,72.5c-0.2,0-0.4-0.1-0.5-0.2c-0.1-0.1-0.2-0.3-0.2-0.6
		c0-0.2,0.1-0.4,0.2-0.6c0.1-0.1,0.3-0.2,0.5-0.2c0.2,0,0.4,0.1,0.5,0.2c0.1,0.1,0.2,0.3,0.2,0.6c0,0.2-0.1,0.4-0.2,0.6
		C88.6,72.5,88.4,72.5,88.2,72.5z"></path>
	<path style="fill:#FFFFFF;" d="M93.9,74.4h0.6l0.1,1.5h0.1c0.4-0.5,0.9-0.9,1.4-1.2c0.5-0.3,1-0.5,1.6-0.5c1.8,0,2.8,1,2.8,3.1v4.8
		h-0.7v-4.7c0-0.9-0.2-1.5-0.5-1.9s-0.9-0.6-1.7-0.6c-0.3,0-0.5,0-0.8,0.1c-0.2,0.1-0.5,0.2-0.7,0.3s-0.5,0.3-0.7,0.5
		c-0.2,0.2-0.5,0.5-0.8,0.8v5.5h-0.7V74.4z"></path>
	<path style="fill:#FFFFFF;" d="M114,74.4h0.6l0.1,1.9h0c0.4-0.6,0.9-1.1,1.5-1.5c0.6-0.4,1.3-0.6,2.1-0.6c0.3,0,0.5,0,0.8,0.1
		c0.3,0,0.5,0.1,0.8,0.3l-0.2,0.6c-0.3-0.1-0.5-0.2-0.7-0.2c-0.2,0-0.4-0.1-0.7-0.1c-0.6,0-1.3,0.2-1.8,0.5c-0.6,0.4-1.1,1-1.7,1.9
		v4.8H114V74.4z"></path>
	<path style="fill:#FFFFFF;" d="M122.5,80.1c0-0.4,0.1-0.8,0.3-1.1c0.2-0.3,0.6-0.6,1-0.8c0.5-0.2,1.1-0.4,1.8-0.6
		c0.7-0.1,1.6-0.3,2.7-0.4c0-0.3,0-0.6-0.1-0.9c-0.1-0.3-0.2-0.6-0.4-0.8c-0.2-0.2-0.4-0.4-0.7-0.5c-0.3-0.1-0.7-0.2-1.1-0.2
		c-0.3,0-0.6,0-0.8,0.1s-0.5,0.1-0.8,0.3c-0.3,0.1-0.5,0.2-0.7,0.3c-0.2,0.1-0.4,0.2-0.6,0.3l-0.3-0.5c0.1-0.1,0.3-0.2,0.6-0.4
		c0.2-0.1,0.5-0.3,0.8-0.4c0.3-0.1,0.6-0.2,0.9-0.3c0.3-0.1,0.7-0.1,1-0.1c0.5,0,1,0.1,1.3,0.2c0.4,0.2,0.7,0.4,0.9,0.6
		s0.4,0.6,0.5,0.9c0.1,0.4,0.2,0.7,0.2,1.2v4.9h-0.6l-0.1-1.2h0c-0.4,0.4-1,0.7-1.5,0.9c-0.6,0.3-1.1,0.4-1.7,0.4
		c-0.3,0-0.7,0-1-0.1c-0.3-0.1-0.6-0.2-0.9-0.4c-0.2-0.2-0.4-0.4-0.6-0.7S122.5,80.5,122.5,80.1z M123.2,80.1c0,0.3,0.1,0.5,0.2,0.7
		s0.3,0.3,0.5,0.5s0.4,0.2,0.7,0.3c0.3,0.1,0.5,0.1,0.8,0.1c0.9,0,2-0.5,3.1-1.4v-2.5c-1,0.1-1.8,0.2-2.5,0.3
		c-0.7,0.1-1.2,0.3-1.6,0.5s-0.7,0.4-0.9,0.7C123.3,79.5,123.2,79.8,123.2,80.1z"></path>
	<path style="fill:#FFFFFF;" d="M132.3,74.4h0.6l0.1,1.5h0.1c0.4-0.5,0.9-0.9,1.4-1.2c0.5-0.3,1-0.5,1.6-0.5c1.8,0,2.8,1,2.8,3.1
		v4.8h-0.7v-4.7c0-0.9-0.2-1.5-0.5-1.9s-0.9-0.6-1.7-0.6c-0.3,0-0.5,0-0.8,0.1c-0.2,0.1-0.5,0.2-0.7,0.3s-0.5,0.3-0.7,0.5
		c-0.2,0.2-0.5,0.5-0.8,0.8v5.5h-0.7V74.4z"></path>
	<path style="fill:#FFFFFF;" d="M141.5,83.5c0-0.3,0.1-0.6,0.3-0.9c0.2-0.3,0.5-0.6,1-0.9v-0.1c-0.2-0.1-0.4-0.2-0.5-0.4
		c-0.2-0.2-0.3-0.5-0.3-0.8c0-0.2,0.1-0.5,0.2-0.8c0.2-0.3,0.4-0.5,0.7-0.7v-0.1c-0.2-0.2-0.5-0.5-0.6-0.8s-0.3-0.7-0.3-1.2
		c0-0.4,0.1-0.8,0.2-1.1s0.4-0.6,0.6-0.9c0.3-0.2,0.6-0.4,0.9-0.6c0.3-0.1,0.7-0.2,1.1-0.2s0.7,0.1,1.1,0.2h3.2V75h-2.3
		c0.2,0.2,0.5,0.5,0.6,0.8c0.2,0.3,0.3,0.7,0.3,1.1c0,0.4-0.1,0.8-0.2,1.1c-0.1,0.3-0.4,0.6-0.6,0.8c-0.3,0.2-0.6,0.4-0.9,0.6
		c-0.3,0.1-0.7,0.2-1.1,0.2c-0.2,0-0.5,0-0.7-0.1c-0.3-0.1-0.5-0.1-0.7-0.3c-0.2,0.1-0.4,0.3-0.5,0.5c-0.1,0.2-0.2,0.4-0.2,0.6
		c0,0.4,0.2,0.6,0.5,0.8c0.3,0.2,0.8,0.3,1.3,0.3h1.9c1,0,1.7,0.1,2.1,0.4c0.4,0.3,0.7,0.7,0.7,1.3c0,0.3-0.1,0.7-0.3,1
		c-0.2,0.3-0.5,0.6-0.8,0.8c-0.4,0.2-0.8,0.4-1.3,0.6c-0.5,0.1-1.1,0.2-1.7,0.2c-1.2,0-2.1-0.2-2.7-0.6
		C141.8,84.7,141.5,84.2,141.5,83.5z M142.2,83.5c0,0.5,0.2,0.9,0.7,1.2c0.5,0.3,1.2,0.5,2.2,0.5c0.5,0,1-0.1,1.4-0.2
		c0.4-0.1,0.8-0.3,1.1-0.4c0.3-0.2,0.5-0.4,0.7-0.6c0.2-0.2,0.2-0.5,0.2-0.7c0-0.4-0.2-0.7-0.5-0.9c-0.3-0.2-0.8-0.2-1.5-0.2h-1.8
		c-0.2,0-0.4,0-0.6,0c-0.2,0-0.4-0.1-0.6-0.1c-0.5,0.2-0.8,0.5-1,0.8S142.2,83.3,142.2,83.5z M144.9,79.1c0.3,0,0.6-0.1,0.8-0.2
		c0.3-0.1,0.5-0.2,0.7-0.4c0.2-0.2,0.4-0.4,0.5-0.7c0.1-0.3,0.2-0.6,0.2-0.9c0-0.3-0.1-0.6-0.2-0.9c-0.1-0.3-0.3-0.5-0.5-0.7
		c-0.2-0.2-0.4-0.3-0.7-0.4c-0.3-0.1-0.5-0.2-0.8-0.2c-0.3,0-0.6,0.1-0.8,0.2c-0.3,0.1-0.5,0.3-0.7,0.4c-0.2,0.2-0.3,0.4-0.5,0.7
		s-0.2,0.6-0.2,0.9c0,0.3,0.1,0.6,0.2,0.9c0.1,0.3,0.3,0.5,0.5,0.7c0.2,0.2,0.4,0.3,0.7,0.4C144.3,79,144.6,79.1,144.9,79.1z"></path>
	<path style="fill:#FFFFFF;" d="M151,78.2c0-0.6,0.1-1.2,0.3-1.7s0.5-0.9,0.9-1.3s0.8-0.6,1.2-0.8c0.5-0.2,0.9-0.3,1.4-0.3
		c0.5,0,1,0.1,1.4,0.2c0.4,0.2,0.8,0.4,1.1,0.7c0.3,0.3,0.5,0.7,0.7,1.1c0.2,0.4,0.2,0.9,0.2,1.5c0,0.1,0,0.2,0,0.3
		c0,0.1,0,0.2,0,0.3h-6.5c0,0.5,0.1,0.9,0.3,1.3c0.2,0.4,0.4,0.8,0.7,1.1c0.3,0.3,0.6,0.5,1.1,0.7c0.4,0.2,0.9,0.2,1.4,0.2
		c0.5,0,1-0.1,1.4-0.2s0.8-0.4,1.2-0.6l0.3,0.5c-0.4,0.2-0.8,0.4-1.2,0.6c-0.5,0.2-1,0.3-1.7,0.3c-0.6,0-1.1-0.1-1.6-0.3
		s-0.9-0.4-1.3-0.8c-0.4-0.3-0.7-0.8-0.9-1.3C151.1,79.4,151,78.9,151,78.2z M157.6,77.7c0-1-0.2-1.7-0.7-2.2s-1.2-0.7-2-0.7
		c-0.4,0-0.8,0.1-1.1,0.2c-0.4,0.1-0.7,0.3-0.9,0.6s-0.5,0.6-0.7,0.9c-0.2,0.4-0.3,0.8-0.4,1.2H157.6z"></path>
	<path style="fill:#FFFFFF;" d="M164,81.8c-0.7-1.2-1-2.6-1-4.2c0-1.6,0.3-3,1-4.2c0.7-1.2,1.6-2.2,2.7-3.1l0.4,0.4
		c-1.2,0.9-2,1.9-2.6,3s-0.8,2.4-0.8,3.8c0,1.4,0.3,2.7,0.8,3.8c0.5,1.1,1.4,2.1,2.6,3l-0.4,0.4C165.5,84,164.6,83,164,81.8z"></path>
	<path style="fill:#FFFFFF;" d="M177.3,81.4v0.6h-6.6v-0.6h3.1V73h-2.2v-0.5c0.5-0.1,1-0.2,1.4-0.3c0.4-0.1,0.7-0.2,1-0.4h0.5v9.6
		H177.3z"></path>
	<path style="fill:#FFFFFF;" d="M181.9,84.9c0.6-0.3,1.1-0.7,1.5-1.2c0.3-0.5,0.5-1,0.5-1.7c-0.1,0-0.2,0-0.4,0
		c-0.3,0-0.5-0.1-0.7-0.2s-0.3-0.4-0.3-0.7c0-0.3,0.1-0.6,0.3-0.7c0.2-0.2,0.4-0.2,0.7-0.2c0.4,0,0.7,0.1,0.8,0.4
		c0.2,0.3,0.3,0.7,0.3,1.2c0,0.9-0.2,1.6-0.7,2.3s-1.1,1.1-1.8,1.4L181.9,84.9z"></path>
	<path style="fill:#FFFFFF;" d="M206.1,81.4v0.6h-6.6v-0.6h3.1V73h-2.2v-0.5c0.5-0.1,1-0.2,1.4-0.3c0.4-0.1,0.7-0.2,1-0.4h0.5v9.6
		H206.1z"></path>
	<path style="fill:#FFFFFF;" d="M212.2,82.3c-1.1,0-2-0.5-2.6-1.4c-0.6-0.9-0.9-2.2-0.9-3.9c0-1.7,0.3-3,0.9-3.9s1.5-1.4,2.6-1.4
		s2,0.5,2.6,1.4c0.6,0.9,0.9,2.2,0.9,3.9c0,1.7-0.3,3-0.9,3.9C214.2,81.8,213.3,82.3,212.2,82.3z M212.2,72.3c-0.8,0-1.5,0.4-2,1.2
		c-0.5,0.8-0.8,1.9-0.8,3.5c0,1.6,0.3,2.7,0.8,3.5c0.5,0.8,1.2,1.2,2,1.2s1.5-0.4,2-1.2c0.5-0.8,0.8-2,0.8-3.5
		c0-1.6-0.3-2.7-0.8-3.5C213.7,72.6,213,72.3,212.2,72.3z M212.2,77.7c-0.2,0-0.4-0.1-0.6-0.2c-0.2-0.2-0.3-0.4-0.3-0.7
		s0.1-0.5,0.3-0.7c0.2-0.2,0.4-0.2,0.6-0.2c0.2,0,0.4,0.1,0.6,0.2c0.2,0.2,0.3,0.4,0.3,0.7s-0.1,0.5-0.3,0.7
		C212.6,77.6,212.4,77.7,212.2,77.7z"></path>
	<path style="fill:#FFFFFF;" d="M221.8,82.3c-1.1,0-2-0.5-2.6-1.4c-0.6-0.9-0.9-2.2-0.9-3.9c0-1.7,0.3-3,0.9-3.9s1.5-1.4,2.6-1.4
		s2,0.5,2.6,1.4c0.6,0.9,0.9,2.2,0.9,3.9c0,1.7-0.3,3-0.9,3.9C223.8,81.8,222.9,82.3,221.8,82.3z M221.8,72.3c-0.8,0-1.5,0.4-2,1.2
		c-0.5,0.8-0.8,1.9-0.8,3.5c0,1.6,0.3,2.7,0.8,3.5c0.5,0.8,1.2,1.2,2,1.2s1.5-0.4,2-1.2c0.5-0.8,0.8-2,0.8-3.5
		c0-1.6-0.3-2.7-0.8-3.5C223.3,72.6,222.6,72.3,221.8,72.3z M221.8,77.7c-0.2,0-0.4-0.1-0.6-0.2c-0.2-0.2-0.3-0.4-0.3-0.7
		s0.1-0.5,0.3-0.7c0.2-0.2,0.4-0.2,0.6-0.2c0.2,0,0.4,0.1,0.6,0.2c0.2,0.2,0.3,0.4,0.3,0.7s-0.1,0.5-0.3,0.7
		C222.2,77.6,222,77.7,221.8,77.7z"></path>
	<path style="fill:#FFFFFF;" d="M231.4,82.3c-1.1,0-2-0.5-2.6-1.4c-0.6-0.9-0.9-2.2-0.9-3.9c0-1.7,0.3-3,0.9-3.9s1.5-1.4,2.6-1.4
		s2,0.5,2.6,1.4c0.6,0.9,0.9,2.2,0.9,3.9c0,1.7-0.3,3-0.9,3.9C233.4,81.8,232.5,82.3,231.4,82.3z M231.4,72.3c-0.8,0-1.5,0.4-2,1.2
		c-0.5,0.8-0.8,1.9-0.8,3.5c0,1.6,0.3,2.7,0.8,3.5c0.5,0.8,1.2,1.2,2,1.2s1.5-0.4,2-1.2c0.5-0.8,0.8-2,0.8-3.5
		c0-1.6-0.3-2.7-0.8-3.5C232.9,72.6,232.2,72.3,231.4,72.3z M231.4,77.7c-0.2,0-0.4-0.1-0.6-0.2c-0.2-0.2-0.3-0.4-0.3-0.7
		s0.1-0.5,0.3-0.7c0.2-0.2,0.4-0.2,0.6-0.2c0.2,0,0.4,0.1,0.6,0.2c0.2,0.2,0.3,0.4,0.3,0.7s-0.1,0.5-0.3,0.7
		C231.8,77.6,231.6,77.7,231.4,77.7z"></path>
	<path style="fill:#FFFFFF;" d="M238.1,84.4c1.2-0.9,2-1.9,2.6-3c0.5-1.1,0.8-2.4,0.8-3.8c0-1.4-0.3-2.7-0.8-3.8
		c-0.5-1.1-1.4-2.1-2.6-3l0.4-0.4c1.2,0.8,2.1,1.9,2.7,3.1c0.7,1.2,1,2.6,1,4.2c0,1.6-0.3,3-1,4.2s-1.6,2.2-2.7,3.1L238.1,84.4z"></path>
	<path style="fill:#FFFFFF;" d="M249.6,75.2c0-0.3,0.1-0.6,0.3-0.8c0.2-0.2,0.4-0.3,0.7-0.3s0.5,0.1,0.7,0.3
		c0.2,0.2,0.3,0.4,0.3,0.8c0,0.3-0.1,0.6-0.3,0.8c-0.2,0.2-0.4,0.3-0.7,0.3s-0.5-0.1-0.7-0.3C249.7,75.8,249.6,75.5,249.6,75.2z
		 M249.6,81.2c0-0.3,0.1-0.6,0.3-0.8s0.4-0.3,0.7-0.3s0.5,0.1,0.7,0.3s0.3,0.4,0.3,0.8c0,0.3-0.1,0.6-0.3,0.8s-0.4,0.3-0.7,0.3
		s-0.5-0.1-0.7-0.3S249.6,81.5,249.6,81.2z"></path>
	<path style="fill:#FFFFFF;" d="M26.1,102.2c0-0.6,0.1-1.2,0.3-1.7s0.5-0.9,0.8-1.3s0.7-0.6,1.2-0.8c0.4-0.2,0.9-0.3,1.4-0.3
		c0.5,0,1,0.1,1.4,0.3s0.8,0.5,1.2,0.8l0-1.6v-3.2h0.7v11.5h-0.6l-0.1-1.1h0c-0.3,0.4-0.7,0.7-1.2,0.9c-0.5,0.3-1,0.4-1.5,0.4
		c-0.5,0-1-0.1-1.4-0.3c-0.4-0.2-0.8-0.4-1.1-0.8c-0.3-0.3-0.5-0.8-0.7-1.3C26.2,103.5,26.1,102.9,26.1,102.2z M26.8,102.2
		c0,0.5,0.1,1,0.2,1.4s0.3,0.8,0.5,1.1c0.2,0.3,0.5,0.5,0.9,0.7c0.3,0.2,0.7,0.2,1.2,0.2c0.4,0,0.9-0.1,1.3-0.4
		c0.4-0.2,0.9-0.6,1.3-1V100c-0.4-0.4-0.9-0.7-1.3-0.9c-0.4-0.2-0.8-0.3-1.2-0.3c-0.4,0-0.8,0.1-1.1,0.3c-0.4,0.2-0.7,0.4-0.9,0.7
		c-0.3,0.3-0.5,0.7-0.6,1.1S26.8,101.8,26.8,102.2z"></path>
	<path style="fill:#FFFFFF;" d="M35.7,102.2c0-0.6,0.1-1.2,0.3-1.7c0.2-0.5,0.5-0.9,0.8-1.3c0.3-0.3,0.7-0.6,1.2-0.8
		c0.5-0.2,0.9-0.3,1.4-0.3s1,0.1,1.4,0.3c0.5,0.2,0.8,0.4,1.2,0.8s0.6,0.8,0.8,1.3c0.2,0.5,0.3,1.1,0.3,1.7c0,0.6-0.1,1.2-0.3,1.7
		c-0.2,0.5-0.5,0.9-0.8,1.3s-0.7,0.6-1.2,0.8c-0.5,0.2-0.9,0.3-1.4,0.3s-1-0.1-1.4-0.3c-0.5-0.2-0.9-0.4-1.2-0.8
		c-0.3-0.3-0.6-0.8-0.8-1.3S35.7,102.9,35.7,102.2z M36.4,102.2c0,0.5,0.1,1,0.2,1.4c0.1,0.4,0.4,0.8,0.6,1.1
		c0.3,0.3,0.6,0.5,0.9,0.7c0.4,0.2,0.8,0.2,1.2,0.2c0.4,0,0.8-0.1,1.2-0.2c0.4-0.2,0.7-0.4,0.9-0.7c0.3-0.3,0.5-0.7,0.6-1.1
		c0.1-0.4,0.2-0.9,0.2-1.4c0-0.5-0.1-1-0.2-1.4s-0.4-0.8-0.6-1.1c-0.3-0.3-0.6-0.5-0.9-0.7c-0.4-0.2-0.8-0.2-1.2-0.2
		c-0.4,0-0.8,0.1-1.2,0.2c-0.4,0.2-0.7,0.4-0.9,0.7c-0.3,0.3-0.5,0.7-0.6,1.1S36.4,101.7,36.4,102.2z"></path>
	<path style="fill:#FFFFFF;" d="M52.8,107.3v0.7h-7.7v-0.7H52.8z"></path>
	<path style="fill:#FFFFFF;" d="M55.5,104.5c0.4,0.3,0.9,0.6,1.4,0.8c0.5,0.2,1.2,0.3,2,0.3c0.8,0,1.4-0.2,1.8-0.5
		c0.4-0.3,0.6-0.7,0.6-1.1c0-0.2,0-0.3-0.1-0.5s-0.2-0.3-0.4-0.4c-0.2-0.1-0.5-0.3-0.8-0.4c-0.4-0.1-0.8-0.3-1.4-0.4
		c-0.4-0.1-0.8-0.2-1.2-0.4s-0.7-0.3-1-0.5c-0.3-0.2-0.5-0.4-0.6-0.6c-0.2-0.2-0.2-0.4-0.2-0.7c0-0.3,0.1-0.5,0.2-0.8
		c0.1-0.3,0.3-0.5,0.6-0.7c0.2-0.2,0.6-0.3,0.9-0.4c0.4-0.1,0.8-0.2,1.3-0.2c0.5,0,1,0.1,1.6,0.3c0.5,0.2,1,0.4,1.4,0.7l-0.4,0.5
		c-0.3-0.3-0.7-0.5-1.2-0.6c-0.4-0.2-0.9-0.2-1.4-0.2c-0.4,0-0.8,0-1.1,0.1s-0.5,0.2-0.7,0.3c-0.2,0.1-0.3,0.3-0.4,0.4
		c-0.1,0.2-0.1,0.3-0.1,0.5c0,0.4,0.2,0.7,0.7,0.9c0.5,0.3,1.1,0.5,1.9,0.7c0.6,0.1,1.1,0.3,1.5,0.5s0.7,0.3,1,0.5
		c0.2,0.2,0.4,0.4,0.5,0.6c0.1,0.2,0.2,0.5,0.2,0.7c0,0.3-0.1,0.6-0.2,0.8c-0.1,0.3-0.3,0.5-0.6,0.7c-0.3,0.2-0.6,0.4-1,0.5
		s-0.8,0.2-1.3,0.2c-0.8,0-1.5-0.1-2.1-0.4c-0.6-0.2-1.2-0.5-1.6-0.9L55.5,104.5z"></path>
	<path style="fill:#FFFFFF;" d="M64.5,102.2c0-0.6,0.1-1.2,0.3-1.7c0.2-0.5,0.5-0.9,0.8-1.3c0.3-0.3,0.7-0.6,1.2-0.8
		c0.5-0.2,0.9-0.3,1.4-0.3s1,0.1,1.4,0.3c0.5,0.2,0.8,0.4,1.2,0.8s0.6,0.8,0.8,1.3c0.2,0.5,0.3,1.1,0.3,1.7c0,0.6-0.1,1.2-0.3,1.7
		c-0.2,0.5-0.5,0.9-0.8,1.3s-0.7,0.6-1.2,0.8c-0.5,0.2-0.9,0.3-1.4,0.3s-1-0.1-1.4-0.3c-0.5-0.2-0.9-0.4-1.2-0.8
		c-0.3-0.3-0.6-0.8-0.8-1.3S64.5,102.9,64.5,102.2z M65.2,102.2c0,0.5,0.1,1,0.2,1.4c0.1,0.4,0.4,0.8,0.6,1.1
		c0.3,0.3,0.6,0.5,0.9,0.7c0.4,0.2,0.8,0.2,1.2,0.2c0.4,0,0.8-0.1,1.2-0.2c0.4-0.2,0.7-0.4,0.9-0.7c0.3-0.3,0.5-0.7,0.6-1.1
		c0.1-0.4,0.2-0.9,0.2-1.4c0-0.5-0.1-1-0.2-1.4s-0.4-0.8-0.6-1.1c-0.3-0.3-0.6-0.5-0.9-0.7c-0.4-0.2-0.8-0.2-1.2-0.2
		c-0.4,0-0.8,0.1-1.2,0.2c-0.4,0.2-0.7,0.4-0.9,0.7c-0.3,0.3-0.5,0.7-0.6,1.1S65.2,101.7,65.2,102.2z"></path>
	<path style="fill:#FFFFFF;" d="M74.2,98.4h0.6l0.1,1h0c0.2-0.4,0.5-0.7,0.7-0.9c0.3-0.2,0.6-0.3,1-0.3c0.8,0,1.3,0.5,1.5,1.4
		c0.3-0.4,0.6-0.8,0.8-1c0.3-0.2,0.6-0.4,1.1-0.4c0.5,0,0.9,0.2,1.2,0.6c0.3,0.4,0.4,1,0.4,1.7v5.6H81v-5.5c0-1.2-0.4-1.7-1.1-1.7
		c-0.3,0-0.6,0.1-0.9,0.4c-0.3,0.2-0.5,0.6-0.8,1.1v5.8h-0.6v-5.5c0-1.2-0.4-1.7-1.1-1.7c-0.4,0-0.7,0.1-0.9,0.4
		c-0.3,0.2-0.5,0.6-0.7,1.1v5.8h-0.7V98.4z"></path>
	<path style="fill:#FFFFFF;" d="M83.8,102.2c0-0.6,0.1-1.2,0.3-1.7s0.5-0.9,0.9-1.3s0.8-0.6,1.2-0.8c0.5-0.2,0.9-0.3,1.4-0.3
		c0.5,0,1,0.1,1.4,0.2c0.4,0.2,0.8,0.4,1.1,0.7c0.3,0.3,0.5,0.7,0.7,1.1c0.2,0.4,0.2,0.9,0.2,1.5c0,0.1,0,0.2,0,0.3
		c0,0.1,0,0.2,0,0.3h-6.5c0,0.5,0.1,0.9,0.3,1.3c0.2,0.4,0.4,0.8,0.7,1.1c0.3,0.3,0.6,0.5,1.1,0.7c0.4,0.2,0.9,0.2,1.4,0.2
		c0.5,0,1-0.1,1.4-0.2s0.8-0.4,1.2-0.6l0.3,0.5c-0.4,0.2-0.8,0.4-1.2,0.6c-0.5,0.2-1,0.3-1.7,0.3c-0.6,0-1.1-0.1-1.6-0.3
		s-0.9-0.4-1.3-0.8c-0.4-0.3-0.7-0.8-0.9-1.3C83.9,103.4,83.8,102.9,83.8,102.2z M90.4,101.7c0-1-0.2-1.7-0.7-2.2s-1.2-0.7-2-0.7
		c-0.4,0-0.8,0.1-1.1,0.2c-0.4,0.1-0.7,0.3-0.9,0.6s-0.5,0.6-0.7,0.9c-0.2,0.4-0.3,0.8-0.4,1.2H90.4z"></path>
	<path style="fill:#FFFFFF;" d="M95.8,99h-2.3v-0.5l2.3-0.1l0.1-2.2h0.6v2.2h4.1V99h-4.1v4.3c0,0.4,0,0.7,0.1,1
		c0.1,0.3,0.2,0.5,0.3,0.8s0.4,0.4,0.6,0.5c0.3,0.1,0.6,0.2,1,0.2c0.4,0,0.8,0,1.1-0.1c0.3-0.1,0.7-0.2,1-0.3l0.2,0.5
		c-0.3,0.1-0.7,0.3-1.2,0.4s-0.8,0.1-1.2,0.1c-0.5,0-1-0.1-1.3-0.2c-0.4-0.1-0.6-0.4-0.8-0.6s-0.4-0.6-0.4-1
		c-0.1-0.4-0.1-0.8-0.1-1.3V99z"></path>
	<path style="fill:#FFFFFF;" d="M103.5,94.6h0.7v3.3l0,2c0.5-0.5,1-0.9,1.4-1.2c0.5-0.3,1-0.5,1.7-0.5c1.8,0,2.8,1,2.8,3.1v4.8h-0.7
		v-4.7c0-0.9-0.2-1.5-0.5-1.9s-0.9-0.6-1.7-0.6c-0.3,0-0.5,0-0.8,0.1c-0.2,0.1-0.5,0.2-0.7,0.3s-0.5,0.3-0.7,0.5
		c-0.2,0.2-0.5,0.5-0.8,0.8v5.5h-0.7V94.6z"></path>
	<path style="fill:#FFFFFF;" d="M113,98.4h4.6v7.7h-0.7V99H113V98.4z M117,96.5c-0.2,0-0.4-0.1-0.5-0.2c-0.1-0.1-0.2-0.3-0.2-0.6
		c0-0.2,0.1-0.4,0.2-0.6c0.1-0.1,0.3-0.2,0.5-0.2c0.2,0,0.4,0.1,0.5,0.2c0.1,0.1,0.2,0.3,0.2,0.6c0,0.2-0.1,0.4-0.2,0.6
		C117.4,96.5,117.2,96.5,117,96.5z"></path>
	<path style="fill:#FFFFFF;" d="M122.7,98.4h0.6l0.1,1.5h0.1c0.4-0.5,0.9-0.9,1.4-1.2c0.5-0.3,1-0.5,1.6-0.5c1.8,0,2.8,1,2.8,3.1
		v4.8h-0.7v-4.7c0-0.9-0.2-1.5-0.5-1.9c-0.3-0.4-0.9-0.6-1.7-0.6c-0.3,0-0.5,0-0.8,0.1c-0.2,0.1-0.5,0.2-0.7,0.3s-0.5,0.3-0.7,0.5
		c-0.2,0.2-0.5,0.5-0.8,0.8v5.5h-0.7V98.4z"></path>
	<path style="fill:#FFFFFF;" d="M131.9,107.5c0-0.3,0.1-0.6,0.3-0.9c0.2-0.3,0.5-0.6,1-0.9v-0.1c-0.2-0.1-0.4-0.2-0.5-0.4
		c-0.2-0.2-0.3-0.5-0.3-0.8c0-0.2,0.1-0.5,0.2-0.8c0.2-0.3,0.4-0.5,0.7-0.7v-0.1c-0.2-0.2-0.5-0.5-0.6-0.8s-0.3-0.7-0.3-1.2
		c0-0.4,0.1-0.8,0.2-1.1s0.4-0.6,0.6-0.9c0.3-0.2,0.6-0.4,0.9-0.6c0.3-0.1,0.7-0.2,1.1-0.2s0.7,0.1,1.1,0.2h3.2V99h-2.3
		c0.2,0.2,0.5,0.5,0.6,0.8c0.2,0.3,0.3,0.7,0.3,1.1c0,0.4-0.1,0.8-0.2,1.1c-0.1,0.3-0.4,0.6-0.6,0.8c-0.3,0.2-0.6,0.4-0.9,0.6
		c-0.3,0.1-0.7,0.2-1.1,0.2c-0.2,0-0.5,0-0.7-0.1c-0.3-0.1-0.5-0.1-0.7-0.3c-0.2,0.1-0.4,0.3-0.5,0.5c-0.1,0.2-0.2,0.4-0.2,0.6
		c0,0.4,0.2,0.6,0.5,0.8c0.3,0.2,0.8,0.3,1.3,0.3h1.9c1,0,1.7,0.1,2.1,0.4c0.4,0.3,0.7,0.7,0.7,1.3c0,0.3-0.1,0.7-0.3,1
		c-0.2,0.3-0.5,0.6-0.8,0.8c-0.4,0.2-0.8,0.4-1.3,0.6c-0.5,0.1-1.1,0.2-1.7,0.2c-1.2,0-2.1-0.2-2.7-0.6
		C132.2,108.7,131.9,108.2,131.9,107.5z M132.6,107.5c0,0.5,0.2,0.9,0.7,1.2c0.5,0.3,1.2,0.5,2.2,0.5c0.5,0,1-0.1,1.4-0.2
		c0.4-0.1,0.8-0.3,1.1-0.4c0.3-0.2,0.5-0.4,0.7-0.6c0.2-0.2,0.2-0.5,0.2-0.7c0-0.4-0.2-0.7-0.5-0.9c-0.3-0.2-0.8-0.2-1.5-0.2H135
		c-0.2,0-0.4,0-0.6,0c-0.2,0-0.4-0.1-0.6-0.1c-0.5,0.2-0.8,0.5-1,0.8S132.6,107.3,132.6,107.5z M135.3,103.1c0.3,0,0.6-0.1,0.8-0.2
		c0.3-0.1,0.5-0.2,0.7-0.4c0.2-0.2,0.4-0.4,0.5-0.7c0.1-0.3,0.2-0.6,0.2-0.9c0-0.3-0.1-0.6-0.2-0.9c-0.1-0.3-0.3-0.5-0.5-0.7
		c-0.2-0.2-0.4-0.3-0.7-0.4c-0.3-0.1-0.5-0.2-0.8-0.2c-0.3,0-0.6,0.1-0.8,0.2c-0.3,0.1-0.5,0.3-0.7,0.4c-0.2,0.2-0.3,0.4-0.5,0.7
		s-0.2,0.6-0.2,0.9c0,0.3,0.1,0.6,0.2,0.9c0.1,0.3,0.3,0.5,0.5,0.7c0.2,0.2,0.4,0.3,0.7,0.4C134.7,103,135,103.1,135.3,103.1z"></path>
	<path style="fill:#FFFFFF;" d="M144.8,105.8c-0.7-1.2-1-2.6-1-4.2c0-1.6,0.3-3,1-4.2c0.7-1.2,1.6-2.2,2.7-3.1l0.4,0.4
		c-1.2,0.9-2,1.9-2.6,3s-0.8,2.4-0.8,3.8c0,1.4,0.3,2.7,0.8,3.8c0.5,1.1,1.4,2.1,2.6,3l-0.4,0.4C146.3,108,145.4,107,144.8,105.8z"></path>
	<path style="fill:#FFFFFF;" d="M151.3,98.4h4.6v7.7h-0.7V99h-3.9V98.4z M155.4,96.5c-0.2,0-0.4-0.1-0.5-0.2
		c-0.1-0.1-0.2-0.3-0.2-0.6c0-0.2,0.1-0.4,0.2-0.6c0.1-0.1,0.3-0.2,0.5-0.2c0.2,0,0.4,0.1,0.5,0.2c0.1,0.1,0.2,0.3,0.2,0.6
		c0,0.2-0.1,0.4-0.2,0.6C155.8,96.5,155.6,96.5,155.4,96.5z"></path>
	<path style="fill:#FFFFFF;" d="M161.3,108.4c1.2-0.9,2-1.9,2.6-3c0.5-1.1,0.8-2.4,0.8-3.8c0-1.4-0.3-2.7-0.8-3.8
		c-0.5-1.1-1.4-2.1-2.6-3l0.4-0.4c1.2,0.8,2.1,1.9,2.7,3.1c0.7,1.2,1,2.6,1,4.2c0,1.6-0.3,3-1,4.2s-1.6,2.2-2.7,3.1L161.3,108.4z"></path>
</g>
<g>
	<path style="fill:#FFFFFF;" d="M35.1,250.1c0.4,0.3,0.9,0.6,1.4,0.8c0.5,0.2,1.2,0.3,2,0.3c0.8,0,1.4-0.2,1.8-0.5
		c0.4-0.3,0.6-0.7,0.6-1.1c0-0.2,0-0.3-0.1-0.5s-0.2-0.3-0.4-0.4c-0.2-0.1-0.5-0.3-0.8-0.4c-0.4-0.1-0.8-0.3-1.4-0.4
		c-0.4-0.1-0.8-0.2-1.2-0.4s-0.7-0.3-1-0.5c-0.3-0.2-0.5-0.4-0.6-0.6c-0.2-0.2-0.2-0.4-0.2-0.7c0-0.3,0.1-0.5,0.2-0.8
		c0.1-0.3,0.3-0.5,0.6-0.7c0.2-0.2,0.6-0.3,0.9-0.4c0.4-0.1,0.8-0.2,1.3-0.2c0.5,0,1,0.1,1.6,0.3c0.5,0.2,1,0.4,1.4,0.7l-0.4,0.5
		c-0.3-0.3-0.7-0.5-1.2-0.6c-0.4-0.2-0.9-0.2-1.4-0.2c-0.4,0-0.8,0-1.1,0.1s-0.5,0.2-0.7,0.3c-0.2,0.1-0.3,0.3-0.4,0.4
		c-0.1,0.2-0.1,0.3-0.1,0.5c0,0.4,0.2,0.7,0.7,0.9c0.5,0.3,1.1,0.5,1.9,0.7c0.6,0.1,1.1,0.3,1.5,0.5s0.7,0.3,1,0.5
		c0.2,0.2,0.4,0.4,0.5,0.6c0.1,0.2,0.2,0.5,0.2,0.7c0,0.3-0.1,0.6-0.2,0.8c-0.1,0.3-0.3,0.5-0.6,0.7c-0.3,0.2-0.6,0.4-1,0.5
		s-0.8,0.2-1.3,0.2c-0.8,0-1.5-0.1-2.1-0.4c-0.6-0.2-1.2-0.5-1.6-0.9L35.1,250.1z"></path>
	<path style="fill:#FFFFFF;" d="M50.8,251.7h-0.6l-0.1-1.5h-0.1c-0.4,0.5-0.9,0.9-1.4,1.2c-0.5,0.3-1,0.5-1.7,0.5
		c-0.9,0-1.6-0.3-2.1-0.8c-0.4-0.5-0.7-1.3-0.7-2.3V244H45v4.7c0,0.9,0.2,1.5,0.5,1.9s0.9,0.6,1.7,0.6c0.3,0,0.5,0,0.8-0.1
		c0.2-0.1,0.5-0.2,0.7-0.3c0.2-0.1,0.5-0.3,0.7-0.5c0.2-0.2,0.5-0.5,0.8-0.8V244h0.7V251.7z"></path>
	<path style="fill:#FFFFFF;" d="M54.2,240.2h0.7v3.3l0,1.6c0.4-0.4,0.9-0.7,1.4-1c0.5-0.2,1-0.4,1.5-0.4c1.1,0,1.9,0.4,2.4,1.1
		c0.5,0.7,0.8,1.7,0.8,2.9c0,0.7-0.1,1.2-0.3,1.7c-0.2,0.5-0.5,0.9-0.8,1.3c-0.3,0.4-0.7,0.6-1.1,0.8c-0.4,0.2-0.9,0.3-1.4,0.3
		c-0.4,0-0.8-0.1-1.3-0.3c-0.5-0.2-0.9-0.4-1.3-0.8h0l-0.1,0.9h-0.6V240.2z M54.9,250.1c0.4,0.4,0.9,0.7,1.4,0.9
		c0.5,0.2,0.8,0.3,1.2,0.3c0.4,0,0.8-0.1,1.1-0.3c0.3-0.2,0.6-0.4,0.9-0.7c0.3-0.3,0.4-0.7,0.6-1.1c0.1-0.4,0.2-0.9,0.2-1.4
		c0-0.5,0-0.9-0.1-1.3c-0.1-0.4-0.2-0.8-0.5-1s-0.5-0.5-0.8-0.7c-0.3-0.2-0.7-0.2-1.2-0.2c-0.4,0-0.8,0.1-1.3,0.3s-1,0.6-1.4,1.1
		V250.1z"></path>
	<path style="fill:#FFFFFF;" d="M65.7,244.6h-2.3V244l2.3-0.1l0.1-2.2h0.6v2.2h4.1v0.6h-4.1v4.3c0,0.4,0,0.7,0.1,1
		c0.1,0.3,0.2,0.5,0.3,0.8s0.4,0.4,0.6,0.5c0.3,0.1,0.6,0.2,1,0.2c0.4,0,0.8,0,1.1-0.1c0.3-0.1,0.7-0.2,1-0.3l0.2,0.5
		c-0.3,0.1-0.7,0.3-1.2,0.4s-0.8,0.1-1.2,0.1c-0.5,0-1-0.1-1.3-0.2c-0.4-0.1-0.6-0.4-0.8-0.6s-0.4-0.6-0.4-1
		c-0.1-0.4-0.1-0.8-0.1-1.3V244.6z"></path>
	<path style="fill:#FFFFFF;" d="M73.2,249.7c0-0.4,0.1-0.8,0.3-1.1c0.2-0.3,0.6-0.6,1-0.8c0.5-0.2,1.1-0.4,1.8-0.6
		c0.7-0.1,1.6-0.3,2.7-0.4c0-0.3,0-0.6-0.1-0.9c-0.1-0.3-0.2-0.6-0.4-0.8c-0.2-0.2-0.4-0.4-0.7-0.5c-0.3-0.1-0.7-0.2-1.1-0.2
		c-0.3,0-0.6,0-0.8,0.1s-0.5,0.1-0.8,0.3c-0.3,0.1-0.5,0.2-0.7,0.3c-0.2,0.1-0.4,0.2-0.6,0.3l-0.3-0.5c0.1-0.1,0.3-0.2,0.6-0.4
		c0.2-0.1,0.5-0.3,0.8-0.4c0.3-0.1,0.6-0.2,0.9-0.3c0.3-0.1,0.7-0.1,1-0.1c0.5,0,1,0.1,1.3,0.2c0.4,0.2,0.7,0.4,0.9,0.6
		s0.4,0.6,0.5,0.9c0.1,0.4,0.2,0.7,0.2,1.2v4.9h-0.6l-0.1-1.2h0c-0.4,0.4-1,0.7-1.5,0.9c-0.6,0.3-1.1,0.4-1.7,0.4
		c-0.3,0-0.7,0-1-0.1c-0.3-0.1-0.6-0.2-0.9-0.4c-0.2-0.2-0.4-0.4-0.6-0.7S73.2,250.1,73.2,249.7z M73.9,249.7c0,0.3,0.1,0.5,0.2,0.7
		s0.3,0.3,0.5,0.5s0.4,0.2,0.7,0.3c0.3,0.1,0.5,0.1,0.8,0.1c0.9,0,2-0.5,3.1-1.4v-2.5c-1,0.1-1.8,0.2-2.5,0.3
		c-0.7,0.1-1.2,0.3-1.6,0.5s-0.7,0.4-0.9,0.7C74,249.1,73.9,249.4,73.9,249.7z"></path>
	<path style="fill:#FFFFFF;" d="M83.1,250.1c0.4,0.3,0.9,0.6,1.4,0.8c0.5,0.2,1.2,0.3,2,0.3c0.8,0,1.4-0.2,1.8-0.5
		c0.4-0.3,0.6-0.7,0.6-1.1c0-0.2,0-0.3-0.1-0.5s-0.2-0.3-0.4-0.4c-0.2-0.1-0.5-0.3-0.8-0.4c-0.4-0.1-0.8-0.3-1.4-0.4
		c-0.4-0.1-0.8-0.2-1.2-0.4s-0.7-0.3-1-0.5c-0.3-0.2-0.5-0.4-0.6-0.6c-0.2-0.2-0.2-0.4-0.2-0.7c0-0.3,0.1-0.5,0.2-0.8
		c0.1-0.3,0.3-0.5,0.6-0.7c0.2-0.2,0.6-0.3,0.9-0.4c0.4-0.1,0.8-0.2,1.3-0.2c0.5,0,1,0.1,1.6,0.3c0.5,0.2,1,0.4,1.4,0.7l-0.4,0.5
		c-0.3-0.3-0.7-0.5-1.2-0.6c-0.4-0.2-0.9-0.2-1.4-0.2c-0.4,0-0.8,0-1.1,0.1s-0.5,0.2-0.7,0.3c-0.2,0.1-0.3,0.3-0.4,0.4
		c-0.1,0.2-0.1,0.3-0.1,0.5c0,0.4,0.2,0.7,0.7,0.9c0.5,0.3,1.1,0.5,1.9,0.7c0.6,0.1,1.1,0.3,1.5,0.5s0.7,0.3,1,0.5
		c0.2,0.2,0.4,0.4,0.5,0.6c0.1,0.2,0.2,0.5,0.2,0.7c0,0.3-0.1,0.6-0.2,0.8c-0.1,0.3-0.3,0.5-0.6,0.7c-0.3,0.2-0.6,0.4-1,0.5
		s-0.8,0.2-1.3,0.2c-0.8,0-1.5-0.1-2.1-0.4c-0.6-0.2-1.2-0.5-1.6-0.9L83.1,250.1z"></path>
	<path style="fill:#FFFFFF;" d="M92.9,240.2h0.7v8.4h0.1l4.9-4.6h0.9l-3.2,3l3.7,4.7h-0.8l-3.3-4.3l-2.2,2.1v2.2h-0.7V240.2z"></path>
	<path style="fill:#FFFFFF;" d="M118.5,251v0.6h-6.6V251h3.1v-8.5h-2.2v-0.5c0.5-0.1,1-0.2,1.4-0.3c0.4-0.1,0.7-0.2,1-0.4h0.5v9.6
		H118.5z"></path>
	<path style="fill:#FFFFFF;" d="M123.6,244.8c0-0.3,0.1-0.6,0.3-0.8c0.2-0.2,0.4-0.3,0.7-0.3s0.5,0.1,0.7,0.3
		c0.2,0.2,0.3,0.4,0.3,0.8c0,0.3-0.1,0.6-0.3,0.8c-0.2,0.2-0.4,0.3-0.7,0.3s-0.5-0.1-0.7-0.3C123.7,245.4,123.6,245.1,123.6,244.8z
		 M123.6,250.8c0-0.3,0.1-0.6,0.3-0.8s0.4-0.3,0.7-0.3s0.5,0.1,0.7,0.3s0.3,0.4,0.3,0.8c0,0.3-0.1,0.6-0.3,0.8s-0.4,0.3-0.7,0.3
		s-0.5-0.1-0.7-0.3S123.6,251.1,123.6,250.8z"></path>
	<path style="fill:#FFFFFF;" d="M140,247.8c0-0.6,0.1-1.2,0.3-1.7s0.5-0.9,0.8-1.3s0.7-0.6,1.2-0.8c0.4-0.2,0.9-0.3,1.4-0.3
		c0.5,0,1,0.1,1.4,0.3s0.8,0.5,1.2,0.8l0-1.6v-3.2h0.7v11.5h-0.6l-0.1-1.1h0c-0.3,0.4-0.7,0.7-1.2,0.9c-0.5,0.3-1,0.4-1.5,0.4
		c-0.5,0-1-0.1-1.4-0.3c-0.4-0.2-0.8-0.4-1.1-0.8c-0.3-0.3-0.5-0.8-0.7-1.3C140.1,249.1,140,248.5,140,247.8z M140.8,247.8
		c0,0.5,0.1,1,0.2,1.4s0.3,0.8,0.5,1.1c0.2,0.3,0.5,0.5,0.9,0.7c0.3,0.2,0.7,0.2,1.2,0.2c0.4,0,0.9-0.1,1.3-0.4
		c0.4-0.2,0.9-0.6,1.3-1v-4.3c-0.4-0.4-0.9-0.7-1.3-0.9c-0.4-0.2-0.8-0.3-1.2-0.3c-0.4,0-0.8,0.1-1.1,0.3c-0.4,0.2-0.7,0.4-0.9,0.7
		c-0.3,0.3-0.5,0.7-0.6,1.1S140.8,247.4,140.8,247.8z"></path>
	<path style="fill:#FFFFFF;" d="M149.6,247.8c0-0.6,0.1-1.2,0.3-1.7c0.2-0.5,0.5-0.9,0.8-1.3c0.3-0.3,0.7-0.6,1.2-0.8
		c0.5-0.2,0.9-0.3,1.4-0.3s1,0.1,1.4,0.3c0.5,0.2,0.8,0.4,1.2,0.8s0.6,0.8,0.8,1.3c0.2,0.5,0.3,1.1,0.3,1.7c0,0.6-0.1,1.2-0.3,1.7
		c-0.2,0.5-0.5,0.9-0.8,1.3s-0.7,0.6-1.2,0.8c-0.5,0.2-0.9,0.3-1.4,0.3s-1-0.1-1.4-0.3c-0.5-0.2-0.9-0.4-1.2-0.8
		c-0.3-0.3-0.6-0.8-0.8-1.3S149.6,248.5,149.6,247.8z M150.4,247.8c0,0.5,0.1,1,0.2,1.4c0.1,0.4,0.4,0.8,0.6,1.1
		c0.3,0.3,0.6,0.5,0.9,0.7c0.4,0.2,0.8,0.2,1.2,0.2c0.4,0,0.8-0.1,1.2-0.2c0.4-0.2,0.7-0.4,0.9-0.7c0.3-0.3,0.5-0.7,0.6-1.1
		c0.1-0.4,0.2-0.9,0.2-1.4c0-0.5-0.1-1-0.2-1.4s-0.4-0.8-0.6-1.1c-0.3-0.3-0.6-0.5-0.9-0.7c-0.4-0.2-0.8-0.2-1.2-0.2
		c-0.4,0-0.8,0.1-1.2,0.2c-0.4,0.2-0.7,0.4-0.9,0.7c-0.3,0.3-0.5,0.7-0.6,1.1S150.4,247.3,150.4,247.8z"></path>
	<path style="fill:#FFFFFF;" d="M166.8,252.9v0.7h-7.7v-0.7H166.8z"></path>
	<path style="fill:#FFFFFF;" d="M169.5,250.1c0.4,0.3,0.9,0.6,1.4,0.8c0.5,0.2,1.2,0.3,2,0.3c0.8,0,1.4-0.2,1.8-0.5
		c0.4-0.3,0.6-0.7,0.6-1.1c0-0.2,0-0.3-0.1-0.5s-0.2-0.3-0.4-0.4c-0.2-0.1-0.5-0.3-0.8-0.4c-0.4-0.1-0.8-0.3-1.4-0.4
		c-0.4-0.1-0.8-0.2-1.2-0.4s-0.7-0.3-1-0.5c-0.3-0.2-0.5-0.4-0.6-0.6c-0.2-0.2-0.2-0.4-0.2-0.7c0-0.3,0.1-0.5,0.2-0.8
		c0.1-0.3,0.3-0.5,0.6-0.7c0.2-0.2,0.6-0.3,0.9-0.4c0.4-0.1,0.8-0.2,1.3-0.2c0.5,0,1,0.1,1.6,0.3c0.5,0.2,1,0.4,1.4,0.7l-0.4,0.5
		c-0.3-0.3-0.7-0.5-1.2-0.6c-0.4-0.2-0.9-0.2-1.4-0.2c-0.4,0-0.8,0-1.1,0.1s-0.5,0.2-0.7,0.3c-0.2,0.1-0.3,0.3-0.4,0.4
		c-0.1,0.2-0.1,0.3-0.1,0.5c0,0.4,0.2,0.7,0.7,0.9c0.5,0.3,1.1,0.5,1.9,0.7c0.6,0.1,1.1,0.3,1.5,0.5s0.7,0.3,1,0.5
		c0.2,0.2,0.4,0.4,0.5,0.6c0.1,0.2,0.2,0.5,0.2,0.7c0,0.3-0.1,0.6-0.2,0.8c-0.1,0.3-0.3,0.5-0.6,0.7c-0.3,0.2-0.6,0.4-1,0.5
		s-0.8,0.2-1.3,0.2c-0.8,0-1.5-0.1-2.1-0.4c-0.6-0.2-1.2-0.5-1.6-0.9L169.5,250.1z"></path>
	<path style="fill:#FFFFFF;" d="M178.4,247.8c0-0.6,0.1-1.2,0.3-1.7c0.2-0.5,0.5-0.9,0.8-1.3c0.3-0.3,0.7-0.6,1.2-0.8
		c0.5-0.2,0.9-0.3,1.4-0.3s1,0.1,1.4,0.3c0.5,0.2,0.8,0.4,1.2,0.8s0.6,0.8,0.8,1.3c0.2,0.5,0.3,1.1,0.3,1.7c0,0.6-0.1,1.2-0.3,1.7
		c-0.2,0.5-0.5,0.9-0.8,1.3s-0.7,0.6-1.2,0.8c-0.5,0.2-0.9,0.3-1.4,0.3s-1-0.1-1.4-0.3c-0.5-0.2-0.9-0.4-1.2-0.8
		c-0.3-0.3-0.6-0.8-0.8-1.3S178.4,248.5,178.4,247.8z M179.2,247.8c0,0.5,0.1,1,0.2,1.4c0.1,0.4,0.4,0.8,0.6,1.1
		c0.3,0.3,0.6,0.5,0.9,0.7c0.4,0.2,0.8,0.2,1.2,0.2c0.4,0,0.8-0.1,1.2-0.2c0.4-0.2,0.7-0.4,0.9-0.7c0.3-0.3,0.5-0.7,0.6-1.1
		c0.1-0.4,0.2-0.9,0.2-1.4c0-0.5-0.1-1-0.2-1.4s-0.4-0.8-0.6-1.1c-0.3-0.3-0.6-0.5-0.9-0.7c-0.4-0.2-0.8-0.2-1.2-0.2
		c-0.4,0-0.8,0.1-1.2,0.2c-0.4,0.2-0.7,0.4-0.9,0.7c-0.3,0.3-0.5,0.7-0.6,1.1S179.2,247.3,179.2,247.8z"></path>
	<path style="fill:#FFFFFF;" d="M188.1,244h0.6l0.1,1h0c0.2-0.4,0.5-0.7,0.7-0.9c0.3-0.2,0.6-0.3,1-0.3c0.8,0,1.3,0.5,1.5,1.4
		c0.3-0.4,0.6-0.8,0.8-1c0.3-0.2,0.6-0.4,1.1-0.4c0.5,0,0.9,0.2,1.2,0.6c0.3,0.4,0.4,1,0.4,1.7v5.6H195v-5.5c0-1.2-0.4-1.7-1.1-1.7
		c-0.3,0-0.6,0.1-0.9,0.4c-0.3,0.2-0.5,0.6-0.8,1.1v5.8h-0.6v-5.5c0-1.2-0.4-1.7-1.1-1.7c-0.4,0-0.7,0.1-0.9,0.4
		c-0.3,0.2-0.5,0.6-0.7,1.1v5.8h-0.7V244z"></path>
	<path style="fill:#FFFFFF;" d="M197.8,247.8c0-0.6,0.1-1.2,0.3-1.7s0.5-0.9,0.9-1.3s0.8-0.6,1.2-0.8c0.5-0.2,0.9-0.3,1.4-0.3
		c0.5,0,1,0.1,1.4,0.2c0.4,0.2,0.8,0.4,1.1,0.7c0.3,0.3,0.5,0.7,0.7,1.1c0.2,0.4,0.2,0.9,0.2,1.5c0,0.1,0,0.2,0,0.3
		c0,0.1,0,0.2,0,0.3h-6.5c0,0.5,0.1,0.9,0.3,1.3c0.2,0.4,0.4,0.8,0.7,1.1c0.3,0.3,0.6,0.5,1.1,0.7c0.4,0.2,0.9,0.2,1.4,0.2
		c0.5,0,1-0.1,1.4-0.2s0.8-0.4,1.2-0.6l0.3,0.5c-0.4,0.2-0.8,0.4-1.2,0.6c-0.5,0.2-1,0.3-1.7,0.3c-0.6,0-1.1-0.1-1.6-0.3
		s-0.9-0.4-1.3-0.8c-0.4-0.3-0.7-0.8-0.9-1.3C197.9,249,197.8,248.5,197.8,247.8z M204.4,247.3c0-1-0.2-1.7-0.7-2.2s-1.2-0.7-2-0.7
		c-0.4,0-0.8,0.1-1.1,0.2c-0.4,0.1-0.7,0.3-0.9,0.6s-0.5,0.6-0.7,0.9c-0.2,0.4-0.3,0.8-0.4,1.2H204.4z"></path>
	<path style="fill:#FFFFFF;" d="M209.7,244.6h-2.3V244l2.3-0.1l0.1-2.2h0.6v2.2h4.1v0.6h-4.1v4.3c0,0.4,0,0.7,0.1,1
		c0.1,0.3,0.2,0.5,0.3,0.8s0.4,0.4,0.6,0.5c0.3,0.1,0.6,0.2,1,0.2c0.4,0,0.8,0,1.1-0.1c0.3-0.1,0.7-0.2,1-0.3l0.2,0.5
		c-0.3,0.1-0.7,0.3-1.2,0.4s-0.8,0.1-1.2,0.1c-0.5,0-1-0.1-1.3-0.2c-0.4-0.1-0.6-0.4-0.8-0.6s-0.4-0.6-0.4-1
		c-0.1-0.4-0.1-0.8-0.1-1.3V244.6z"></path>
	<path style="fill:#FFFFFF;" d="M217.4,240.2h0.7v3.3l0,2c0.5-0.5,1-0.9,1.4-1.2c0.5-0.3,1-0.5,1.7-0.5c1.8,0,2.8,1,2.8,3.1v4.8
		h-0.7V247c0-0.9-0.2-1.5-0.5-1.9s-0.9-0.6-1.7-0.6c-0.3,0-0.5,0-0.8,0.1c-0.2,0.1-0.5,0.2-0.7,0.3s-0.5,0.3-0.7,0.5
		c-0.2,0.2-0.5,0.5-0.8,0.8v5.5h-0.7V240.2z"></path>
	<path style="fill:#FFFFFF;" d="M226.9,244h4.6v7.7h-0.7v-7.1h-3.9V244z M230.9,242.1c-0.2,0-0.4-0.1-0.5-0.2
		c-0.1-0.1-0.2-0.3-0.2-0.6c0-0.2,0.1-0.4,0.2-0.6c0.1-0.1,0.3-0.2,0.5-0.2c0.2,0,0.4,0.1,0.5,0.2c0.1,0.1,0.2,0.3,0.2,0.6
		c0,0.2-0.1,0.4-0.2,0.6C231.3,242.1,231.1,242.1,230.9,242.1z"></path>
	<path style="fill:#FFFFFF;" d="M236.6,244h0.6l0.1,1.5h0.1c0.4-0.5,0.9-0.9,1.4-1.2c0.5-0.3,1-0.5,1.6-0.5c1.8,0,2.8,1,2.8,3.1v4.8
		h-0.7V247c0-0.9-0.2-1.5-0.5-1.9s-0.9-0.6-1.7-0.6c-0.3,0-0.5,0-0.8,0.1c-0.2,0.1-0.5,0.2-0.7,0.3s-0.5,0.3-0.7,0.5
		c-0.2,0.2-0.5,0.5-0.8,0.8v5.5h-0.7V244z"></path>
	<path style="fill:#FFFFFF;" d="M245.9,253.1c0-0.3,0.1-0.6,0.3-0.9c0.2-0.3,0.5-0.6,1-0.9v-0.1c-0.2-0.1-0.4-0.2-0.5-0.4
		c-0.2-0.2-0.3-0.5-0.3-0.8c0-0.2,0.1-0.5,0.2-0.8c0.2-0.3,0.4-0.5,0.7-0.7v-0.1c-0.2-0.2-0.5-0.5-0.6-0.8s-0.3-0.7-0.3-1.2
		c0-0.4,0.1-0.8,0.2-1.1s0.4-0.6,0.6-0.9c0.3-0.2,0.6-0.4,0.9-0.6c0.3-0.1,0.7-0.2,1.1-0.2s0.7,0.1,1.1,0.2h3.2v0.6h-2.3
		c0.2,0.2,0.5,0.5,0.6,0.8c0.2,0.3,0.3,0.7,0.3,1.1c0,0.4-0.1,0.8-0.2,1.1c-0.1,0.3-0.4,0.6-0.6,0.8c-0.3,0.2-0.6,0.4-0.9,0.6
		c-0.3,0.1-0.7,0.2-1.1,0.2c-0.2,0-0.5,0-0.7-0.1c-0.3-0.1-0.5-0.1-0.7-0.3c-0.2,0.1-0.4,0.3-0.5,0.5c-0.1,0.2-0.2,0.4-0.2,0.6
		c0,0.4,0.2,0.6,0.5,0.8c0.3,0.2,0.8,0.3,1.3,0.3h1.9c1,0,1.7,0.1,2.1,0.4c0.4,0.3,0.7,0.7,0.7,1.3c0,0.3-0.1,0.7-0.3,1
		c-0.2,0.3-0.5,0.6-0.8,0.8c-0.4,0.2-0.8,0.4-1.3,0.6c-0.5,0.1-1.1,0.2-1.7,0.2c-1.2,0-2.1-0.2-2.7-0.6
		C246.2,254.3,245.9,253.8,245.9,253.1z M246.5,253.2c0,0.5,0.2,0.9,0.7,1.2c0.5,0.3,1.2,0.5,2.2,0.5c0.5,0,1-0.1,1.4-0.2
		c0.4-0.1,0.8-0.3,1.1-0.4c0.3-0.2,0.5-0.4,0.7-0.6c0.2-0.2,0.2-0.5,0.2-0.7c0-0.4-0.2-0.7-0.5-0.9c-0.3-0.2-0.8-0.2-1.5-0.2H249
		c-0.2,0-0.4,0-0.6,0c-0.2,0-0.4-0.1-0.6-0.1c-0.5,0.2-0.8,0.5-1,0.8S246.5,252.9,246.5,253.2z M249.2,248.7c0.3,0,0.6-0.1,0.8-0.2
		c0.3-0.1,0.5-0.2,0.7-0.4c0.2-0.2,0.4-0.4,0.5-0.7c0.1-0.3,0.2-0.6,0.2-0.9c0-0.3-0.1-0.6-0.2-0.9c-0.1-0.3-0.3-0.5-0.5-0.7
		c-0.2-0.2-0.4-0.3-0.7-0.4c-0.3-0.1-0.5-0.2-0.8-0.2c-0.3,0-0.6,0.1-0.8,0.2c-0.3,0.1-0.5,0.3-0.7,0.4c-0.2,0.2-0.3,0.4-0.5,0.7
		s-0.2,0.6-0.2,0.9c0,0.3,0.1,0.6,0.2,0.9c0.1,0.3,0.3,0.5,0.5,0.7c0.2,0.2,0.4,0.3,0.7,0.4C248.7,248.6,249,248.7,249.2,248.7z"></path>
	<path style="fill:#FFFFFF;" d="M258.7,251.4c-0.7-1.2-1-2.6-1-4.2c0-1.6,0.3-3,1-4.2c0.7-1.2,1.6-2.2,2.7-3.1l0.4,0.4
		c-1.2,0.9-2,1.9-2.6,3s-0.8,2.4-0.8,3.8c0,1.4,0.3,2.7,0.8,3.8c0.5,1.1,1.4,2.1,2.6,3l-0.4,0.4
		C260.3,253.6,259.4,252.6,258.7,251.4z"></path>
	<path style="fill:#FFFFFF;" d="M272.1,251v0.6h-6.6V251h3.1v-8.5h-2.2v-0.5c0.5-0.1,1-0.2,1.4-0.3c0.4-0.1,0.7-0.2,1-0.4h0.5v9.6
		H272.1z"></path>
	<path style="fill:#FFFFFF;" d="M275.2,254c1.2-0.9,2-1.9,2.6-3c0.5-1.1,0.8-2.4,0.8-3.8c0-1.4-0.3-2.7-0.8-3.8
		c-0.5-1.1-1.4-2.1-2.6-3l0.4-0.4c1.2,0.8,2.1,1.9,2.7,3.1c0.7,1.2,1,2.6,1,4.2c0,1.6-0.3,3-1,4.2s-1.6,2.2-2.7,3.1L275.2,254z"></path>
</g>
<g>
	<path style="fill:#FFFFFF;" d="M35.1,296.1c0.4,0.3,0.9,0.6,1.4,0.8c0.5,0.2,1.2,0.3,2,0.3c0.8,0,1.4-0.2,1.8-0.5
		c0.4-0.3,0.6-0.7,0.6-1.1c0-0.2,0-0.3-0.1-0.5c-0.1-0.2-0.2-0.3-0.4-0.4c-0.2-0.1-0.5-0.3-0.8-0.4s-0.8-0.3-1.4-0.4
		c-0.4-0.1-0.8-0.2-1.2-0.4s-0.7-0.3-1-0.5c-0.3-0.2-0.5-0.4-0.6-0.6c-0.2-0.2-0.2-0.4-0.2-0.7c0-0.3,0.1-0.5,0.2-0.8
		c0.1-0.3,0.3-0.5,0.6-0.7c0.2-0.2,0.6-0.3,0.9-0.4c0.4-0.1,0.8-0.2,1.3-0.2c0.5,0,1,0.1,1.6,0.3c0.5,0.2,1,0.4,1.4,0.7l-0.4,0.5
		c-0.3-0.3-0.7-0.5-1.2-0.6c-0.4-0.2-0.9-0.2-1.4-0.2c-0.4,0-0.8,0-1.1,0.1s-0.5,0.2-0.7,0.3c-0.2,0.1-0.3,0.3-0.4,0.4
		c-0.1,0.2-0.1,0.3-0.1,0.5c0,0.4,0.2,0.7,0.7,0.9c0.5,0.3,1.1,0.5,1.9,0.7c0.6,0.1,1.1,0.3,1.5,0.5c0.4,0.2,0.7,0.3,1,0.5
		c0.2,0.2,0.4,0.4,0.5,0.6c0.1,0.2,0.2,0.5,0.2,0.7c0,0.3-0.1,0.6-0.2,0.8c-0.1,0.3-0.3,0.5-0.6,0.7c-0.3,0.2-0.6,0.4-1,0.5
		s-0.8,0.2-1.3,0.2c-0.8,0-1.5-0.1-2.1-0.4c-0.6-0.2-1.2-0.5-1.6-0.9L35.1,296.1z"></path>
	<path style="fill:#FFFFFF;" d="M50.8,297.7h-0.6l-0.1-1.5h-0.1c-0.4,0.5-0.9,0.9-1.4,1.2c-0.5,0.3-1,0.5-1.7,0.5
		c-0.9,0-1.6-0.3-2.1-0.8c-0.4-0.5-0.7-1.3-0.7-2.3V290H45v4.7c0,0.9,0.2,1.5,0.5,1.9s0.9,0.6,1.7,0.6c0.3,0,0.5,0,0.8-0.1
		c0.2-0.1,0.5-0.2,0.7-0.3c0.2-0.1,0.5-0.3,0.7-0.5c0.2-0.2,0.5-0.5,0.8-0.8V290h0.7V297.7z"></path>
	<path style="fill:#FFFFFF;" d="M54.2,286.2h0.7v3.3l0,1.6c0.4-0.4,0.9-0.7,1.4-1c0.5-0.2,1-0.4,1.5-0.4c1.1,0,1.9,0.4,2.4,1.1
		c0.5,0.7,0.8,1.7,0.8,2.9c0,0.7-0.1,1.2-0.3,1.7c-0.2,0.5-0.5,0.9-0.8,1.3c-0.3,0.4-0.7,0.6-1.1,0.8c-0.4,0.2-0.9,0.3-1.4,0.3
		c-0.4,0-0.8-0.1-1.3-0.3c-0.5-0.2-0.9-0.4-1.3-0.8h0l-0.1,0.9h-0.6V286.2z M54.9,296.1c0.4,0.4,0.9,0.7,1.4,0.9s0.8,0.3,1.2,0.3
		c0.4,0,0.8-0.1,1.1-0.3c0.3-0.2,0.6-0.4,0.9-0.7s0.4-0.7,0.6-1.1c0.1-0.4,0.2-0.9,0.2-1.4c0-0.5,0-0.9-0.1-1.3
		c-0.1-0.4-0.2-0.8-0.5-1s-0.5-0.5-0.8-0.7c-0.3-0.2-0.7-0.2-1.2-0.2c-0.4,0-0.8,0.1-1.3,0.3s-1,0.6-1.4,1.1V296.1z"></path>
	<path style="fill:#FFFFFF;" d="M65.7,290.6h-2.3V290l2.3-0.1l0.1-2.2h0.6v2.2h4.1v0.6h-4.1v4.3c0,0.4,0,0.7,0.1,1
		c0.1,0.3,0.2,0.5,0.3,0.8s0.4,0.4,0.6,0.5c0.3,0.1,0.6,0.2,1,0.2c0.4,0,0.8,0,1.1-0.1c0.3-0.1,0.7-0.2,1-0.3l0.2,0.5
		c-0.3,0.1-0.7,0.3-1.2,0.4c-0.4,0.1-0.8,0.1-1.2,0.1c-0.5,0-1-0.1-1.3-0.2c-0.4-0.1-0.6-0.4-0.8-0.6s-0.4-0.6-0.4-1
		c-0.1-0.4-0.1-0.8-0.1-1.3V290.6z"></path>
	<path style="fill:#FFFFFF;" d="M73.2,295.7c0-0.4,0.1-0.8,0.3-1.1c0.2-0.3,0.6-0.6,1-0.8c0.5-0.2,1.1-0.4,1.8-0.6
		c0.7-0.1,1.6-0.3,2.7-0.4c0-0.3,0-0.6-0.1-0.9c-0.1-0.3-0.2-0.6-0.4-0.8c-0.2-0.2-0.4-0.4-0.7-0.5c-0.3-0.1-0.7-0.2-1.1-0.2
		c-0.3,0-0.6,0-0.8,0.1s-0.5,0.1-0.8,0.3c-0.3,0.1-0.5,0.2-0.7,0.3c-0.2,0.1-0.4,0.2-0.6,0.3l-0.3-0.5c0.1-0.1,0.3-0.2,0.6-0.4
		c0.2-0.1,0.5-0.3,0.8-0.4c0.3-0.1,0.6-0.2,0.9-0.3c0.3-0.1,0.7-0.1,1-0.1c0.5,0,1,0.1,1.3,0.2c0.4,0.2,0.7,0.4,0.9,0.6
		s0.4,0.6,0.5,0.9c0.1,0.4,0.2,0.7,0.2,1.2v4.9h-0.6l-0.1-1.2h0c-0.4,0.4-1,0.7-1.5,0.9c-0.6,0.3-1.1,0.4-1.7,0.4
		c-0.3,0-0.7,0-1-0.1c-0.3-0.1-0.6-0.2-0.9-0.4s-0.4-0.4-0.6-0.7S73.2,296.1,73.2,295.7z M73.9,295.7c0,0.3,0.1,0.5,0.2,0.7
		c0.1,0.2,0.3,0.3,0.5,0.5c0.2,0.1,0.4,0.2,0.7,0.3c0.3,0.1,0.5,0.1,0.8,0.1c0.9,0,2-0.5,3.1-1.4v-2.5c-1,0.1-1.8,0.2-2.5,0.3
		c-0.7,0.1-1.2,0.3-1.6,0.5c-0.4,0.2-0.7,0.4-0.9,0.7C74,295.1,73.9,295.4,73.9,295.7z"></path>
	<path style="fill:#FFFFFF;" d="M83.1,296.1c0.4,0.3,0.9,0.6,1.4,0.8c0.5,0.2,1.2,0.3,2,0.3c0.8,0,1.4-0.2,1.8-0.5
		c0.4-0.3,0.6-0.7,0.6-1.1c0-0.2,0-0.3-0.1-0.5c-0.1-0.2-0.2-0.3-0.4-0.4c-0.2-0.1-0.5-0.3-0.8-0.4s-0.8-0.3-1.4-0.4
		c-0.4-0.1-0.8-0.2-1.2-0.4s-0.7-0.3-1-0.5c-0.3-0.2-0.5-0.4-0.6-0.6c-0.2-0.2-0.2-0.4-0.2-0.7c0-0.3,0.1-0.5,0.2-0.8
		c0.1-0.3,0.3-0.5,0.6-0.7c0.2-0.2,0.6-0.3,0.9-0.4c0.4-0.1,0.8-0.2,1.3-0.2c0.5,0,1,0.1,1.6,0.3c0.5,0.2,1,0.4,1.4,0.7l-0.4,0.5
		c-0.3-0.3-0.7-0.5-1.2-0.6c-0.4-0.2-0.9-0.2-1.4-0.2c-0.4,0-0.8,0-1.1,0.1s-0.5,0.2-0.7,0.3c-0.2,0.1-0.3,0.3-0.4,0.4
		c-0.1,0.2-0.1,0.3-0.1,0.5c0,0.4,0.2,0.7,0.7,0.9c0.5,0.3,1.1,0.5,1.9,0.7c0.6,0.1,1.1,0.3,1.5,0.5c0.4,0.2,0.7,0.3,1,0.5
		c0.2,0.2,0.4,0.4,0.5,0.6c0.1,0.2,0.2,0.5,0.2,0.7c0,0.3-0.1,0.6-0.2,0.8c-0.1,0.3-0.3,0.5-0.6,0.7c-0.3,0.2-0.6,0.4-1,0.5
		s-0.8,0.2-1.3,0.2c-0.8,0-1.5-0.1-2.1-0.4c-0.6-0.2-1.2-0.5-1.6-0.9L83.1,296.1z"></path>
	<path style="fill:#FFFFFF;" d="M92.9,286.2h0.7v8.4h0.1l4.9-4.6h0.9l-3.2,3l3.7,4.7h-0.8l-3.3-4.3l-2.2,2.1v2.2h-0.7V286.2z"></path>
	<path style="fill:#FFFFFF;" d="M111.4,297.2c0.9-0.9,1.8-1.6,2.5-2.3c0.7-0.7,1.3-1.3,1.8-1.8s0.8-1.1,1-1.6
		c0.2-0.5,0.4-0.9,0.4-1.4c0-0.3,0-0.6-0.1-0.9c-0.1-0.3-0.2-0.5-0.5-0.7s-0.5-0.4-0.8-0.5c-0.3-0.1-0.7-0.2-1.1-0.2
		c-0.5,0-1,0.1-1.5,0.4c-0.5,0.3-0.9,0.6-1.2,1l-0.5-0.4c0.4-0.4,0.9-0.8,1.4-1.1s1.1-0.4,1.8-0.4c1,0,1.8,0.3,2.3,0.8
		c0.6,0.5,0.8,1.2,0.8,2.1c0,0.5-0.1,1-0.4,1.5c-0.2,0.5-0.6,1-1,1.6c-0.5,0.6-1,1.2-1.7,1.8c-0.7,0.6-1.4,1.3-2.2,2.1
		c0.3,0,0.6,0,1-0.1c0.3,0,0.6,0,1,0h3.9v0.6h-6.9V297.2z"></path>
	<path style="fill:#FFFFFF;" d="M123.6,290.8c0-0.3,0.1-0.6,0.3-0.8c0.2-0.2,0.4-0.3,0.7-0.3s0.5,0.1,0.7,0.3
		c0.2,0.2,0.3,0.4,0.3,0.8c0,0.3-0.1,0.6-0.3,0.8c-0.2,0.2-0.4,0.3-0.7,0.3s-0.5-0.1-0.7-0.3C123.7,291.4,123.6,291.1,123.6,290.8z
		 M123.6,296.8c0-0.3,0.1-0.6,0.3-0.8s0.4-0.3,0.7-0.3s0.5,0.1,0.7,0.3s0.3,0.4,0.3,0.8c0,0.3-0.1,0.6-0.3,0.8
		c-0.2,0.2-0.4,0.3-0.7,0.3s-0.5-0.1-0.7-0.3C123.7,297.4,123.6,297.1,123.6,296.8z"></path>
	<path style="fill:#FFFFFF;" d="M140,293.8c0-0.6,0.1-1.2,0.3-1.7s0.5-0.9,0.8-1.3s0.7-0.6,1.2-0.8c0.4-0.2,0.9-0.3,1.4-0.3
		c0.5,0,1,0.1,1.4,0.3s0.8,0.5,1.2,0.8l0-1.6v-3.2h0.7v11.5h-0.6l-0.1-1.1h0c-0.3,0.4-0.7,0.7-1.2,0.9c-0.5,0.3-1,0.4-1.5,0.4
		c-0.5,0-1-0.1-1.4-0.3s-0.8-0.4-1.1-0.8c-0.3-0.3-0.5-0.8-0.7-1.3C140.1,295.1,140,294.5,140,293.8z M140.8,293.8
		c0,0.5,0.1,1,0.2,1.4s0.3,0.8,0.5,1.1s0.5,0.5,0.9,0.7c0.3,0.2,0.7,0.2,1.2,0.2c0.4,0,0.9-0.1,1.3-0.4c0.4-0.2,0.9-0.6,1.3-1v-4.3
		c-0.4-0.4-0.9-0.7-1.3-0.9c-0.4-0.2-0.8-0.3-1.2-0.3c-0.4,0-0.8,0.1-1.1,0.3c-0.4,0.2-0.7,0.4-0.9,0.7c-0.3,0.3-0.5,0.7-0.6,1.1
		S140.8,293.4,140.8,293.8z"></path>
	<path style="fill:#FFFFFF;" d="M149.6,293.8c0-0.6,0.1-1.2,0.3-1.7c0.2-0.5,0.5-0.9,0.8-1.3c0.3-0.3,0.7-0.6,1.2-0.8
		c0.5-0.2,0.9-0.3,1.4-0.3s1,0.1,1.4,0.3c0.5,0.2,0.8,0.4,1.2,0.8s0.6,0.8,0.8,1.3c0.2,0.5,0.3,1.1,0.3,1.7c0,0.6-0.1,1.2-0.3,1.7
		c-0.2,0.5-0.5,0.9-0.8,1.3c-0.3,0.3-0.7,0.6-1.2,0.8c-0.5,0.2-0.9,0.3-1.4,0.3s-1-0.1-1.4-0.3c-0.5-0.2-0.9-0.4-1.2-0.8
		c-0.3-0.3-0.6-0.8-0.8-1.3S149.6,294.5,149.6,293.8z M150.4,293.8c0,0.5,0.1,1,0.2,1.4s0.4,0.8,0.6,1.1c0.3,0.3,0.6,0.5,0.9,0.7
		c0.4,0.2,0.8,0.2,1.2,0.2c0.4,0,0.8-0.1,1.2-0.2c0.4-0.2,0.7-0.4,0.9-0.7c0.3-0.3,0.5-0.7,0.6-1.1s0.2-0.9,0.2-1.4
		c0-0.5-0.1-1-0.2-1.4s-0.4-0.8-0.6-1.1c-0.3-0.3-0.6-0.5-0.9-0.7c-0.4-0.2-0.8-0.2-1.2-0.2c-0.4,0-0.8,0.1-1.2,0.2
		c-0.4,0.2-0.7,0.4-0.9,0.7c-0.3,0.3-0.5,0.7-0.6,1.1S150.4,293.3,150.4,293.8z"></path>
	<path style="fill:#FFFFFF;" d="M166.8,298.9v0.7h-7.7v-0.7H166.8z"></path>
	<path style="fill:#FFFFFF;" d="M169.5,296.1c0.4,0.3,0.9,0.6,1.4,0.8c0.5,0.2,1.2,0.3,2,0.3c0.8,0,1.4-0.2,1.8-0.5
		c0.4-0.3,0.6-0.7,0.6-1.1c0-0.2,0-0.3-0.1-0.5c-0.1-0.2-0.2-0.3-0.4-0.4c-0.2-0.1-0.5-0.3-0.8-0.4s-0.8-0.3-1.4-0.4
		c-0.4-0.1-0.8-0.2-1.2-0.4s-0.7-0.3-1-0.5c-0.3-0.2-0.5-0.4-0.6-0.6c-0.2-0.2-0.2-0.4-0.2-0.7c0-0.3,0.1-0.5,0.2-0.8
		c0.1-0.3,0.3-0.5,0.6-0.7c0.2-0.2,0.6-0.3,0.9-0.4c0.4-0.1,0.8-0.2,1.3-0.2c0.5,0,1,0.1,1.6,0.3c0.5,0.2,1,0.4,1.4,0.7l-0.4,0.5
		c-0.3-0.3-0.7-0.5-1.2-0.6c-0.4-0.2-0.9-0.2-1.4-0.2c-0.4,0-0.8,0-1.1,0.1s-0.5,0.2-0.7,0.3c-0.2,0.1-0.3,0.3-0.4,0.4
		c-0.1,0.2-0.1,0.3-0.1,0.5c0,0.4,0.2,0.7,0.7,0.9c0.5,0.3,1.1,0.5,1.9,0.7c0.6,0.1,1.1,0.3,1.5,0.5c0.4,0.2,0.7,0.3,1,0.5
		c0.2,0.2,0.4,0.4,0.5,0.6c0.1,0.2,0.2,0.5,0.2,0.7c0,0.3-0.1,0.6-0.2,0.8c-0.1,0.3-0.3,0.5-0.6,0.7c-0.3,0.2-0.6,0.4-1,0.5
		s-0.8,0.2-1.3,0.2c-0.8,0-1.5-0.1-2.1-0.4c-0.6-0.2-1.2-0.5-1.6-0.9L169.5,296.1z"></path>
	<path style="fill:#FFFFFF;" d="M178.4,293.8c0-0.6,0.1-1.2,0.3-1.7c0.2-0.5,0.5-0.9,0.8-1.3c0.3-0.3,0.7-0.6,1.2-0.8
		c0.5-0.2,0.9-0.3,1.4-0.3s1,0.1,1.4,0.3c0.5,0.2,0.8,0.4,1.2,0.8s0.6,0.8,0.8,1.3c0.2,0.5,0.3,1.1,0.3,1.7c0,0.6-0.1,1.2-0.3,1.7
		c-0.2,0.5-0.5,0.9-0.8,1.3c-0.3,0.3-0.7,0.6-1.2,0.8c-0.5,0.2-0.9,0.3-1.4,0.3s-1-0.1-1.4-0.3c-0.5-0.2-0.9-0.4-1.2-0.8
		c-0.3-0.3-0.6-0.8-0.8-1.3S178.4,294.5,178.4,293.8z M179.2,293.8c0,0.5,0.1,1,0.2,1.4s0.4,0.8,0.6,1.1c0.3,0.3,0.6,0.5,0.9,0.7
		c0.4,0.2,0.8,0.2,1.2,0.2c0.4,0,0.8-0.1,1.2-0.2c0.4-0.2,0.7-0.4,0.9-0.7c0.3-0.3,0.5-0.7,0.6-1.1s0.2-0.9,0.2-1.4
		c0-0.5-0.1-1-0.2-1.4s-0.4-0.8-0.6-1.1c-0.3-0.3-0.6-0.5-0.9-0.7c-0.4-0.2-0.8-0.2-1.2-0.2c-0.4,0-0.8,0.1-1.2,0.2
		c-0.4,0.2-0.7,0.4-0.9,0.7c-0.3,0.3-0.5,0.7-0.6,1.1S179.2,293.3,179.2,293.8z"></path>
	<path style="fill:#FFFFFF;" d="M188.1,290h0.6l0.1,1h0c0.2-0.4,0.5-0.7,0.7-0.9c0.3-0.2,0.6-0.3,1-0.3c0.8,0,1.3,0.5,1.5,1.4
		c0.3-0.4,0.6-0.8,0.8-1c0.3-0.2,0.6-0.4,1.1-0.4c0.5,0,0.9,0.2,1.2,0.6c0.3,0.4,0.4,1,0.4,1.7v5.6H195v-5.5c0-1.2-0.4-1.7-1.1-1.7
		c-0.3,0-0.6,0.1-0.9,0.4c-0.3,0.2-0.5,0.6-0.8,1.1v5.8h-0.6v-5.5c0-1.2-0.4-1.7-1.1-1.7c-0.4,0-0.7,0.1-0.9,0.4
		c-0.3,0.2-0.5,0.6-0.7,1.1v5.8h-0.7V290z"></path>
	<path style="fill:#FFFFFF;" d="M197.8,293.8c0-0.6,0.1-1.2,0.3-1.7s0.5-0.9,0.9-1.3s0.8-0.6,1.2-0.8c0.5-0.2,0.9-0.3,1.4-0.3
		c0.5,0,1,0.1,1.4,0.2c0.4,0.2,0.8,0.4,1.1,0.7c0.3,0.3,0.5,0.7,0.7,1.1c0.2,0.4,0.2,0.9,0.2,1.5c0,0.1,0,0.2,0,0.3
		c0,0.1,0,0.2,0,0.3h-6.5c0,0.5,0.1,0.9,0.3,1.3c0.2,0.4,0.4,0.8,0.7,1.1c0.3,0.3,0.6,0.5,1.1,0.7c0.4,0.2,0.9,0.2,1.4,0.2
		c0.5,0,1-0.1,1.4-0.2c0.4-0.2,0.8-0.4,1.2-0.6l0.3,0.5c-0.4,0.2-0.8,0.4-1.2,0.6c-0.5,0.2-1,0.3-1.7,0.3c-0.6,0-1.1-0.1-1.6-0.3
		c-0.5-0.2-0.9-0.4-1.3-0.8s-0.7-0.8-0.9-1.3C197.9,295,197.8,294.5,197.8,293.8z M204.4,293.3c0-1-0.2-1.7-0.7-2.2s-1.2-0.7-2-0.7
		c-0.4,0-0.8,0.1-1.1,0.2c-0.4,0.1-0.7,0.3-0.9,0.6s-0.5,0.6-0.7,0.9c-0.2,0.4-0.3,0.8-0.4,1.2H204.4z"></path>
	<path style="fill:#FFFFFF;" d="M209.7,290.6h-2.3V290l2.3-0.1l0.1-2.2h0.6v2.2h4.1v0.6h-4.1v4.3c0,0.4,0,0.7,0.1,1
		c0.1,0.3,0.2,0.5,0.3,0.8s0.4,0.4,0.6,0.5c0.3,0.1,0.6,0.2,1,0.2c0.4,0,0.8,0,1.1-0.1c0.3-0.1,0.7-0.2,1-0.3l0.2,0.5
		c-0.3,0.1-0.7,0.3-1.2,0.4c-0.4,0.1-0.8,0.1-1.2,0.1c-0.5,0-1-0.1-1.3-0.2c-0.4-0.1-0.6-0.4-0.8-0.6s-0.4-0.6-0.4-1
		c-0.1-0.4-0.1-0.8-0.1-1.3V290.6z"></path>
	<path style="fill:#FFFFFF;" d="M217.4,286.2h0.7v3.3l0,2c0.5-0.5,1-0.9,1.4-1.2c0.5-0.3,1-0.5,1.7-0.5c1.8,0,2.8,1,2.8,3.1v4.8
		h-0.7V293c0-0.9-0.2-1.5-0.5-1.9s-0.9-0.6-1.7-0.6c-0.3,0-0.5,0-0.8,0.1c-0.2,0.1-0.5,0.2-0.7,0.3s-0.5,0.3-0.7,0.5
		c-0.2,0.2-0.5,0.5-0.8,0.8v5.5h-0.7V286.2z"></path>
	<path style="fill:#FFFFFF;" d="M226.9,290h4.6v7.7h-0.7v-7.1h-3.9V290z M230.9,288.1c-0.2,0-0.4-0.1-0.5-0.2
		c-0.1-0.1-0.2-0.3-0.2-0.6c0-0.2,0.1-0.4,0.2-0.6c0.1-0.1,0.3-0.2,0.5-0.2c0.2,0,0.4,0.1,0.5,0.2c0.1,0.1,0.2,0.3,0.2,0.6
		c0,0.2-0.1,0.4-0.2,0.6C231.3,288.1,231.1,288.1,230.9,288.1z"></path>
	<path style="fill:#FFFFFF;" d="M236.6,290h0.6l0.1,1.5h0.1c0.4-0.5,0.9-0.9,1.4-1.2c0.5-0.3,1-0.5,1.6-0.5c1.8,0,2.8,1,2.8,3.1v4.8
		h-0.7V293c0-0.9-0.2-1.5-0.5-1.9s-0.9-0.6-1.7-0.6c-0.3,0-0.5,0-0.8,0.1c-0.2,0.1-0.5,0.2-0.7,0.3s-0.5,0.3-0.7,0.5
		c-0.2,0.2-0.5,0.5-0.8,0.8v5.5h-0.7V290z"></path>
	<path style="fill:#FFFFFF;" d="M245.9,299.1c0-0.3,0.1-0.6,0.3-0.9c0.2-0.3,0.5-0.6,1-0.9v-0.1c-0.2-0.1-0.4-0.2-0.5-0.4
		c-0.2-0.2-0.3-0.5-0.3-0.8c0-0.2,0.1-0.5,0.2-0.8c0.2-0.3,0.4-0.5,0.7-0.7v-0.1c-0.2-0.2-0.5-0.5-0.6-0.8s-0.3-0.7-0.3-1.2
		c0-0.4,0.1-0.8,0.2-1.1s0.4-0.6,0.6-0.9c0.3-0.2,0.6-0.4,0.9-0.6c0.3-0.1,0.7-0.2,1.1-0.2s0.7,0.1,1.1,0.2h3.2v0.6h-2.3
		c0.2,0.2,0.5,0.5,0.6,0.8c0.2,0.3,0.3,0.7,0.3,1.1c0,0.4-0.1,0.8-0.2,1.1c-0.1,0.3-0.4,0.6-0.6,0.8s-0.6,0.4-0.9,0.6
		c-0.3,0.1-0.7,0.2-1.1,0.2c-0.2,0-0.5,0-0.7-0.1c-0.3-0.1-0.5-0.1-0.7-0.3c-0.2,0.1-0.4,0.3-0.5,0.5s-0.2,0.4-0.2,0.6
		c0,0.4,0.2,0.6,0.5,0.8c0.3,0.2,0.8,0.3,1.3,0.3h1.9c1,0,1.7,0.1,2.1,0.4c0.4,0.3,0.7,0.7,0.7,1.3c0,0.3-0.1,0.7-0.3,1
		c-0.2,0.3-0.5,0.6-0.8,0.8c-0.4,0.2-0.8,0.4-1.3,0.6c-0.5,0.1-1.1,0.2-1.7,0.2c-1.2,0-2.1-0.2-2.7-0.6
		C246.2,300.3,245.9,299.8,245.9,299.1z M246.5,299.2c0,0.5,0.2,0.9,0.7,1.2c0.5,0.3,1.2,0.5,2.2,0.5c0.5,0,1-0.1,1.4-0.2
		c0.4-0.1,0.8-0.3,1.1-0.4c0.3-0.2,0.5-0.4,0.7-0.6c0.2-0.2,0.2-0.5,0.2-0.7c0-0.4-0.2-0.7-0.5-0.9c-0.3-0.2-0.8-0.2-1.5-0.2H249
		c-0.2,0-0.4,0-0.6,0c-0.2,0-0.4-0.1-0.6-0.1c-0.5,0.2-0.8,0.5-1,0.8S246.5,298.9,246.5,299.2z M249.2,294.7c0.3,0,0.6-0.1,0.8-0.2
		s0.5-0.2,0.7-0.4c0.2-0.2,0.4-0.4,0.5-0.7c0.1-0.3,0.2-0.6,0.2-0.9c0-0.3-0.1-0.6-0.2-0.9c-0.1-0.3-0.3-0.5-0.5-0.7
		c-0.2-0.2-0.4-0.3-0.7-0.4c-0.3-0.1-0.5-0.2-0.8-0.2c-0.3,0-0.6,0.1-0.8,0.2c-0.3,0.1-0.5,0.3-0.7,0.4c-0.2,0.2-0.3,0.4-0.5,0.7
		s-0.2,0.6-0.2,0.9c0,0.3,0.1,0.6,0.2,0.9c0.1,0.3,0.3,0.5,0.5,0.7c0.2,0.2,0.4,0.3,0.7,0.4S249,294.7,249.2,294.7z"></path>
	<path style="fill:#FFFFFF;" d="M258.7,297.4c-0.7-1.2-1-2.6-1-4.2c0-1.6,0.3-3,1-4.2c0.7-1.2,1.6-2.2,2.7-3.1l0.4,0.4
		c-1.2,0.9-2,1.9-2.6,3s-0.8,2.4-0.8,3.8c0,1.4,0.3,2.7,0.8,3.8c0.5,1.1,1.4,2.1,2.6,3l-0.4,0.4
		C260.3,299.6,259.4,298.6,258.7,297.4z"></path>
	<path style="fill:#FFFFFF;" d="M265,297.2c0.9-0.9,1.8-1.6,2.5-2.3c0.7-0.7,1.3-1.3,1.8-1.8s0.8-1.1,1-1.6c0.2-0.5,0.4-0.9,0.4-1.4
		c0-0.3,0-0.6-0.1-0.9c-0.1-0.3-0.2-0.5-0.5-0.7s-0.5-0.4-0.8-0.5c-0.3-0.1-0.7-0.2-1.1-0.2c-0.5,0-1,0.1-1.5,0.4
		c-0.5,0.3-0.9,0.6-1.2,1l-0.5-0.4c0.4-0.4,0.9-0.8,1.4-1.1s1.1-0.4,1.8-0.4c1,0,1.8,0.3,2.3,0.8c0.6,0.5,0.8,1.2,0.8,2.1
		c0,0.5-0.1,1-0.4,1.5c-0.2,0.5-0.6,1-1,1.6c-0.5,0.6-1,1.2-1.7,1.8c-0.7,0.6-1.4,1.3-2.2,2.1c0.3,0,0.6,0,1-0.1c0.3,0,0.6,0,1,0
		h3.9v0.6H265V297.2z"></path>
	<path style="fill:#FFFFFF;" d="M275.2,300c1.2-0.9,2-1.9,2.6-3c0.5-1.1,0.8-2.4,0.8-3.8c0-1.4-0.3-2.7-0.8-3.8
		c-0.5-1.1-1.4-2.1-2.6-3l0.4-0.4c1.2,0.8,2.1,1.9,2.7,3.1c0.7,1.2,1,2.6,1,4.2c0,1.6-0.3,3-1,4.2s-1.6,2.2-2.7,3.1L275.2,300z"></path>
</g>
<g>
	<path style="fill:#FFFFFF;" d="M24.3,328.7c0-0.4,0.1-0.7,0.3-0.9c0.2-0.2,0.5-0.3,0.7-0.3c0.3,0,0.5,0.1,0.7,0.3
		c0.2,0.2,0.3,0.5,0.3,0.9c0,0.4-0.1,0.7-0.3,0.9c-0.2,0.2-0.5,0.3-0.7,0.3c-0.3,0-0.5-0.1-0.7-0.3
		C24.4,329.4,24.3,329.1,24.3,328.7z"></path>
	<path style="fill:#FFFFFF;" d="M35.1,328.7c0-0.4,0.1-0.7,0.3-0.9c0.2-0.2,0.5-0.3,0.7-0.3c0.3,0,0.5,0.1,0.7,0.3
		c0.2,0.2,0.3,0.5,0.3,0.9c0,0.4-0.1,0.7-0.3,0.9c-0.2,0.2-0.5,0.3-0.7,0.3c-0.3,0-0.5-0.1-0.7-0.3
		C35.2,329.4,35.1,329.1,35.1,328.7z"></path>
	<path style="fill:#FFFFFF;" d="M45.9,328.7c0-0.4,0.1-0.7,0.3-0.9c0.2-0.2,0.5-0.3,0.7-0.3c0.3,0,0.5,0.1,0.7,0.3
		c0.2,0.2,0.3,0.5,0.3,0.9c0,0.4-0.1,0.7-0.3,0.9c-0.2,0.2-0.5,0.3-0.7,0.3c-0.3,0-0.5-0.1-0.7-0.3C46,329.4,45.9,329.1,45.9,328.7z
		"></path>
</g>
<g>
	<path style="fill:#FFFFFF;" d="M32.1,387.6c0.4,0.3,0.9,0.6,1.4,0.8c0.5,0.2,1.2,0.3,2,0.3c0.8,0,1.4-0.2,1.8-0.5
		c0.4-0.3,0.6-0.7,0.6-1.1c0-0.2,0-0.3-0.1-0.5s-0.2-0.3-0.4-0.4c-0.2-0.1-0.5-0.3-0.8-0.4c-0.4-0.1-0.8-0.3-1.4-0.4
		c-0.4-0.1-0.8-0.2-1.2-0.4s-0.7-0.3-1-0.5s-0.5-0.4-0.6-0.6c-0.2-0.2-0.2-0.4-0.2-0.7c0-0.3,0.1-0.5,0.2-0.8
		c0.1-0.2,0.3-0.5,0.6-0.7c0.2-0.2,0.6-0.3,0.9-0.4c0.4-0.1,0.8-0.2,1.3-0.2c0.5,0,1,0.1,1.6,0.3c0.5,0.2,1,0.4,1.4,0.7l-0.4,0.5
		c-0.3-0.3-0.7-0.5-1.2-0.6s-0.9-0.2-1.4-0.2c-0.4,0-0.8,0-1.1,0.1s-0.5,0.2-0.7,0.3c-0.2,0.1-0.3,0.3-0.4,0.4
		c-0.1,0.2-0.1,0.3-0.1,0.5c0,0.4,0.2,0.7,0.7,0.9c0.5,0.3,1.1,0.5,1.9,0.7c0.6,0.2,1.1,0.3,1.5,0.5c0.4,0.2,0.7,0.3,1,0.5
		c0.2,0.2,0.4,0.4,0.5,0.6c0.1,0.2,0.2,0.5,0.2,0.7c0,0.3-0.1,0.6-0.2,0.8c-0.1,0.3-0.3,0.5-0.6,0.7c-0.3,0.2-0.6,0.4-1,0.5
		s-0.8,0.2-1.3,0.2c-0.8,0-1.5-0.1-2.1-0.4c-0.6-0.2-1.2-0.5-1.6-0.9L32.1,387.6z"></path>
	<path style="fill:#FFFFFF;" d="M47.8,389.2h-0.6l-0.1-1.5h-0.1c-0.4,0.5-0.9,0.9-1.4,1.2c-0.5,0.3-1,0.5-1.7,0.5
		c-0.9,0-1.6-0.3-2.1-0.8c-0.4-0.5-0.7-1.3-0.7-2.3v-4.8H42v4.7c0,0.9,0.2,1.5,0.5,1.9s0.9,0.6,1.7,0.6c0.3,0,0.5,0,0.8-0.1
		c0.2-0.1,0.5-0.2,0.7-0.3c0.2-0.1,0.5-0.3,0.7-0.5c0.2-0.2,0.5-0.5,0.8-0.8v-5.5h0.7V389.2z"></path>
	<path style="fill:#FFFFFF;" d="M51.2,377.7h0.7v3.3l0,1.6c0.4-0.4,0.9-0.7,1.4-1s1-0.4,1.5-0.4c1.1,0,1.9,0.4,2.4,1.1
		s0.8,1.7,0.8,2.9c0,0.7-0.1,1.2-0.3,1.7c-0.2,0.5-0.5,0.9-0.8,1.3c-0.3,0.4-0.7,0.6-1.1,0.8c-0.4,0.2-0.9,0.3-1.4,0.3
		c-0.4,0-0.8-0.1-1.3-0.3c-0.5-0.2-0.9-0.4-1.3-0.8h0l-0.1,0.9h-0.6V377.7z M51.9,387.6c0.4,0.4,0.9,0.7,1.4,0.9s0.8,0.3,1.2,0.3
		c0.4,0,0.8-0.1,1.1-0.3c0.3-0.2,0.6-0.4,0.9-0.7s0.4-0.7,0.6-1.1c0.1-0.4,0.2-0.9,0.2-1.4c0-0.5,0-0.9-0.1-1.3
		c-0.1-0.4-0.2-0.8-0.5-1c-0.2-0.3-0.5-0.5-0.8-0.7s-0.7-0.2-1.2-0.2c-0.4,0-0.8,0.1-1.3,0.3c-0.5,0.2-1,0.6-1.4,1.1V387.6z"></path>
	<path style="fill:#FFFFFF;" d="M62.7,382.1h-2.3v-0.5l2.3-0.1l0.1-2.2h0.6v2.2h4.1v0.6h-4.1v4.3c0,0.4,0,0.7,0.1,1
		c0.1,0.3,0.2,0.5,0.3,0.8c0.2,0.2,0.4,0.4,0.6,0.5c0.3,0.1,0.6,0.2,1,0.2c0.4,0,0.8,0,1.1-0.1c0.3-0.1,0.7-0.2,1-0.3l0.2,0.5
		c-0.3,0.1-0.7,0.3-1.2,0.4c-0.4,0.1-0.8,0.1-1.2,0.1c-0.5,0-1-0.1-1.3-0.2c-0.4-0.1-0.6-0.4-0.8-0.6c-0.2-0.3-0.4-0.6-0.4-1
		c-0.1-0.4-0.1-0.8-0.1-1.3V382.1z"></path>
	<path style="fill:#FFFFFF;" d="M70.2,387.2c0-0.4,0.1-0.8,0.3-1.1c0.2-0.3,0.6-0.6,1-0.8c0.5-0.2,1.1-0.4,1.8-0.6
		c0.7-0.1,1.6-0.3,2.7-0.4c0-0.3,0-0.6-0.1-0.9c-0.1-0.3-0.2-0.6-0.4-0.8c-0.2-0.2-0.4-0.4-0.7-0.5c-0.3-0.1-0.7-0.2-1.1-0.2
		c-0.3,0-0.6,0-0.8,0.1c-0.3,0.1-0.5,0.1-0.8,0.3c-0.3,0.1-0.5,0.2-0.7,0.3c-0.2,0.1-0.4,0.2-0.6,0.3l-0.3-0.5
		c0.1-0.1,0.3-0.2,0.6-0.4c0.2-0.1,0.5-0.3,0.8-0.4c0.3-0.1,0.6-0.2,0.9-0.3c0.3-0.1,0.7-0.1,1-0.1c0.5,0,1,0.1,1.3,0.2
		s0.7,0.4,0.9,0.6s0.4,0.6,0.5,0.9c0.1,0.4,0.2,0.7,0.2,1.2v4.9h-0.6l-0.1-1.2h0c-0.4,0.4-1,0.7-1.5,0.9c-0.6,0.3-1.1,0.4-1.7,0.4
		c-0.3,0-0.7,0-1-0.1c-0.3-0.1-0.6-0.2-0.9-0.4c-0.2-0.2-0.4-0.4-0.6-0.7C70.3,387.9,70.2,387.6,70.2,387.2z M70.9,387.2
		c0,0.3,0.1,0.5,0.2,0.7s0.3,0.3,0.5,0.5c0.2,0.1,0.4,0.2,0.7,0.3c0.3,0.1,0.5,0.1,0.8,0.1c0.9,0,2-0.5,3.1-1.4v-2.5
		c-1,0.1-1.8,0.2-2.5,0.3c-0.7,0.1-1.2,0.3-1.6,0.5c-0.4,0.2-0.7,0.4-0.9,0.7C71,386.6,70.9,386.9,70.9,387.2z"></path>
	<path style="fill:#FFFFFF;" d="M80.1,387.6c0.4,0.3,0.9,0.6,1.4,0.8c0.5,0.2,1.2,0.3,2,0.3c0.8,0,1.4-0.2,1.8-0.5
		c0.4-0.3,0.6-0.7,0.6-1.1c0-0.2,0-0.3-0.1-0.5s-0.2-0.3-0.4-0.4c-0.2-0.1-0.5-0.3-0.8-0.4c-0.4-0.1-0.8-0.3-1.4-0.4
		c-0.4-0.1-0.8-0.2-1.2-0.4s-0.7-0.3-1-0.5s-0.5-0.4-0.6-0.6c-0.2-0.2-0.2-0.4-0.2-0.7c0-0.3,0.1-0.5,0.2-0.8
		c0.1-0.2,0.3-0.5,0.6-0.7c0.2-0.2,0.6-0.3,0.9-0.4c0.4-0.1,0.8-0.2,1.3-0.2c0.5,0,1,0.1,1.6,0.3c0.5,0.2,1,0.4,1.4,0.7l-0.4,0.5
		c-0.3-0.3-0.7-0.5-1.2-0.6s-0.9-0.2-1.4-0.2c-0.4,0-0.8,0-1.1,0.1s-0.5,0.2-0.7,0.3c-0.2,0.1-0.3,0.3-0.4,0.4
		c-0.1,0.2-0.1,0.3-0.1,0.5c0,0.4,0.2,0.7,0.7,0.9c0.5,0.3,1.1,0.5,1.9,0.7c0.6,0.2,1.1,0.3,1.5,0.5c0.4,0.2,0.7,0.3,1,0.5
		c0.2,0.2,0.4,0.4,0.5,0.6c0.1,0.2,0.2,0.5,0.2,0.7c0,0.3-0.1,0.6-0.2,0.8c-0.1,0.3-0.3,0.5-0.6,0.7c-0.3,0.2-0.6,0.4-1,0.5
		s-0.8,0.2-1.3,0.2c-0.8,0-1.5-0.1-2.1-0.4c-0.6-0.2-1.2-0.5-1.6-0.9L80.1,387.6z"></path>
	<path style="fill:#FFFFFF;" d="M89.9,377.7h0.7v8.4h0.1l4.9-4.6h0.9l-3.2,3l3.7,4.7h-0.8l-3.3-4.3l-2.2,2.1v2.2h-0.7V377.7z"></path>
	<path style="fill:#FFFFFF;" d="M109,387.9c0.6,0.6,1.3,0.8,2.2,0.8c0.5,0,0.9-0.1,1.3-0.3c0.4-0.2,0.8-0.5,1.1-0.9s0.6-0.9,0.8-1.6
		c0.2-0.6,0.3-1.4,0.3-2.4c-0.4,0.4-0.9,0.8-1.5,1s-1.1,0.4-1.7,0.4c-1,0-1.8-0.3-2.3-0.8c-0.6-0.5-0.9-1.3-0.9-2.4
		c0-0.5,0.1-0.9,0.3-1.3c0.2-0.4,0.4-0.7,0.7-1s0.6-0.5,1-0.7c0.4-0.2,0.8-0.2,1.2-0.2c0.6,0,1.1,0.1,1.6,0.3
		c0.5,0.2,0.9,0.5,1.2,0.9s0.6,0.9,0.8,1.5c0.2,0.6,0.3,1.3,0.3,2.1c0,1.1-0.1,2-0.4,2.7s-0.5,1.3-0.9,1.8c-0.4,0.5-0.8,0.8-1.3,1
		c-0.5,0.2-1,0.3-1.6,0.3c-0.6,0-1.1-0.1-1.5-0.3s-0.8-0.4-1.1-0.7L109,387.9z M111.6,384.5c0.5,0,1-0.1,1.5-0.4
		c0.5-0.2,1-0.6,1.6-1.2c0-0.5-0.1-1-0.3-1.5c-0.1-0.4-0.3-0.8-0.6-1.1c-0.3-0.3-0.6-0.6-0.9-0.7c-0.4-0.2-0.8-0.3-1.3-0.3
		c-0.4,0-0.7,0.1-1,0.2c-0.3,0.1-0.6,0.3-0.8,0.5c-0.2,0.2-0.4,0.5-0.5,0.8c-0.1,0.3-0.2,0.7-0.2,1c0,0.8,0.2,1.4,0.6,1.9
		C110.1,384.3,110.7,384.5,111.6,384.5z"></path>
	<path style="fill:#FFFFFF;" d="M118.6,387.9c0.6,0.6,1.3,0.8,2.2,0.8c0.5,0,0.9-0.1,1.3-0.3c0.4-0.2,0.8-0.5,1.1-0.9
		s0.6-0.9,0.8-1.6c0.2-0.6,0.3-1.4,0.3-2.4c-0.4,0.4-0.9,0.8-1.5,1s-1.1,0.4-1.7,0.4c-1,0-1.8-0.3-2.3-0.8c-0.6-0.5-0.9-1.3-0.9-2.4
		c0-0.5,0.1-0.9,0.3-1.3c0.2-0.4,0.4-0.7,0.7-1s0.6-0.5,1-0.7c0.4-0.2,0.8-0.2,1.2-0.2c0.6,0,1.1,0.1,1.6,0.3
		c0.5,0.2,0.9,0.5,1.2,0.9s0.6,0.9,0.8,1.5c0.2,0.6,0.3,1.3,0.3,2.1c0,1.1-0.1,2-0.4,2.7s-0.5,1.3-0.9,1.8c-0.4,0.5-0.8,0.8-1.3,1
		c-0.5,0.2-1,0.3-1.6,0.3c-0.6,0-1.1-0.1-1.5-0.3s-0.8-0.4-1.1-0.7L118.6,387.9z M121.2,384.5c0.5,0,1-0.1,1.5-0.4
		c0.5-0.2,1-0.6,1.6-1.2c0-0.5-0.1-1-0.3-1.5c-0.1-0.4-0.3-0.8-0.6-1.1c-0.3-0.3-0.6-0.6-0.9-0.7c-0.4-0.2-0.8-0.3-1.3-0.3
		c-0.4,0-0.7,0.1-1,0.2c-0.3,0.1-0.6,0.3-0.8,0.5c-0.2,0.2-0.4,0.5-0.5,0.8c-0.1,0.3-0.2,0.7-0.2,1c0,0.8,0.2,1.4,0.6,1.9
		C119.7,384.3,120.3,384.5,121.2,384.5z"></path>
	<path style="fill:#FFFFFF;" d="M128.2,387.9c0.6,0.6,1.3,0.8,2.2,0.8c0.5,0,0.9-0.1,1.3-0.3c0.4-0.2,0.8-0.5,1.1-0.9
		s0.6-0.9,0.8-1.6c0.2-0.6,0.3-1.4,0.3-2.4c-0.4,0.4-0.9,0.8-1.5,1s-1.1,0.4-1.7,0.4c-1,0-1.8-0.3-2.3-0.8c-0.6-0.5-0.9-1.3-0.9-2.4
		c0-0.5,0.1-0.9,0.3-1.3c0.2-0.4,0.4-0.7,0.7-1s0.6-0.5,1-0.7c0.4-0.2,0.8-0.2,1.2-0.2c0.6,0,1.1,0.1,1.6,0.3
		c0.5,0.2,0.9,0.5,1.2,0.9s0.6,0.9,0.8,1.5c0.2,0.6,0.3,1.3,0.3,2.1c0,1.1-0.1,2-0.4,2.7s-0.5,1.3-0.9,1.8c-0.4,0.5-0.8,0.8-1.3,1
		c-0.5,0.2-1,0.3-1.6,0.3c-0.6,0-1.1-0.1-1.5-0.3s-0.8-0.4-1.1-0.7L128.2,387.9z M130.8,384.5c0.5,0,1-0.1,1.5-0.4
		c0.5-0.2,1-0.6,1.6-1.2c0-0.5-0.1-1-0.3-1.5c-0.1-0.4-0.3-0.8-0.6-1.1c-0.3-0.3-0.6-0.6-0.9-0.7c-0.4-0.2-0.8-0.3-1.3-0.3
		c-0.4,0-0.7,0.1-1,0.2c-0.3,0.1-0.6,0.3-0.8,0.5c-0.2,0.2-0.4,0.5-0.5,0.8c-0.1,0.3-0.2,0.7-0.2,1c0,0.8,0.2,1.4,0.6,1.9
		C129.3,384.3,129.9,384.5,130.8,384.5z"></path>
	<path style="fill:#FFFFFF;" d="M139.8,382.3c0-0.3,0.1-0.6,0.3-0.8c0.2-0.2,0.4-0.3,0.7-0.3s0.5,0.1,0.7,0.3
		c0.2,0.2,0.3,0.4,0.3,0.8c0,0.3-0.1,0.6-0.3,0.8s-0.4,0.3-0.7,0.3s-0.5-0.1-0.7-0.3S139.8,382.6,139.8,382.3z M139.8,388.3
		c0-0.3,0.1-0.6,0.3-0.8s0.4-0.3,0.7-0.3s0.5,0.1,0.7,0.3s0.3,0.4,0.3,0.8c0,0.3-0.1,0.6-0.3,0.8s-0.4,0.3-0.7,0.3s-0.5-0.1-0.7-0.3
		S139.8,388.7,139.8,388.3z"></path>
	<path style="fill:#FFFFFF;" d="M156.2,385.3c0-0.6,0.1-1.2,0.3-1.7s0.5-0.9,0.8-1.3s0.7-0.6,1.2-0.8c0.4-0.2,0.9-0.3,1.4-0.3
		c0.5,0,1,0.1,1.4,0.3s0.8,0.5,1.2,0.8l0-1.6v-3.2h0.7v11.5h-0.6l-0.1-1.1h0c-0.3,0.4-0.7,0.7-1.2,0.9c-0.5,0.3-1,0.4-1.5,0.4
		c-0.5,0-1-0.1-1.4-0.3c-0.4-0.2-0.8-0.4-1.1-0.8c-0.3-0.3-0.5-0.8-0.7-1.3C156.3,386.6,156.2,386,156.2,385.3z M157,385.3
		c0,0.5,0.1,1,0.2,1.4s0.3,0.8,0.5,1.1s0.5,0.5,0.9,0.7c0.3,0.2,0.7,0.2,1.2,0.2c0.4,0,0.9-0.1,1.3-0.4c0.4-0.2,0.9-0.6,1.3-1v-4.3
		c-0.4-0.4-0.9-0.7-1.3-0.9c-0.4-0.2-0.8-0.3-1.2-0.3c-0.4,0-0.8,0.1-1.1,0.3c-0.4,0.2-0.7,0.4-0.9,0.7c-0.3,0.3-0.5,0.7-0.6,1.1
		S157,384.9,157,385.3z"></path>
	<path style="fill:#FFFFFF;" d="M165.8,385.3c0-0.6,0.1-1.2,0.3-1.7c0.2-0.5,0.5-0.9,0.8-1.3c0.3-0.3,0.7-0.6,1.2-0.8
		c0.5-0.2,0.9-0.3,1.4-0.3s1,0.1,1.4,0.3c0.5,0.2,0.8,0.4,1.2,0.8c0.3,0.3,0.6,0.8,0.8,1.3c0.2,0.5,0.3,1.1,0.3,1.7
		s-0.1,1.2-0.3,1.7c-0.2,0.5-0.5,0.9-0.8,1.3c-0.3,0.3-0.7,0.6-1.2,0.8c-0.5,0.2-0.9,0.3-1.4,0.3s-1-0.1-1.4-0.3
		c-0.5-0.2-0.9-0.4-1.2-0.8c-0.3-0.3-0.6-0.8-0.8-1.3S165.8,386,165.8,385.3z M166.6,385.3c0,0.5,0.1,1,0.2,1.4s0.4,0.8,0.6,1.1
		c0.3,0.3,0.6,0.5,0.9,0.7c0.4,0.2,0.8,0.2,1.2,0.2c0.4,0,0.8-0.1,1.2-0.2c0.4-0.2,0.7-0.4,0.9-0.7c0.3-0.3,0.5-0.7,0.6-1.1
		s0.2-0.9,0.2-1.4c0-0.5-0.1-1-0.2-1.4s-0.4-0.8-0.6-1.1c-0.3-0.3-0.6-0.5-0.9-0.7s-0.8-0.2-1.2-0.2c-0.4,0-0.8,0.1-1.2,0.2
		c-0.4,0.2-0.7,0.4-0.9,0.7c-0.3,0.3-0.5,0.7-0.6,1.1S166.6,384.8,166.6,385.3z"></path>
	<path style="fill:#FFFFFF;" d="M183,390.4v0.7h-7.7v-0.7H183z"></path>
	<path style="fill:#FFFFFF;" d="M185.7,387.6c0.4,0.3,0.9,0.6,1.4,0.8c0.5,0.2,1.2,0.3,2,0.3c0.8,0,1.4-0.2,1.8-0.5
		c0.4-0.3,0.6-0.7,0.6-1.1c0-0.2,0-0.3-0.1-0.5s-0.2-0.3-0.4-0.4c-0.2-0.1-0.5-0.3-0.8-0.4c-0.4-0.1-0.8-0.3-1.4-0.4
		c-0.4-0.1-0.8-0.2-1.2-0.4s-0.7-0.3-1-0.5s-0.5-0.4-0.6-0.6c-0.2-0.2-0.2-0.4-0.2-0.7c0-0.3,0.1-0.5,0.2-0.8
		c0.1-0.2,0.3-0.5,0.6-0.7c0.2-0.2,0.6-0.3,0.9-0.4c0.4-0.1,0.8-0.2,1.3-0.2c0.5,0,1,0.1,1.6,0.3c0.5,0.2,1,0.4,1.4,0.7l-0.4,0.5
		c-0.3-0.3-0.7-0.5-1.2-0.6s-0.9-0.2-1.4-0.2c-0.4,0-0.8,0-1.1,0.1s-0.5,0.2-0.7,0.3c-0.2,0.1-0.3,0.3-0.4,0.4
		c-0.1,0.2-0.1,0.3-0.1,0.5c0,0.4,0.2,0.7,0.7,0.9c0.5,0.3,1.1,0.5,1.9,0.7c0.6,0.2,1.1,0.3,1.5,0.5c0.4,0.2,0.7,0.3,1,0.5
		c0.2,0.2,0.4,0.4,0.5,0.6c0.1,0.2,0.2,0.5,0.2,0.7c0,0.3-0.1,0.6-0.2,0.8c-0.1,0.3-0.3,0.5-0.6,0.7c-0.3,0.2-0.6,0.4-1,0.5
		s-0.8,0.2-1.3,0.2c-0.8,0-1.5-0.1-2.1-0.4c-0.6-0.2-1.2-0.5-1.6-0.9L185.7,387.6z"></path>
	<path style="fill:#FFFFFF;" d="M194.6,385.3c0-0.6,0.1-1.2,0.3-1.7c0.2-0.5,0.5-0.9,0.8-1.3c0.3-0.3,0.7-0.6,1.2-0.8
		c0.5-0.2,0.9-0.3,1.4-0.3s1,0.1,1.4,0.3c0.5,0.2,0.8,0.4,1.2,0.8c0.3,0.3,0.6,0.8,0.8,1.3c0.2,0.5,0.3,1.1,0.3,1.7
		s-0.1,1.2-0.3,1.7c-0.2,0.5-0.5,0.9-0.8,1.3c-0.3,0.3-0.7,0.6-1.2,0.8c-0.5,0.2-0.9,0.3-1.4,0.3s-1-0.1-1.4-0.3
		c-0.5-0.2-0.9-0.4-1.2-0.8c-0.3-0.3-0.6-0.8-0.8-1.3S194.6,386,194.6,385.3z M195.4,385.3c0,0.5,0.1,1,0.2,1.4s0.4,0.8,0.6,1.1
		c0.3,0.3,0.6,0.5,0.9,0.7c0.4,0.2,0.8,0.2,1.2,0.2c0.4,0,0.8-0.1,1.2-0.2c0.4-0.2,0.7-0.4,0.9-0.7c0.3-0.3,0.5-0.7,0.6-1.1
		s0.2-0.9,0.2-1.4c0-0.5-0.1-1-0.2-1.4s-0.4-0.8-0.6-1.1c-0.3-0.3-0.6-0.5-0.9-0.7s-0.8-0.2-1.2-0.2c-0.4,0-0.8,0.1-1.2,0.2
		c-0.4,0.2-0.7,0.4-0.9,0.7c-0.3,0.3-0.5,0.7-0.6,1.1S195.4,384.8,195.4,385.3z"></path>
	<path style="fill:#FFFFFF;" d="M204.3,381.5h0.6l0.1,1h0c0.2-0.4,0.5-0.7,0.7-0.9c0.3-0.2,0.6-0.3,1-0.3c0.8,0,1.3,0.5,1.5,1.4
		c0.3-0.4,0.6-0.8,0.8-1c0.3-0.2,0.6-0.4,1.1-0.4c0.5,0,0.9,0.2,1.2,0.6c0.3,0.4,0.4,1,0.4,1.7v5.6h-0.7v-5.5c0-1.2-0.4-1.7-1.1-1.7
		c-0.3,0-0.6,0.1-0.9,0.4c-0.3,0.2-0.5,0.6-0.8,1.1v5.8h-0.6v-5.5c0-1.2-0.4-1.7-1.1-1.7c-0.4,0-0.7,0.1-0.9,0.4s-0.5,0.6-0.7,1.1
		v5.8h-0.7V381.5z"></path>
	<path style="fill:#FFFFFF;" d="M214,385.3c0-0.6,0.1-1.2,0.3-1.7c0.2-0.5,0.5-0.9,0.9-1.3s0.8-0.6,1.2-0.8c0.5-0.2,0.9-0.3,1.4-0.3
		c0.5,0,1,0.1,1.4,0.2c0.4,0.2,0.8,0.4,1.1,0.7s0.5,0.7,0.7,1.1c0.2,0.4,0.2,0.9,0.2,1.5c0,0.1,0,0.2,0,0.3s0,0.2,0,0.3h-6.5
		c0,0.5,0.1,0.9,0.3,1.3c0.2,0.4,0.4,0.8,0.7,1.1c0.3,0.3,0.6,0.5,1.1,0.7c0.4,0.2,0.9,0.2,1.4,0.2c0.5,0,1-0.1,1.4-0.2
		c0.4-0.2,0.8-0.4,1.2-0.6l0.3,0.5c-0.4,0.2-0.8,0.4-1.2,0.6c-0.5,0.2-1,0.3-1.7,0.3c-0.6,0-1.1-0.1-1.6-0.3s-0.9-0.4-1.3-0.8
		c-0.4-0.3-0.7-0.8-0.9-1.3C214.1,386.5,214,386,214,385.3z M220.6,384.8c0-1-0.2-1.7-0.7-2.2s-1.2-0.7-2-0.7
		c-0.4,0-0.8,0.1-1.1,0.2c-0.4,0.1-0.7,0.3-0.9,0.6s-0.5,0.6-0.7,0.9c-0.2,0.4-0.3,0.8-0.4,1.2H220.6z"></path>
	<path style="fill:#FFFFFF;" d="M225.9,382.1h-2.3v-0.5l2.3-0.1l0.1-2.2h0.6v2.2h4.1v0.6h-4.1v4.3c0,0.4,0,0.7,0.1,1
		c0.1,0.3,0.2,0.5,0.3,0.8c0.2,0.2,0.4,0.4,0.6,0.5c0.3,0.1,0.6,0.2,1,0.2c0.4,0,0.8,0,1.1-0.1c0.3-0.1,0.7-0.2,1-0.3l0.2,0.5
		c-0.3,0.1-0.7,0.3-1.2,0.4c-0.4,0.1-0.8,0.1-1.2,0.1c-0.5,0-1-0.1-1.3-0.2c-0.4-0.1-0.6-0.4-0.8-0.6c-0.2-0.3-0.4-0.6-0.4-1
		c-0.1-0.4-0.1-0.8-0.1-1.3V382.1z"></path>
	<path style="fill:#FFFFFF;" d="M233.6,377.7h0.7v3.3l0,2c0.5-0.5,1-0.9,1.4-1.2s1-0.5,1.7-0.5c1.8,0,2.8,1,2.8,3.1v4.8h-0.7v-4.7
		c0-0.9-0.2-1.5-0.5-1.9s-0.9-0.6-1.7-0.6c-0.3,0-0.5,0-0.8,0.1c-0.2,0.1-0.5,0.2-0.7,0.3c-0.2,0.1-0.5,0.3-0.7,0.5
		c-0.2,0.2-0.5,0.5-0.8,0.8v5.5h-0.7V377.7z"></path>
	<path style="fill:#FFFFFF;" d="M243.1,381.5h4.6v7.7h-0.7v-7.1h-3.9V381.5z M247.1,379.6c-0.2,0-0.4-0.1-0.5-0.2
		c-0.1-0.1-0.2-0.3-0.2-0.6s0.1-0.4,0.2-0.6c0.1-0.1,0.3-0.2,0.5-0.2c0.2,0,0.4,0.1,0.5,0.2c0.1,0.1,0.2,0.3,0.2,0.6
		s-0.1,0.4-0.2,0.6C247.5,379.6,247.3,379.6,247.1,379.6z"></path>
	<path style="fill:#FFFFFF;" d="M252.8,381.5h0.6l0.1,1.5h0.1c0.4-0.5,0.9-0.9,1.4-1.2c0.5-0.3,1-0.5,1.6-0.5c1.8,0,2.8,1,2.8,3.1
		v4.8h-0.7v-4.7c0-0.9-0.2-1.5-0.5-1.9s-0.9-0.6-1.7-0.6c-0.3,0-0.5,0-0.8,0.1c-0.2,0.1-0.5,0.2-0.7,0.3c-0.2,0.1-0.5,0.3-0.7,0.5
		c-0.2,0.2-0.5,0.5-0.8,0.8v5.5h-0.7V381.5z"></path>
	<path style="fill:#FFFFFF;" d="M262.1,390.6c0-0.3,0.1-0.6,0.3-0.9c0.2-0.3,0.5-0.6,1-0.9v-0.1c-0.2-0.1-0.4-0.2-0.5-0.4
		c-0.2-0.2-0.3-0.5-0.3-0.8c0-0.2,0.1-0.5,0.2-0.8c0.2-0.3,0.4-0.5,0.7-0.7V386c-0.2-0.2-0.5-0.5-0.6-0.8c-0.2-0.3-0.3-0.7-0.3-1.2
		c0-0.4,0.1-0.8,0.2-1.1s0.4-0.6,0.6-0.9c0.3-0.2,0.6-0.4,0.9-0.6c0.3-0.1,0.7-0.2,1.1-0.2s0.7,0.1,1.1,0.2h3.2v0.6h-2.3
		c0.2,0.2,0.5,0.5,0.6,0.8c0.2,0.3,0.3,0.7,0.3,1.1c0,0.4-0.1,0.8-0.2,1.1c-0.1,0.3-0.4,0.6-0.6,0.8s-0.6,0.4-0.9,0.6
		c-0.3,0.1-0.7,0.2-1.1,0.2c-0.2,0-0.5,0-0.7-0.1c-0.3-0.1-0.5-0.1-0.7-0.3c-0.2,0.1-0.4,0.3-0.5,0.5c-0.1,0.2-0.2,0.4-0.2,0.6
		c0,0.4,0.2,0.6,0.5,0.8c0.3,0.2,0.8,0.3,1.3,0.3h1.9c1,0,1.7,0.1,2.1,0.4c0.4,0.3,0.7,0.7,0.7,1.3c0,0.3-0.1,0.7-0.3,1
		s-0.5,0.6-0.8,0.8c-0.4,0.2-0.8,0.4-1.3,0.6c-0.5,0.1-1.1,0.2-1.7,0.2c-1.2,0-2.1-0.2-2.7-0.6C262.4,391.9,262.1,391.3,262.1,390.6
		z M262.7,390.7c0,0.5,0.2,0.9,0.7,1.2c0.5,0.3,1.2,0.5,2.2,0.5c0.5,0,1-0.1,1.4-0.2c0.4-0.1,0.8-0.3,1.1-0.4
		c0.3-0.2,0.5-0.4,0.7-0.6c0.2-0.2,0.2-0.5,0.2-0.7c0-0.4-0.2-0.7-0.5-0.9c-0.3-0.2-0.8-0.2-1.5-0.2h-1.8c-0.2,0-0.4,0-0.6,0
		c-0.2,0-0.4-0.1-0.6-0.1c-0.5,0.2-0.8,0.5-1,0.8S262.7,390.4,262.7,390.7z M265.4,386.2c0.3,0,0.6-0.1,0.8-0.2
		c0.3-0.1,0.5-0.2,0.7-0.4c0.2-0.2,0.4-0.4,0.5-0.7c0.1-0.3,0.2-0.6,0.2-0.9c0-0.3-0.1-0.6-0.2-0.9c-0.1-0.3-0.3-0.5-0.5-0.7
		c-0.2-0.2-0.4-0.3-0.7-0.4c-0.3-0.1-0.5-0.2-0.8-0.2c-0.3,0-0.6,0.1-0.8,0.2c-0.3,0.1-0.5,0.3-0.7,0.4c-0.2,0.2-0.3,0.4-0.5,0.7
		s-0.2,0.6-0.2,0.9c0,0.3,0.1,0.6,0.2,0.9c0.1,0.3,0.3,0.5,0.5,0.7c0.2,0.2,0.4,0.3,0.7,0.4C264.9,386.1,265.2,386.2,265.4,386.2z"></path>
	<path style="fill:#FFFFFF;" d="M274.9,388.9c-0.7-1.2-1-2.6-1-4.2c0-1.6,0.3-3,1-4.2c0.7-1.2,1.6-2.2,2.7-3.1l0.4,0.4
		c-1.2,0.9-2,1.9-2.6,3s-0.8,2.4-0.8,3.8c0,1.4,0.3,2.7,0.8,3.8c0.5,1.1,1.4,2.1,2.6,3l-0.4,0.4
		C276.5,391.1,275.6,390.1,274.9,388.9z"></path>
	<path style="fill:#FFFFFF;" d="M281.8,387.9c0.6,0.6,1.3,0.8,2.2,0.8c0.5,0,0.9-0.1,1.3-0.3c0.4-0.2,0.8-0.5,1.1-0.9
		s0.6-0.9,0.8-1.6c0.2-0.6,0.3-1.4,0.3-2.4c-0.4,0.4-0.9,0.8-1.5,1s-1.1,0.4-1.7,0.4c-1,0-1.8-0.3-2.3-0.8c-0.6-0.5-0.9-1.3-0.9-2.4
		c0-0.5,0.1-0.9,0.3-1.3c0.2-0.4,0.4-0.7,0.7-1s0.6-0.5,1-0.7c0.4-0.2,0.8-0.2,1.2-0.2c0.6,0,1.1,0.1,1.6,0.3
		c0.5,0.2,0.9,0.5,1.2,0.9s0.6,0.9,0.8,1.5c0.2,0.6,0.3,1.3,0.3,2.1c0,1.1-0.1,2-0.4,2.7s-0.5,1.3-0.9,1.8c-0.4,0.5-0.8,0.8-1.3,1
		c-0.5,0.2-1,0.3-1.6,0.3c-0.6,0-1.1-0.1-1.5-0.3s-0.8-0.4-1.1-0.7L281.8,387.9z M284.4,384.5c0.5,0,1-0.1,1.5-0.4
		c0.5-0.2,1-0.6,1.6-1.2c0-0.5-0.1-1-0.3-1.5c-0.1-0.4-0.3-0.8-0.6-1.1c-0.3-0.3-0.6-0.6-0.9-0.7c-0.4-0.2-0.8-0.3-1.3-0.3
		c-0.4,0-0.7,0.1-1,0.2c-0.3,0.1-0.6,0.3-0.8,0.5c-0.2,0.2-0.4,0.5-0.5,0.8c-0.1,0.3-0.2,0.7-0.2,1c0,0.8,0.2,1.4,0.6,1.9
		C282.9,384.3,283.5,384.5,284.4,384.5z"></path>
	<path style="fill:#FFFFFF;" d="M291.4,387.9c0.6,0.6,1.3,0.8,2.2,0.8c0.5,0,0.9-0.1,1.3-0.3c0.4-0.2,0.8-0.5,1.1-0.9
		s0.6-0.9,0.8-1.6c0.2-0.6,0.3-1.4,0.3-2.4c-0.4,0.4-0.9,0.8-1.5,1s-1.1,0.4-1.7,0.4c-1,0-1.8-0.3-2.3-0.8c-0.6-0.5-0.9-1.3-0.9-2.4
		c0-0.5,0.1-0.9,0.3-1.3c0.2-0.4,0.4-0.7,0.7-1s0.6-0.5,1-0.7c0.4-0.2,0.8-0.2,1.2-0.2c0.6,0,1.1,0.1,1.6,0.3
		c0.5,0.2,0.9,0.5,1.2,0.9s0.6,0.9,0.8,1.5c0.2,0.6,0.3,1.3,0.3,2.1c0,1.1-0.1,2-0.4,2.7s-0.5,1.3-0.9,1.8c-0.4,0.5-0.8,0.8-1.3,1
		c-0.5,0.2-1,0.3-1.6,0.3c-0.6,0-1.1-0.1-1.5-0.3s-0.8-0.4-1.1-0.7L291.4,387.9z M294,384.5c0.5,0,1-0.1,1.5-0.4
		c0.5-0.2,1-0.6,1.6-1.2c0-0.5-0.1-1-0.3-1.5c-0.1-0.4-0.3-0.8-0.6-1.1c-0.3-0.3-0.6-0.6-0.9-0.7c-0.4-0.2-0.8-0.3-1.3-0.3
		c-0.4,0-0.7,0.1-1,0.2c-0.3,0.1-0.6,0.3-0.8,0.5c-0.2,0.2-0.4,0.5-0.5,0.8c-0.1,0.3-0.2,0.7-0.2,1c0,0.8,0.2,1.4,0.6,1.9
		C292.5,384.3,293.1,384.5,294,384.5z"></path>
	<path style="fill:#FFFFFF;" d="M301,387.9c0.6,0.6,1.3,0.8,2.2,0.8c0.5,0,0.9-0.1,1.3-0.3c0.4-0.2,0.8-0.5,1.1-0.9s0.6-0.9,0.8-1.6
		c0.2-0.6,0.3-1.4,0.3-2.4c-0.4,0.4-0.9,0.8-1.5,1s-1.1,0.4-1.7,0.4c-1,0-1.8-0.3-2.3-0.8c-0.6-0.5-0.9-1.3-0.9-2.4
		c0-0.5,0.1-0.9,0.3-1.3c0.2-0.4,0.4-0.7,0.7-1s0.6-0.5,1-0.7c0.4-0.2,0.8-0.2,1.2-0.2c0.6,0,1.1,0.1,1.6,0.3
		c0.5,0.2,0.9,0.5,1.2,0.9s0.6,0.9,0.8,1.5c0.2,0.6,0.3,1.3,0.3,2.1c0,1.1-0.1,2-0.4,2.7s-0.5,1.3-0.9,1.8c-0.4,0.5-0.8,0.8-1.3,1
		c-0.5,0.2-1,0.3-1.6,0.3c-0.6,0-1.1-0.1-1.5-0.3s-0.8-0.4-1.1-0.7L301,387.9z M303.6,384.5c0.5,0,1-0.1,1.5-0.4
		c0.5-0.2,1-0.6,1.6-1.2c0-0.5-0.1-1-0.3-1.5c-0.1-0.4-0.3-0.8-0.6-1.1c-0.3-0.3-0.6-0.6-0.9-0.7c-0.4-0.2-0.8-0.3-1.3-0.3
		c-0.4,0-0.7,0.1-1,0.2c-0.3,0.1-0.6,0.3-0.8,0.5c-0.2,0.2-0.4,0.5-0.5,0.8c-0.1,0.3-0.2,0.7-0.2,1c0,0.8,0.2,1.4,0.6,1.9
		C302.1,384.3,302.7,384.5,303.6,384.5z"></path>
	<path style="fill:#FFFFFF;" d="M310.6,391.5c1.2-0.9,2-1.9,2.6-3c0.5-1.1,0.8-2.4,0.8-3.8c0-1.4-0.3-2.7-0.8-3.8
		c-0.5-1.1-1.4-2.1-2.6-3l0.4-0.4c1.2,0.8,2.1,1.9,2.7,3.1s1,2.6,1,4.2c0,1.6-0.3,3-1,4.2s-1.6,2.2-2.7,3.1L310.6,391.5z"></path>
</g>
<g>
	<g>
		<g>
			<rect x="10.5" y="168.2" style="fill:#B66F6F;" width="379" height="49"></rect>
		</g>
		<g>
			<path style="fill:#B66F6F;" d="M389,168.7v48H11v-48H389 M390,167.7H10v50h380V167.7L390,167.7z"></path>
		</g>
	</g>
</g>
<g>
	<path style="fill:#FFFFFF;" d="M39.2,188.5l-0.6,0.6c-0.7-0.6-1.8-1.5-3.9-1.5c-3.1,0-5.3,2.5-5.3,5.7c0,3.3,2.2,5.6,5.3,5.6
		c2.3,0,3.6-1,4-1.5v-3.2h-3v-0.8h3.9v4.3c-1.4,1.5-3,2.1-4.9,2.1c-3.6,0-6.3-2.8-6.3-6.5c0-3.7,2.7-6.6,6.3-6.6
		C37,186.8,38.5,187.9,39.2,188.5z"></path>
	<path style="fill:#FFFFFF;" d="M49.7,186.8c3.6,0,6.4,2.8,6.4,6.5c0,3.7-2.8,6.5-6.4,6.5c-3.5,0-6.4-2.8-6.4-6.5
		C43.3,189.6,46.2,186.8,49.7,186.8z M49.7,199c3,0,5.4-2.4,5.4-5.7c0-3.2-2.4-5.7-5.4-5.7c-3.1,0-5.4,2.4-5.4,5.7
		C44.3,196.6,46.6,199,49.7,199z"></path>
	<path style="fill:#FFFFFF;" d="M60.2,187.1h0.9v11.8h5v0.8h-5.9V187.1z"></path>
	<path style="fill:#FFFFFF;" d="M70,187.1h5.7v0.8h-4.8v4.9h4.2v0.8h-4.2v5.2h5v0.8H70V187.1z"></path>
	<path style="fill:#FFFFFF;" d="M86.4,197.5l5-10.4h1.2v12.6h-0.9v-11.3l-4.8,10h-1l-4.8-10v11.3h-0.9v-12.6h1.2L86.4,197.5z"></path>
	<path style="fill:#FFFFFF;" d="M106.4,187.9h-3.6v-0.8h8.2v0.8h-3.6v11.8h-0.9V187.9z"></path>
	<path style="fill:#FFFFFF;" d="M115.2,195.1l-1.7,4.5h-0.9l4.8-12.6h0.9l4.8,12.6h-0.9l-1.7-4.5H115.2z M117.9,188.1l-2.3,6.2h4.6
		L117.9,188.1z"></path>
	<path style="fill:#FFFFFF;" d="M126.7,196.9c0.4,1,1.1,2.1,3.1,2.1c1.5,0,2.7-0.9,2.7-2.5c0-3.7-6.1-2.6-6.1-6.7c0-1.7,1.3-3,3.4-3
		c2.1,0,3.1,1.4,3.4,2.2l-0.8,0.3c-0.3-0.7-1.1-1.7-2.6-1.7c-1.6,0-2.5,1-2.5,2.2c0,3.3,6.1,2.5,6.1,6.6c0,1.9-1.4,3.4-3.6,3.4
		c-2.3,0-3.4-1.4-3.8-2.7L126.7,196.9z"></path>
	<path style="fill:#FFFFFF;" d="M137.5,187.1h0.9v5.9l5.5-5.9h1.2l-5.6,6l5.9,6.6h-1.2l-5.7-6.4v6.4h-0.9V187.1z"></path>
</g>
<g>
	<path style="fill:#B66F6F;" d="M379,228.7v34H21v-34H379 M380,227.7H20v36h360V227.7L380,227.7z"></path>
</g>
<g>
	<path style="fill:#B66F6F;" d="M379,274.7v34H21v-34H379 M380,273.7H20v36h360V273.7L380,273.7z"></path>
</g>
<g>
	<path style="fill:#B66F6F;" d="M379,366.7v34H21v-34H379 M380,365.7H20v36h360V365.7L380,365.7z"></path>
</g>
<g>
	<polygon style="fill:#B66F6F;" points="32.8,123.7 32.8,146.9 27.6,141.6 26.8,142.3 32.8,148.3 32.8,167.7 33.8,167.7 33.8,148.3 
		39.8,142.3 39.1,141.6 33.8,146.8 33.8,123.7 	"></polygon>
</g>
</svg>
